<svg xmlns="http://www.w3.org/2000/svg" xmlns:xlink="http://www.w3.org/1999/xlink" contentStyleType="text/css" height="506px" preserveAspectRatio="none" style="width:617px;height:506px;background:#FFFFFF;" version="1.1" viewBox="0 0 617 506" width="617px" zoomAndPan="magnify"><defs/><g><rect fill="#90EE90" height="237.084" style="stroke:#000000;stroke-width:1.5;" width="600.8662" x="10" y="171.1094"/><rect fill="#FF7F50" height="44.2656" style="stroke:none;stroke-width:1.0;" width="600.8662" x="10" y="319.6621"/><rect fill="#FF7F50" height="44.2656" style="stroke:none;stroke-width:1.0;" width="600.8662" x="10" y="363.9277"/><line style="stroke:#181818;stroke-width:0.5;stroke-dasharray:5.0,5.0;" x1="38" x2="38" y1="81.4883" y2="425.1934"/><line style="stroke:#181818;stroke-width:0.5;stroke-dasharray:5.0,5.0;" x1="230.7334" x2="230.7334" y1="81.4883" y2="425.1934"/><line style="stroke:#181818;stroke-width:0.5;stroke-dasharray:5.0,5.0;" x1="311.9727" x2="311.9727" y1="81.4883" y2="425.1934"/><line style="stroke:#181818;stroke-width:0.5;stroke-dasharray:5.0,5.0;" x1="423.9912" x2="423.9912" y1="81.4883" y2="425.1934"/><line style="stroke:#181818;stroke-width:0.5;stroke-dasharray:5.0,5.0;" x1="568.7607" x2="568.7607" y1="81.4883" y2="425.1934"/><text fill="#000000" font-family="sans-serif" font-size="14" lengthAdjust="spacing" textLength="30.3652" x="20" y="78.5352">User</text><ellipse cx="38.1826" cy="13.5" fill="#E2E2F0" rx="8" ry="8" style="stroke:#181818;stroke-width:0.5;"/><path d="M38.1826,21.5 L38.1826,48.5 M25.1826,29.5 L51.1826,29.5 M38.1826,48.5 L25.1826,63.5 M38.1826,48.5 L51.1826,63.5 " fill="none" style="stroke:#181818;stroke-width:0.5;"/><text fill="#000000" font-family="sans-serif" font-size="14" lengthAdjust="spacing" textLength="30.3652" x="20" y="437.7285">User</text><ellipse cx="38.1826" cy="449.1816" fill="#E2E2F0" rx="8" ry="8" style="stroke:#181818;stroke-width:0.5;"/><path d="M38.1826,457.1816 L38.1826,484.1816 M25.1826,465.1816 L51.1826,465.1816 M38.1826,484.1816 L25.1826,499.1816 M38.1826,484.1816 L51.1826,499.1816 " fill="none" style="stroke:#181818;stroke-width:0.5;"/><rect fill="#E2E2F0" height="30.4883" rx="2.5" ry="2.5" style="stroke:#181818;stroke-width:0.5;" width="69.3301" x="196.7334" y="50"/><text fill="#000000" font-family="sans-serif" font-size="14" lengthAdjust="spacing" textLength="55.3301" x="203.7334" y="70.5352">gateway</text><rect fill="#E2E2F0" height="30.4883" rx="2.5" ry="2.5" style="stroke:#181818;stroke-width:0.5;" width="69.3301" x="196.7334" y="424.1934"/><text fill="#000000" font-family="sans-serif" font-size="14" lengthAdjust="spacing" textLength="55.3301" x="203.7334" y="444.7285">gateway</text><text fill="#000000" font-family="sans-serif" font-size="14" lengthAdjust="spacing" textLength="59.9854" x="279.9727" y="78.5352">Keycloak</text><path d="M292.4653,37 L292.4653,61 M292.4653,49 L309.4653,49 " fill="none" style="stroke:#181818;stroke-width:0.5;"/><ellipse cx="321.4653" cy="49" fill="#E2E2F0" rx="12" ry="12" style="stroke:#181818;stroke-width:0.5;"/><text fill="#000000" font-family="sans-serif" font-size="14" lengthAdjust="spacing" textLength="59.9854" x="279.9727" y="437.7285">Keycloak</text><path d="M292.4653,444.6816 L292.4653,468.6816 M292.4653,456.6816 L309.4653,456.6816 " fill="none" style="stroke:#181818;stroke-width:0.5;"/><ellipse cx="321.4653" cy="456.6816" fill="#E2E2F0" rx="12" ry="12" style="stroke:#181818;stroke-width:0.5;"/><rect fill="#E2E2F0" height="30.4883" rx="2.5" ry="2.5" style="stroke:#181818;stroke-width:0.5;" width="63.2461" x="392.9912" y="50"/><text fill="#000000" font-family="sans-serif" font-size="14" lengthAdjust="spacing" textLength="49.2461" x="399.9912" y="70.5352">catalog</text><rect fill="#E2E2F0" height="30.4883" rx="2.5" ry="2.5" style="stroke:#181818;stroke-width:0.5;" width="63.2461" x="392.9912" y="424.1934"/><text fill="#000000" font-family="sans-serif" font-size="14" lengthAdjust="spacing" textLength="49.2461" x="399.9912" y="444.7285">catalog</text><text fill="#000000" font-family="sans-serif" font-size="14" lengthAdjust="spacing" textLength="58.1055" x="536.7607" y="78.5352">Postgres</text><path d="M550.8135,29 C550.8135,19 568.8135,19 568.8135,19 C568.8135,19 586.8135,19 586.8135,29 L586.8135,55 C586.8135,65 568.8135,65 568.8135,65 C568.8135,65 550.8135,65 550.8135,55 L550.8135,29 " fill="#E2E2F0" style="stroke:#181818;stroke-width:1.5;"/><path d="M550.8135,29 C550.8135,39 568.8135,39 568.8135,39 C568.8135,39 586.8135,39 586.8135,29 " fill="none" style="stroke:#181818;stroke-width:1.5;"/><text fill="#000000" font-family="sans-serif" font-size="14" lengthAdjust="spacing" textLength="58.1055" x="536.7607" y="437.7285">Postgres</text><path d="M550.8135,450.6816 C550.8135,440.6816 568.8135,440.6816 568.8135,440.6816 C568.8135,440.6816 586.8135,440.6816 586.8135,450.6816 L586.8135,476.6816 C586.8135,486.6816 568.8135,486.6816 568.8135,486.6816 C568.8135,486.6816 550.8135,486.6816 550.8135,476.6816 L550.8135,450.6816 " fill="#E2E2F0" style="stroke:#181818;stroke-width:1.5;"/><path d="M550.8135,450.6816 C550.8135,460.6816 568.8135,460.6816 568.8135,460.6816 C568.8135,460.6816 586.8135,460.6816 586.8135,450.6816 " fill="none" style="stroke:#181818;stroke-width:1.5;"/><polygon fill="#181818" points="219.3984,108.7988,229.3984,112.7988,219.3984,116.7988,223.3984,112.7988" style="stroke:#181818;stroke-width:1.0;"/><line style="stroke:#181818;stroke-width:1.0;" x1="38.1826" x2="225.3984" y1="112.7988" y2="112.7988"/><text fill="#000000" font-family="sans-serif" font-size="13" lengthAdjust="spacing" textLength="169.2158" x="45.1826" y="108.0566">GET /api/v1/books?filter...</text><polygon fill="#181818" points="300.9653,138.1094,310.9653,142.1094,300.9653,146.1094,304.9653,142.1094" style="stroke:#181818;stroke-width:1.0;"/><line style="stroke:#181818;stroke-width:1.0;" x1="231.3984" x2="306.9653" y1="142.1094" y2="142.1094"/><text fill="#000000" font-family="sans-serif" font-size="13" lengthAdjust="spacing" textLength="57.5669" x="238.3984" y="137.3672">verify jwt</text><polygon fill="#181818" points="242.3984,152.1094,232.3984,156.1094,242.3984,160.1094,238.3984,156.1094" style="stroke:#181818;stroke-width:1.0;"/><line style="stroke:#181818;stroke-width:1.0;stroke-dasharray:2.0,2.0;" x1="236.3984" x2="311.9653" y1="156.1094" y2="156.1094"/><path d="M10,171.1094 L72.1387,171.1094 L72.1387,178.4199 L62.1387,188.4199 L10,188.4199 L10,171.1094 " fill="#EEEEEE" style="stroke:#000000;stroke-width:1.5;"/><rect fill="none" height="237.084" style="stroke:#000000;stroke-width:1.5;" width="600.8662" x="10" y="171.1094"/><text fill="#000000" font-family="sans-serif" font-size="13" font-weight="bold" lengthAdjust="spacing" textLength="17.1387" x="25" y="184.6777">alt</text><text fill="#000000" font-family="sans-serif" font-size="11" font-weight="bold" lengthAdjust="spacing" textLength="70.2485" x="87.1387" y="183.7441">[jwt is valid]</text><polygon fill="#181818" points="412.6143,205.7305,422.6143,209.7305,412.6143,213.7305,416.6143,209.7305" style="stroke:#181818;stroke-width:1.0;"/><line style="stroke:#181818;stroke-width:1.0;" x1="231.3984" x2="418.6143" y1="209.7305" y2="209.7305"/><text fill="#000000" font-family="sans-serif" font-size="13" lengthAdjust="spacing" textLength="169.2158" x="238.3984" y="204.9883">GET /api/v1/books?filter...</text><polygon fill="#181818" points="556.8135,235.041,566.8135,239.041,556.8135,243.041,560.8135,239.041" style="stroke:#181818;stroke-width:1.0;"/><line style="stroke:#181818;stroke-width:1.0;" x1="424.6143" x2="562.8135" y1="239.041" y2="239.041"/><text fill="#000000" font-family="sans-serif" font-size="13" lengthAdjust="spacing" textLength="120.1992" x="431.6143" y="234.2988">find books by filter</text><polygon fill="#181818" points="435.6143,249.041,425.6143,253.041,435.6143,257.041,431.6143,253.041" style="stroke:#181818;stroke-width:1.0;"/><line style="stroke:#181818;stroke-width:1.0;stroke-dasharray:2.0,2.0;" x1="429.6143" x2="567.8135" y1="253.041" y2="253.041"/><polygon fill="#181818" points="242.3984,278.3516,232.3984,282.3516,242.3984,286.3516,238.3984,282.3516" style="stroke:#181818;stroke-width:1.0;"/><line style="stroke:#181818;stroke-width:1.0;stroke-dasharray:2.0,2.0;" x1="236.3984" x2="423.6143" y1="282.3516" y2="282.3516"/><text fill="#000000" font-family="sans-serif" font-size="13" lengthAdjust="spacing" textLength="54.8691" x="248.3984" y="277.6094">book list</text><polygon fill="#181818" points="49.1826,307.6621,39.1826,311.6621,49.1826,315.6621,45.1826,311.6621" style="stroke:#181818;stroke-width:1.0;"/><line style="stroke:#181818;stroke-width:1.0;stroke-dasharray:2.0,2.0;" x1="43.1826" x2="230.3984" y1="311.6621" y2="311.6621"/><text fill="#000000" font-family="sans-serif" font-size="13" lengthAdjust="spacing" textLength="54.8691" x="55.1826" y="306.9199">book list</text><line style="stroke:#000000;stroke-width:1.0;stroke-dasharray:2.0,2.0;" x1="10" x2="610.8662" y1="320.6621" y2="320.6621"/><text fill="#000000" font-family="sans-serif" font-size="11" font-weight="bold" lengthAdjust="spacing" textLength="80.9155" x="15" y="331.2969">[jwt is absent]</text><polygon fill="#181818" points="49.1826,351.9277,39.1826,355.9277,49.1826,359.9277,45.1826,355.9277" style="stroke:#181818;stroke-width:1.0;"/><line style="stroke:#181818;stroke-width:1.0;stroke-dasharray:2.0,2.0;" x1="43.1826" x2="230.3984" y1="355.9277" y2="355.9277"/><text fill="#000000" font-family="sans-serif" font-size="13" lengthAdjust="spacing" textLength="94.834" x="55.1826" y="351.1855">HttpStatus 401</text><line style="stroke:#000000;stroke-width:1.0;stroke-dasharray:2.0,2.0;" x1="10" x2="610.8662" y1="364.9277" y2="364.9277"/><text fill="#000000" font-family="sans-serif" font-size="11" font-weight="bold" lengthAdjust="spacing" textLength="92.5815" x="15" y="375.5625">[jwt is not valid]</text><polygon fill="#181818" points="49.1826,396.1934,39.1826,400.1934,49.1826,404.1934,45.1826,400.1934" style="stroke:#181818;stroke-width:1.0;"/><line style="stroke:#181818;stroke-width:1.0;stroke-dasharray:2.0,2.0;" x1="43.1826" x2="230.3984" y1="400.1934" y2="400.1934"/><text fill="#000000" font-family="sans-serif" font-size="13" lengthAdjust="spacing" textLength="94.834" x="55.1826" y="395.4512">HttpStatus 403</text><!--SRC=[VP31JiCm44Jl_efLUcv21QSUu8H0wgKIy06RP6ECBTkoDudozzXkYYYAyCKhpJplZB5Z5w3wY1Ggm0XZ6eJ7mAfJ7Yr39P5fngMeSXQj6ssFOO7gH4jd7EgYQ7rBTSXed2pQEei-tIr6Wkhi8ij0iSXU2f7NmlunBJZ2o_CxDEXLCnsQrZaTdmPbc49TrqBEsQNr4IOAQbZWQsQXDUmBAz0mx8oId_briba55M52ete1wLpuDT3_gx9zDMR69_kWR0_51-q25slnULaIN8lUe6khZ85HaNzo927N_YsHIR-pwrn0SysERIIx0Rqo-pT67YCyt1ssIEluJ_Dj-5wGxSKt]--></g></svg>