<svg xmlns="http://www.w3.org/2000/svg" xmlns:xlink="http://www.w3.org/1999/xlink" contentStyleType="text/css" height="621px" preserveAspectRatio="none" style="width:765px;height:621px;background:#FFFFFF;" version="1.1" viewBox="0 0 765 621" width="765px" zoomAndPan="magnify"><defs/><g><!--entity gw--><g id="elem_gw"><rect fill="#D3D3D3" height="46.4883" rx="2.5" ry="2.5" style="stroke:#181818;stroke-width:0.5;" width="95.3301" x="246.33" y="7"/><rect fill="#D3D3D3" height="10" style="stroke:#181818;stroke-width:0.5;" width="15" x="321.6601" y="12"/><rect fill="#D3D3D3" height="2" style="stroke:#181818;stroke-width:0.5;" width="4" x="319.6601" y="14"/><rect fill="#D3D3D3" height="2" style="stroke:#181818;stroke-width:0.5;" width="4" x="319.6601" y="18"/><text fill="#000000" font-family="sans-serif" font-size="14" lengthAdjust="spacing" textLength="55.3301" x="261.33" y="40.5352">gateway</text></g><!--entity user--><g id="elem_user"><rect fill="#D3D3D3" height="46.4883" rx="2.5" ry="2.5" style="stroke:#181818;stroke-width:0.5;" width="124.3828" x="421.81" y="174.49"/><rect fill="#D3D3D3" height="10" style="stroke:#181818;stroke-width:0.5;" width="15" x="526.1928" y="179.49"/><rect fill="#D3D3D3" height="2" style="stroke:#181818;stroke-width:0.5;" width="4" x="524.1928" y="181.49"/><rect fill="#D3D3D3" height="2" style="stroke:#181818;stroke-width:0.5;" width="4" x="524.1928" y="185.49"/><text fill="#000000" font-family="sans-serif" font-size="14" lengthAdjust="spacing" textLength="84.3828" x="436.81" y="208.0252">user-service</text></g><!--entity catalog--><g id="elem_catalog"><rect fill="#D3D3D3" height="46.4883" rx="2.5" ry="2.5" style="stroke:#181818;stroke-width:0.5;" width="89.2461" x="118.38" y="174.49"/><rect fill="#D3D3D3" height="10" style="stroke:#181818;stroke-width:0.5;" width="15" x="187.6261" y="179.49"/><rect fill="#D3D3D3" height="2" style="stroke:#181818;stroke-width:0.5;" width="4" x="185.6261" y="181.49"/><rect fill="#D3D3D3" height="2" style="stroke:#181818;stroke-width:0.5;" width="4" x="185.6261" y="185.49"/><text fill="#000000" font-family="sans-serif" font-size="14" lengthAdjust="spacing" textLength="49.2461" x="133.38" y="208.0252">catalog</text></g><!--entity books--><g id="elem_books"><rect fill="#D3D3D3" height="46.4883" rx="2.5" ry="2.5" style="stroke:#181818;stroke-width:0.5;" width="81.3301" x="253.33" y="174.49"/><rect fill="#D3D3D3" height="10" style="stroke:#181818;stroke-width:0.5;" width="15" x="314.6601" y="179.49"/><rect fill="#D3D3D3" height="2" style="stroke:#181818;stroke-width:0.5;" width="4" x="312.6601" y="181.49"/><rect fill="#D3D3D3" height="2" style="stroke:#181818;stroke-width:0.5;" width="4" x="312.6601" y="185.49"/><text fill="#000000" font-family="sans-serif" font-size="14" lengthAdjust="spacing" textLength="41.3301" x="268.33" y="208.0252">books</text></g><!--entity review--><g id="elem_review"><rect fill="#D3D3D3" height="46.4883" rx="2.5" ry="2.5" style="stroke:#181818;stroke-width:0.5;" width="83.4082" x="642.3" y="174.49"/><rect fill="#D3D3D3" height="10" style="stroke:#181818;stroke-width:0.5;" width="15" x="705.7082" y="179.49"/><rect fill="#D3D3D3" height="2" style="stroke:#181818;stroke-width:0.5;" width="4" x="703.7082" y="181.49"/><rect fill="#D3D3D3" height="2" style="stroke:#181818;stroke-width:0.5;" width="4" x="703.7082" y="185.49"/><text fill="#000000" font-family="sans-serif" font-size="14" lengthAdjust="spacing" textLength="43.4082" x="657.3" y="208.0252">review</text></g><!--entity e_notify--><g id="elem_e_notify"><rect fill="#D3D3D3" height="46.4883" rx="2.5" ry="2.5" style="stroke:#181818;stroke-width:0.5;" width="123.8291" x="412.09" y="558.95"/><rect fill="#D3D3D3" height="10" style="stroke:#181818;stroke-width:0.5;" width="15" x="515.9191" y="563.95"/><rect fill="#D3D3D3" height="2" style="stroke:#181818;stroke-width:0.5;" width="4" x="513.9191" y="565.95"/><rect fill="#D3D3D3" height="2" style="stroke:#181818;stroke-width:0.5;" width="4" x="513.9191" y="569.95"/><text fill="#000000" font-family="sans-serif" font-size="14" lengthAdjust="spacing" textLength="83.8291" x="427.09" y="592.4852">email-notify</text></g><!--entity sub--><g id="elem_sub"><rect fill="#D3D3D3" height="46.4883" rx="2.5" ry="2.5" style="stroke:#181818;stroke-width:0.5;" width="124.1025" x="38.95" y="558.95"/><rect fill="#D3D3D3" height="10" style="stroke:#181818;stroke-width:0.5;" width="15" x="143.0525" y="563.95"/><rect fill="#D3D3D3" height="2" style="stroke:#181818;stroke-width:0.5;" width="4" x="141.0525" y="565.95"/><rect fill="#D3D3D3" height="2" style="stroke:#181818;stroke-width:0.5;" width="4" x="141.0525" y="569.95"/><text fill="#000000" font-family="sans-serif" font-size="14" lengthAdjust="spacing" textLength="84.1025" x="53.95" y="592.4852">subscription</text></g><!--entity pg_books--><g id="elem_pg_books"><path d="M350.95,400.96 C350.95,390.96 390.0027,390.96 390.0027,390.96 C390.0027,390.96 429.0555,390.96 429.0555,400.96 L429.0555,426.4483 C429.0555,436.4483 390.0027,436.4483 390.0027,436.4483 C390.0027,436.4483 350.95,436.4483 350.95,426.4483 L350.95,400.96 " fill="#F08080" style="stroke:#181818;stroke-width:0.5;"/><path d="M350.95,400.96 C350.95,410.96 390.0027,410.96 390.0027,410.96 C390.0027,410.96 429.0555,410.96 429.0555,400.96 " fill="none" style="stroke:#181818;stroke-width:0.5;"/><text fill="#000000" font-family="sans-serif" font-size="14" lengthAdjust="spacing" textLength="58.1055" x="360.95" y="428.4952">Postgres</text></g><!--entity minio--><g id="elem_minio"><path d="M178.5,393.46 L178.5,417.46 M178.5,405.46 L195.5,405.46 " fill="none" style="stroke:#181818;stroke-width:0.5;"/><ellipse cx="207.5" cy="405.46" fill="#F08080" rx="12" ry="12" style="stroke:#181818;stroke-width:0.5;"/><text fill="#000000" font-family="sans-serif" font-size="14" lengthAdjust="spacing" textLength="37.4404" x="180.2798" y="434.9952">Minio</text></g><!--entity pg_catalog--><g id="elem_pg_catalog"><path d="M58.95,400.96 C58.95,390.96 98.0027,390.96 98.0027,390.96 C98.0027,390.96 137.0555,390.96 137.0555,400.96 L137.0555,426.4483 C137.0555,436.4483 98.0027,436.4483 98.0027,436.4483 C98.0027,436.4483 58.95,436.4483 58.95,426.4483 L58.95,400.96 " fill="#F08080" style="stroke:#181818;stroke-width:0.5;"/><path d="M58.95,400.96 C58.95,410.96 98.0027,410.96 98.0027,410.96 C98.0027,410.96 137.0555,410.96 137.0555,400.96 " fill="none" style="stroke:#181818;stroke-width:0.5;"/><text fill="#000000" font-family="sans-serif" font-size="14" lengthAdjust="spacing" textLength="58.1055" x="68.95" y="428.4952">Postgres</text></g><!--entity pg_user--><g id="elem_pg_user"><path d="M568.95,400.96 C568.95,390.96 608.0027,390.96 608.0027,390.96 C608.0027,390.96 647.0555,390.96 647.0555,400.96 L647.0555,426.4483 C647.0555,436.4483 608.0027,436.4483 608.0027,436.4483 C608.0027,436.4483 568.95,436.4483 568.95,426.4483 L568.95,400.96 " fill="#F08080" style="stroke:#181818;stroke-width:0.5;"/><path d="M568.95,400.96 C568.95,410.96 608.0027,410.96 608.0027,410.96 C608.0027,410.96 647.0555,410.96 647.0555,400.96 " fill="none" style="stroke:#181818;stroke-width:0.5;"/><text fill="#000000" font-family="sans-serif" font-size="14" lengthAdjust="spacing" textLength="58.1055" x="578.95" y="428.4952">Postgres</text></g><!--entity kk--><g id="elem_kk"><path d="M433.5027,284.98 L433.5027,308.98 M433.5027,296.98 L450.5027,296.98 " fill="none" style="stroke:#181818;stroke-width:0.5;"/><ellipse cx="462.5027" cy="296.98" fill="#F08080" rx="12" ry="12" style="stroke:#181818;stroke-width:0.5;"/><text fill="#000000" font-family="sans-serif" font-size="14" lengthAdjust="spacing" textLength="59.9854" x="424.01" y="326.5152">Keycloak</text></g><!--entity mg_review--><g id="elem_mg_review"><path d="M681.66,400.96 C681.66,390.96 714.9979,390.96 714.9979,390.96 C714.9979,390.96 748.3358,390.96 748.3358,400.96 L748.3358,426.4483 C748.3358,436.4483 714.9979,436.4483 714.9979,436.4483 C714.9979,436.4483 681.66,436.4483 681.66,426.4483 L681.66,400.96 " fill="#F08080" style="stroke:#181818;stroke-width:0.5;"/><path d="M681.66,400.96 C681.66,410.96 714.9979,410.96 714.9979,410.96 C714.9979,410.96 748.3358,410.96 748.3358,400.96 " fill="none" style="stroke:#181818;stroke-width:0.5;"/><text fill="#000000" font-family="sans-serif" font-size="14" lengthAdjust="spacing" textLength="46.6758" x="691.66" y="428.4952">Mongo</text></g><!--entity mg_sub--><g id="elem_mg_sub"><path d="M197.66,569.45 C197.66,559.45 230.9979,559.45 230.9979,559.45 C230.9979,559.45 264.3358,559.45 264.3358,569.45 L264.3358,594.9383 C264.3358,604.9383 230.9979,604.9383 230.9979,604.9383 C230.9979,604.9383 197.66,604.9383 197.66,594.9383 L197.66,569.45 " fill="#F08080" style="stroke:#181818;stroke-width:0.5;"/><path d="M197.66,569.45 C197.66,579.45 230.9979,579.45 230.9979,579.45 C230.9979,579.45 264.3358,579.45 264.3358,569.45 " fill="none" style="stroke:#181818;stroke-width:0.5;"/><text fill="#000000" font-family="sans-serif" font-size="14" lengthAdjust="spacing" textLength="46.6758" x="207.66" y="596.9852">Mongo</text></g><!--entity pg_email--><g id="elem_pg_email"><path d="M298.95,569.45 C298.95,559.45 338.0027,559.45 338.0027,559.45 C338.0027,559.45 377.0555,559.45 377.0555,569.45 L377.0555,594.9383 C377.0555,604.9383 338.0027,604.9383 338.0027,604.9383 C338.0027,604.9383 298.95,604.9383 298.95,594.9383 L298.95,569.45 " fill="#F08080" style="stroke:#181818;stroke-width:0.5;"/><path d="M298.95,569.45 C298.95,579.45 338.0027,579.45 338.0027,579.45 C338.0027,579.45 377.0555,579.45 377.0555,569.45 " fill="none" style="stroke:#181818;stroke-width:0.5;"/><text fill="#000000" font-family="sans-serif" font-size="14" lengthAdjust="spacing" textLength="58.1055" x="308.95" y="596.9852">Postgres</text></g><!--entity kafka--><g id="elem_kafka"><path d="M263.03,400.46 L310.9626,400.46 C315.9626,400.46 315.9626,413.7041 315.9626,413.7041 C315.9626,413.7041 315.9626,426.9483 310.9626,426.9483 L263.03,426.9483 C258.03,426.9483 258.03,413.7041 258.03,413.7041 C258.03,413.7041 258.03,400.46 263.03,400.46 " fill="#F08080" style="stroke:#181818;stroke-width:0.5;"/><path d="M310.9626,400.46 C305.9626,400.46 305.9626,413.7041 305.9626,413.7041 C305.9626,426.9483 310.9626,426.9483 310.9626,426.9483 " fill="none" style="stroke:#181818;stroke-width:0.5;"/><text fill="#000000" font-family="sans-serif" font-size="14" lengthAdjust="spacing" textLength="37.9326" x="263.03" y="418.9952">Kafka</text></g><!--link gw to catalog--><g id="link_gw_catalog"><path d="M276.06,53.91 C251.04,85.51 209.6745,137.776 184.6545,169.376 " fill="none" id="gw-to-catalog" style="stroke:#181818;stroke-width:1.0;"/><polygon fill="#181818" points="180.93,174.08,189.6528,169.507,184.0338,170.16,183.3808,164.5409,180.93,174.08" style="stroke:#181818;stroke-width:1.0;"/></g><!--link gw to books--><g id="link_gw_books"><path d="M294,53.91 C294,85.51 294,136.48 294,168.08 " fill="none" id="gw-to-books" style="stroke:#181818;stroke-width:1.0;"/><polygon fill="#181818" points="294,174.08,298,165.08,294,169.08,290,165.08,294,174.08" style="stroke:#181818;stroke-width:1.0;"/></g><!--link gw to user--><g id="link_gw_user"><path d="M320.02,53.91 C356.3,85.51 417.1856,138.5392 453.4656,170.1392 " fill="none" id="gw-to-user" style="stroke:#181818;stroke-width:1.0;"/><polygon fill="#181818" points="457.99,174.08,453.8306,165.1526,454.2197,170.796,448.5762,171.1851,457.99,174.08" style="stroke:#181818;stroke-width:1.0;"/></g><!--link gw to review--><g id="link_gw_review"><path d="M341.82,51.53 C418.81,84.2 563.4468,145.576 636.5168,176.586 " fill="none" id="gw-to-review" style="stroke:#181818;stroke-width:1.0;"/><polygon fill="#181818" points="642.04,178.93,635.3178,171.7319,637.4373,176.9767,632.1925,179.0962,642.04,178.93" style="stroke:#181818;stroke-width:1.0;"/></g><!--link gw to sub--><g id="link_gw_sub"><path d="M246.12,36.77 C164.23,49.18 6,87.31 6,196.73 C6,196.73 6,196.73 6,414.71 C6,472.45 45.5418,524.0076 73.6618,554.0776 " fill="none" id="gw-to-sub" style="stroke:#181818;stroke-width:1.0;"/><polygon fill="#181818" points="77.76,558.46,74.5343,549.1544,74.3449,554.808,68.6912,554.6186,77.76,558.46" style="stroke:#181818;stroke-width:1.0;"/></g><!--link user to kk--><g id="link_user_kk"><path d="M477.56,221.36 C472.61,238.8 467.4101,257.0585 462.3801,274.7585 " fill="none" id="user-to-kk" style="stroke:#181818;stroke-width:1.0;"/><polygon fill="#181818" points="460.74,280.53,467.0479,272.9662,462.1068,275.7204,459.3526,270.7794,460.74,280.53" style="stroke:#181818;stroke-width:1.0;"/></g><!--link user to pg_user--><g id="link_user_pg_user"><path d="M510.94,221.19 C527.88,236.53 549.09,258.15 563,280.98 C584.63,316.47 596.1925,357.8864 602.3125,385.0764 " fill="none" id="user-to-pg_user" style="stroke:#181818;stroke-width:1.0;"/><polygon fill="#181818" points="603.63,390.93,605.5561,381.2713,602.5321,386.052,597.7513,383.028,603.63,390.93" style="stroke:#181818;stroke-width:1.0;"/></g><!--link user to kafka--><g id="link_user_kafka"><path d="M495.61,221.33 C508.21,249.33 523.68,297.28 501,329.46 C455.33,394.27 405.86,358.19 333,389.46 C325.6,392.64 323.0699,393.7437 315.9599,397.3537 " fill="none" id="user-to-kafka" style="stroke:#181818;stroke-width:1.0;"/><polygon fill="#181818" points="310.61,400.07,320.4458,399.5621,315.0683,397.8064,316.824,392.4289,310.61,400.07" style="stroke:#181818;stroke-width:1.0;"/></g><!--link catalog to kafka--><g id="link_catalog_kafka"><path d="M176.04,221.23 C202.03,266.08 256.5318,360.1286 276.7718,395.0586 " fill="none" id="catalog-to-kafka" style="stroke:#181818;stroke-width:1.0;"/><polygon fill="#181818" points="279.78,400.25,278.7287,390.4574,277.2732,395.9238,271.8068,394.4683,279.78,400.25" style="stroke:#181818;stroke-width:1.0;"/></g><!--link catalog to books--><g id="link_catalog_books"><path d="M208.03,197.73 C223.03,197.73 232.03,197.73 247.03,197.73 " fill="none" id="catalog-to-books" style="stroke:#181818;stroke-width:1.0;"/><polygon fill="#181818" points="253.03,197.73,244.03,193.73,248.03,197.73,244.03,201.73,253.03,197.73" style="stroke:#181818;stroke-width:1.0;"/></g><!--link catalog to pg_catalog--><g id="link_catalog_pg_catalog"><path d="M153.78,221.19 C147.24,237.6 138.49,260.46 132,280.98 C119.96,319.03 110.3453,358.4028 104.2853,384.7428 " fill="none" id="catalog-to-pg_catalog" style="stroke:#181818;stroke-width:1.0;"/><polygon fill="#181818" points="102.94,390.59,108.8561,382.716,104.0611,385.7173,101.0597,380.9223,102.94,390.59" style="stroke:#181818;stroke-width:1.0;"/></g><!--link books to kafka--><g id="link_books_kafka"><path d="M293.26,221.23 C291.8,266.08 288.7457,359.3232 287.6057,394.2532 " fill="none" id="books-to-kafka" style="stroke:#181818;stroke-width:1.0;"/><polygon fill="#181818" points="287.41,400.25,291.7014,391.3853,287.5731,395.2527,283.7057,391.1243,287.41,400.25" style="stroke:#181818;stroke-width:1.0;"/></g><!--link books to pg_books--><g id="link_books_pg_books"><path d="M304.09,221.23 C322.58,262.43 359.2041,344.0656 377.5841,385.0356 " fill="none" id="books-to-pg_books" style="stroke:#181818;stroke-width:1.0;"/><polygon fill="#181818" points="380.04,390.51,380.0057,380.6612,377.9934,385.948,372.7066,383.9357,380.04,390.51" style="stroke:#181818;stroke-width:1.0;"/></g><!--link books to minio--><g id="link_books_minio"><path d="M284.01,221.23 C265.91,262 230.2846,342.2462 211.8646,383.7362 " fill="none" id="books-to-minio" style="stroke:#181818;stroke-width:1.0;"/><polygon fill="#181818" points="209.43,389.22,216.7378,382.6173,211.4589,384.6501,209.426,379.3711,209.43,389.22" style="stroke:#181818;stroke-width:1.0;"/></g><!--link review to mg_review--><g id="link_review_mg_review"><path d="M687.26,221.23 C693.23,262.43 704.9905,343.6019 710.9205,384.5719 " fill="none" id="review-to-mg_review" style="stroke:#181818;stroke-width:1.0;"/><polygon fill="#181818" points="711.78,390.51,714.4495,381.0298,711.0638,385.5616,706.532,382.1758,711.78,390.51" style="stroke:#181818;stroke-width:1.0;"/></g><!--reverse link kafka to sub--><g id="link_kafka_sub"><path d="M260.8378,430.763 C222.5978,458.743 150.86,523.15 116.82,558.69 " fill="none" id="kafka-backto-sub" style="stroke:#181818;stroke-width:1.0;"/><polygon fill="#181818" points="265.68,427.22,256.0547,429.3064,261.6448,430.1725,260.7787,435.7627,265.68,427.22" style="stroke:#181818;stroke-width:1.0;"/></g><!--link kafka to sub--><g id="link_kafka_sub"><path d="M280.36,427.22 C256.08,455.2 185.5534,519.45 140.1834,554.99 " fill="none" id="kafka-to-sub" style="stroke:#181818;stroke-width:1.0;"/><polygon fill="#181818" points="135.46,558.69,145.0117,556.2889,139.3961,555.6067,140.0784,549.9911,135.46,558.69" style="stroke:#181818;stroke-width:1.0;"/></g><!--link sub to mg_sub--><g id="link_sub_mg_sub"><path d="M163.46,582.2 C174.72,582.2 179.97,582.2 191.23,582.2 " fill="none" id="sub-to-mg_sub" style="stroke:#181818;stroke-width:1.0;"/><polygon fill="#181818" points="197.23,582.2,188.23,578.2,192.23,582.2,188.23,586.2,197.23,582.2" style="stroke:#181818;stroke-width:1.0;"/></g><!--link kafka to e_notify--><g id="link_kafka_e_notify"><path d="M301.06,427.22 C332.48,455.2 404.3291,519.1598 444.2391,554.6998 " fill="none" id="kafka-to-e_notify" style="stroke:#181818;stroke-width:1.0;"/><polygon fill="#181818" points="448.72,558.69,444.6589,549.7174,444.9859,555.3648,439.3386,555.6919,448.72,558.69" style="stroke:#181818;stroke-width:1.0;"/></g><!--reverse link pg_email to e_notify--><g id="link_pg_email_e_notify"><path d="M383.31,582.2 C394.77,582.2 400.23,582.2 411.68,582.2 " fill="none" id="pg_email-backto-e_notify" style="stroke:#181818;stroke-width:1.0;"/><polygon fill="#181818" points="377.31,582.2,386.31,586.2,382.31,582.2,386.31,578.2,377.31,582.2" style="stroke:#181818;stroke-width:1.0;"/></g><!--SRC=[XLFBReCm4BplLw3qx5_8fOSSqaYzHnLQYEDQ44pz2EBlQwyXi5Hf3aZhsT4odbcV5NevuFXLe2lKK1Hl7rfz-uF54Sx1IIlYTzUr94826AD6ZwrHr9ngrg-CQHnrgM8zA-zQ3jJC9UlA6-fMTCRhQnOdotnWB1SgLrlTUsqwOaLWJO1B55MXayNkqpYlh7IxHEjLkHRqRYosK9dGNT2EnUwaEss8U4iLOpsVo0runLvvkVtzKOvrQx0XQjCy6NWodPf4gf8v-2zpSUYLGeg0SN-2395un6k3MLog60NY4ecB6JeXzlDAC8nyPqXoWW7vCWoAgW60FClOFXgpFaTWCdM3aaIOita6stI3Xxe_x2LTo7kpcRC1v_NQuhHDC6Mre7Dy02aS4VfbC06Jk1mUPC-PCnjeVYhmU3EYbLS_AQDO0Nu1]--></g></svg>