<svg xmlns="http://www.w3.org/2000/svg" xmlns:xlink="http://www.w3.org/1999/xlink" contentStyleType="text/css" height="380px" preserveAspectRatio="none" style="width:790px;height:380px;background:#FFFFFF;" version="1.1" viewBox="0 0 790 380" width="790px" zoomAndPan="magnify"><defs/><g><!--entity gw--><g id="elem_gw"><rect fill="#D3D3D3" height="46.4883" rx="2.5" ry="2.5" style="stroke:#181818;stroke-width:0.5;" width="95.3301" x="434.39" y="7"/><rect fill="#D3D3D3" height="10" style="stroke:#181818;stroke-width:0.5;" width="15" x="509.7201" y="12"/><rect fill="#D3D3D3" height="2" style="stroke:#181818;stroke-width:0.5;" width="4" x="507.7201" y="14"/><rect fill="#D3D3D3" height="2" style="stroke:#181818;stroke-width:0.5;" width="4" x="507.7201" y="18"/><text fill="#000000" font-family="sans-serif" font-size="14" lengthAdjust="spacing" textLength="55.3301" x="449.39" y="40.5352">gateway</text></g><!--entity books--><g id="elem_books"><rect fill="#D3D3D3" height="46.4883" rx="2.5" ry="2.5" style="stroke:#181818;stroke-width:0.5;" width="81.3301" x="99.39" y="113.49"/><rect fill="#D3D3D3" height="10" style="stroke:#181818;stroke-width:0.5;" width="15" x="160.7201" y="118.49"/><rect fill="#D3D3D3" height="2" style="stroke:#181818;stroke-width:0.5;" width="4" x="158.7201" y="120.49"/><rect fill="#D3D3D3" height="2" style="stroke:#181818;stroke-width:0.5;" width="4" x="158.7201" y="124.49"/><text fill="#000000" font-family="sans-serif" font-size="14" lengthAdjust="spacing" textLength="41.3301" x="114.39" y="147.0252">books</text></g><!--entity catalog--><g id="elem_catalog"><rect fill="#D3D3D3" height="46.4883" rx="2.5" ry="2.5" style="stroke:#181818;stroke-width:0.5;" width="89.2461" x="215.43" y="113.49"/><rect fill="#D3D3D3" height="10" style="stroke:#181818;stroke-width:0.5;" width="15" x="284.6761" y="118.49"/><rect fill="#D3D3D3" height="2" style="stroke:#181818;stroke-width:0.5;" width="4" x="282.6761" y="120.49"/><rect fill="#D3D3D3" height="2" style="stroke:#181818;stroke-width:0.5;" width="4" x="282.6761" y="124.49"/><text fill="#000000" font-family="sans-serif" font-size="14" lengthAdjust="spacing" textLength="49.2461" x="230.43" y="147.0252">catalog</text></g><!--entity user--><g id="elem_user"><rect fill="#D3D3D3" height="46.4883" rx="2.5" ry="2.5" style="stroke:#181818;stroke-width:0.5;" width="124.3828" x="339.86" y="113.49"/><rect fill="#D3D3D3" height="10" style="stroke:#181818;stroke-width:0.5;" width="15" x="444.2428" y="118.49"/><rect fill="#D3D3D3" height="2" style="stroke:#181818;stroke-width:0.5;" width="4" x="442.2428" y="120.49"/><rect fill="#D3D3D3" height="2" style="stroke:#181818;stroke-width:0.5;" width="4" x="442.2428" y="124.49"/><text fill="#000000" font-family="sans-serif" font-size="14" lengthAdjust="spacing" textLength="84.3828" x="354.86" y="147.0252">user-service</text></g><!--entity auth--><g id="elem_auth"><rect fill="#D3D3D3" height="46.4883" rx="2.5" ry="2.5" style="stroke:#181818;stroke-width:0.5;" width="125.374" x="499.37" y="113.49"/><rect fill="#D3D3D3" height="10" style="stroke:#181818;stroke-width:0.5;" width="15" x="604.744" y="118.49"/><rect fill="#D3D3D3" height="2" style="stroke:#181818;stroke-width:0.5;" width="4" x="602.744" y="120.49"/><rect fill="#D3D3D3" height="2" style="stroke:#181818;stroke-width:0.5;" width="4" x="602.744" y="124.49"/><text fill="#000000" font-family="sans-serif" font-size="14" lengthAdjust="spacing" textLength="85.374" x="514.37" y="147.0252">auth-service</text></g><!--entity review--><g id="elem_review"><rect fill="#D3D3D3" height="46.4883" rx="2.5" ry="2.5" style="stroke:#181818;stroke-width:0.5;" width="83.4082" x="659.35" y="113.49"/><rect fill="#D3D3D3" height="10" style="stroke:#181818;stroke-width:0.5;" width="15" x="722.7582" y="118.49"/><rect fill="#D3D3D3" height="2" style="stroke:#181818;stroke-width:0.5;" width="4" x="720.7582" y="120.49"/><rect fill="#D3D3D3" height="2" style="stroke:#181818;stroke-width:0.5;" width="4" x="720.7582" y="124.49"/><text fill="#000000" font-family="sans-serif" font-size="14" lengthAdjust="spacing" textLength="43.4082" x="674.35" y="147.0252">review</text></g><!--entity sub--><g id="elem_sub"><rect fill="#D3D3D3" height="46.4883" rx="2.5" ry="2.5" style="stroke:#181818;stroke-width:0.5;" width="124.1025" x="262" y="328.46"/><rect fill="#D3D3D3" height="10" style="stroke:#181818;stroke-width:0.5;" width="15" x="366.1025" y="333.46"/><rect fill="#D3D3D3" height="2" style="stroke:#181818;stroke-width:0.5;" width="4" x="364.1025" y="335.46"/><rect fill="#D3D3D3" height="2" style="stroke:#181818;stroke-width:0.5;" width="4" x="364.1025" y="339.46"/><text fill="#000000" font-family="sans-serif" font-size="14" lengthAdjust="spacing" textLength="84.1025" x="277" y="361.9952">subscription</text></g><!--entity e_notify--><g id="elem_e_notify"><rect fill="#D3D3D3" height="46.4883" rx="2.5" ry="2.5" style="stroke:#181818;stroke-width:0.5;" width="123.8291" x="103.14" y="328.46"/><rect fill="#D3D3D3" height="10" style="stroke:#181818;stroke-width:0.5;" width="15" x="206.9691" y="333.46"/><rect fill="#D3D3D3" height="2" style="stroke:#181818;stroke-width:0.5;" width="4" x="204.9691" y="335.46"/><rect fill="#D3D3D3" height="2" style="stroke:#181818;stroke-width:0.5;" width="4" x="204.9691" y="339.46"/><text fill="#000000" font-family="sans-serif" font-size="14" lengthAdjust="spacing" textLength="83.8291" x="118.14" y="361.9952">email-notify</text></g><!--entity pg_books--><g id="elem_pg_books"><path d="M6,231.47 C6,221.47 45.0527,221.47 45.0527,221.47 C45.0527,221.47 84.1055,221.47 84.1055,231.47 L84.1055,256.9583 C84.1055,266.9583 45.0527,266.9583 45.0527,266.9583 C45.0527,266.9583 6,266.9583 6,256.9583 L6,231.47 " fill="#F08080" style="stroke:#181818;stroke-width:0.5;"/><path d="M6,231.47 C6,241.47 45.0527,241.47 45.0527,241.47 C45.0527,241.47 84.1055,241.47 84.1055,231.47 " fill="none" style="stroke:#181818;stroke-width:0.5;"/><text fill="#000000" font-family="sans-serif" font-size="14" lengthAdjust="spacing" textLength="58.1055" x="16" y="259.0052">Postgres</text></g><!--entity minio--><g id="elem_minio"><path d="M123.55,223.97 L123.55,247.97 M123.55,235.97 L140.55,235.97 " fill="none" style="stroke:#181818;stroke-width:0.5;"/><ellipse cx="152.55" cy="235.97" fill="#F08080" rx="12" ry="12" style="stroke:#181818;stroke-width:0.5;"/><text fill="#000000" font-family="sans-serif" font-size="14" lengthAdjust="spacing" textLength="37.4404" x="125.3298" y="265.5052">Minio</text></g><!--entity pg_catalog--><g id="elem_pg_catalog"><path d="M309,231.47 C309,221.47 348.0527,221.47 348.0527,221.47 C348.0527,221.47 387.1055,221.47 387.1055,231.47 L387.1055,256.9583 C387.1055,266.9583 348.0527,266.9583 348.0527,266.9583 C348.0527,266.9583 309,266.9583 309,256.9583 L309,231.47 " fill="#F08080" style="stroke:#181818;stroke-width:0.5;"/><path d="M309,231.47 C309,241.47 348.0527,241.47 348.0527,241.47 C348.0527,241.47 387.1055,241.47 387.1055,231.47 " fill="none" style="stroke:#181818;stroke-width:0.5;"/><text fill="#000000" font-family="sans-serif" font-size="14" lengthAdjust="spacing" textLength="58.1055" x="319" y="259.0052">Postgres</text></g><!--entity mg_user--><g id="elem_mg_user"><path d="M421.71,231.47 C421.71,221.47 455.0479,221.47 455.0479,221.47 C455.0479,221.47 488.3858,221.47 488.3858,231.47 L488.3858,256.9583 C488.3858,266.9583 455.0479,266.9583 455.0479,266.9583 C455.0479,266.9583 421.71,266.9583 421.71,256.9583 L421.71,231.47 " fill="#F08080" style="stroke:#181818;stroke-width:0.5;"/><path d="M421.71,231.47 C421.71,241.47 455.0479,241.47 455.0479,241.47 C455.0479,241.47 488.3858,241.47 488.3858,231.47 " fill="none" style="stroke:#181818;stroke-width:0.5;"/><text fill="#000000" font-family="sans-serif" font-size="14" lengthAdjust="spacing" textLength="46.6758" x="431.71" y="259.0052">Mongo</text></g><!--entity kk--><g id="elem_kk"><path d="M538.5527,223.97 L538.5527,247.97 M538.5527,235.97 L555.5527,235.97 " fill="none" style="stroke:#181818;stroke-width:0.5;"/><ellipse cx="567.5527" cy="235.97" fill="#F08080" rx="12" ry="12" style="stroke:#181818;stroke-width:0.5;"/><text fill="#000000" font-family="sans-serif" font-size="14" lengthAdjust="spacing" textLength="59.9854" x="529.06" y="265.5052">Keycloak</text></g><!--entity mg_review--><g id="elem_mg_review"><path d="M667.71,231.47 C667.71,221.47 701.0479,221.47 701.0479,221.47 C701.0479,221.47 734.3858,221.47 734.3858,231.47 L734.3858,256.9583 C734.3858,266.9583 701.0479,266.9583 701.0479,266.9583 C701.0479,266.9583 667.71,266.9583 667.71,256.9583 L667.71,231.47 " fill="#F08080" style="stroke:#181818;stroke-width:0.5;"/><path d="M667.71,231.47 C667.71,241.47 701.0479,241.47 701.0479,241.47 C701.0479,241.47 734.3858,241.47 734.3858,231.47 " fill="none" style="stroke:#181818;stroke-width:0.5;"/><text fill="#000000" font-family="sans-serif" font-size="14" lengthAdjust="spacing" textLength="46.6758" x="677.71" y="259.0052">Mongo</text></g><!--entity kafka--><g id="elem_kafka"><path d="M221.09,230.97 L269.0226,230.97 C274.0226,230.97 274.0226,244.2141 274.0226,244.2141 C274.0226,244.2141 274.0226,257.4583 269.0226,257.4583 L221.09,257.4583 C216.09,257.4583 216.09,244.2141 216.09,244.2141 C216.09,244.2141 216.09,230.97 221.09,230.97 " fill="#F08080" style="stroke:#181818;stroke-width:0.5;"/><path d="M269.0226,230.97 C264.0226,230.97 264.0226,244.2141 264.0226,244.2141 C264.0226,257.4583 269.0226,257.4583 269.0226,257.4583 " fill="none" style="stroke:#181818;stroke-width:0.5;"/><text fill="#000000" font-family="sans-serif" font-size="14" lengthAdjust="spacing" textLength="37.9326" x="221.09" y="249.5052">Kafka</text></g><!--link gw to books--><g id="link_gw_books"><path d="M433.93,43.85 C377.14,59.03 280.04,85.94 198.05,113.49 C192.53,115.34 192.3865,115.3161 186.7165,117.4161 " fill="none" id="gw-to-books" style="stroke:#181818;stroke-width:1.0;"/><polygon fill="#181818" points="181.09,119.5,190.919,120.1252,185.7787,117.7634,188.1405,112.6232,181.09,119.5" style="stroke:#181818;stroke-width:1.0;"/></g><!--link gw to catalog--><g id="link_gw_catalog"><path d="M434.16,53.78 C395.79,71.84 347.7887,94.4348 310.2687,112.0948 " fill="none" id="gw-to-catalog" style="stroke:#181818;stroke-width:1.0;"/><polygon fill="#181818" points="304.84,114.65,314.6865,114.4363,309.3639,112.5207,311.2796,107.1981,304.84,114.65" style="stroke:#181818;stroke-width:1.0;"/></g><!--link gw to user--><g id="link_gw_user"><path d="M464.69,53.91 C451.28,71.44 436.4381,90.8265 423.0281,108.3365 " fill="none" id="gw-to-user" style="stroke:#181818;stroke-width:1.0;"/><polygon fill="#181818" points="419.38,113.1,428.0279,108.3868,422.4201,109.1304,421.6765,103.5226,419.38,113.1" style="stroke:#181818;stroke-width:1.0;"/></g><!--link gw to auth--><g id="link_gw_auth"><path d="M499.41,53.91 C512.83,71.44 527.6719,90.8265 541.0819,108.3365 " fill="none" id="gw-to-auth" style="stroke:#181818;stroke-width:1.0;"/><polygon fill="#181818" points="544.73,113.1,542.4335,103.5226,541.6899,109.1304,536.0821,108.3868,544.73,113.1" style="stroke:#181818;stroke-width:1.0;"/></g><!--link gw to review--><g id="link_gw_review"><path d="M529.57,53.91 C568.19,72.34 616.7352,95.4955 653.7552,113.1655 " fill="none" id="gw-to-review" style="stroke:#181818;stroke-width:1.0;"/><polygon fill="#181818" points="659.17,115.75,652.7708,108.2633,654.6577,113.5962,649.3248,115.4831,659.17,115.75" style="stroke:#181818;stroke-width:1.0;"/></g><!--link gw to sub--><g id="link_gw_sub"><path d="M529.96,38.44 C601.92,50.34 732.45,76.54 760.05,113.49 C778.56,138.26 783.17,233.5 752.05,268.46 C704.45,321.94 499.3191,340.938 392.4491,347.398 " fill="none" id="gw-to-sub" style="stroke:#181818;stroke-width:1.0;"/><polygon fill="#181818" points="386.46,347.76,395.685,351.2097,391.4509,347.4583,395.2023,343.2243,386.46,347.76" style="stroke:#181818;stroke-width:1.0;"/></g><!--reverse link books to catalog--><g id="link_books_catalog"><path d="M186.83,136.73 C198.28,136.73 203.73,136.73 215.18,136.73 " fill="none" id="books-backto-catalog" style="stroke:#181818;stroke-width:1.0;"/><polygon fill="#181818" points="180.83,136.73,189.83,140.73,185.83,136.73,189.83,132.73,180.83,136.73" style="stroke:#181818;stroke-width:1.0;"/></g><!--link catalog to pg_catalog--><g id="link_catalog_pg_catalog"><path d="M278.93,160.36 C293.88,178.28 310.8074,198.5619 325.6674,216.3819 " fill="none" id="catalog-to-pg_catalog" style="stroke:#181818;stroke-width:1.0;"/><polygon fill="#181818" points="329.51,220.99,326.8181,211.5162,326.3078,217.15,320.674,216.6397,329.51,220.99" style="stroke:#181818;stroke-width:1.0;"/></g><!--link catalog to kafka--><g id="link_catalog_kafka"><path d="M256.83,160.36 C253.79,181.79 250.1628,207.2595 247.7028,224.5995 " fill="none" id="catalog-to-kafka" style="stroke:#181818;stroke-width:1.0;"/><polygon fill="#181818" points="246.86,230.54,252.0845,222.1911,247.5623,225.5896,244.1638,221.0674,246.86,230.54" style="stroke:#181818;stroke-width:1.0;"/></g><!--link books to pg_books--><g id="link_books_pg_books"><path d="M119.67,160.36 C103.53,178.28 85.1354,198.7117 69.0854,216.5317 " fill="none" id="books-to-pg_books" style="stroke:#181818;stroke-width:1.0;"/><polygon fill="#181818" points="65.07,220.99,74.0654,216.9796,68.4162,217.2748,68.121,211.6256,65.07,220.99" style="stroke:#181818;stroke-width:1.0;"/></g><!--link books to minio--><g id="link_books_minio"><path d="M140.91,160.36 C141.57,177.79 142.253,195.8343 142.923,213.5343 " fill="none" id="books-to-minio" style="stroke:#181818;stroke-width:1.0;"/><polygon fill="#181818" points="143.15,219.53,146.8067,210.3851,142.9609,214.5336,138.8124,210.6877,143.15,219.53" style="stroke:#181818;stroke-width:1.0;"/></g><!--link books to kafka--><g id="link_books_kafka"><path d="M162.58,160.36 C183.91,181.79 210.9372,208.9476 228.1972,226.2876 " fill="none" id="books-to-kafka" style="stroke:#181818;stroke-width:1.0;"/><polygon fill="#181818" points="232.43,230.54,228.9157,221.3395,228.9027,226.9963,223.2458,226.9832,232.43,230.54" style="stroke:#181818;stroke-width:1.0;"/></g><!--link user to mg_user--><g id="link_user_mg_user"><path d="M413.42,160.36 C422.43,178.28 432.2371,197.8083 441.1871,215.6283 " fill="none" id="user-to-mg_user" style="stroke:#181818;stroke-width:1.0;"/><polygon fill="#181818" points="443.88,220.99,443.4151,211.1521,441.6359,216.5219,436.2661,214.7427,443.88,220.99" style="stroke:#181818;stroke-width:1.0;"/></g><!--link user to kk--><g id="link_user_kk"><path d="M435.73,160.36 C463.3,178.88 496.9901,201.5133 523.6401,219.4233 " fill="none" id="user-to-kk" style="stroke:#181818;stroke-width:1.0;"/><polygon fill="#181818" points="528.62,222.77,523.3813,214.43,524.4701,219.9811,518.919,221.0699,528.62,222.77" style="stroke:#181818;stroke-width:1.0;"/></g><!--link user to kafka--><g id="link_user_kafka"><path d="M368.37,160.36 C336.48,181.79 294.7104,209.854 268.9004,227.194 " fill="none" id="user-to-kafka" style="stroke:#181818;stroke-width:1.0;"/><polygon fill="#181818" points="263.92,230.54,273.6213,228.8413,268.0703,227.7517,269.1599,222.2007,263.92,230.54" style="stroke:#181818;stroke-width:1.0;"/></g><!--link auth to kk--><g id="link_auth_kk"><path d="M561.41,160.36 C560.91,177.79 560.3994,195.8324 559.8994,213.5324 " fill="none" id="auth-to-kk" style="stroke:#181818;stroke-width:1.0;"/><polygon fill="#181818" points="559.73,219.53,563.9825,210.6465,559.8712,214.532,555.9857,210.4206,559.73,219.53" style="stroke:#181818;stroke-width:1.0;"/></g><!--link review to mg_review--><g id="link_review_mg_review"><path d="M701.05,160.36 C701.05,178.28 701.05,197.17 701.05,214.99 " fill="none" id="review-to-mg_review" style="stroke:#181818;stroke-width:1.0;"/><polygon fill="#181818" points="701.05,220.99,705.05,211.99,701.05,215.99,697.05,211.99,701.05,220.99" style="stroke:#181818;stroke-width:1.0;"/></g><!--link sub to kafka--><g id="link_sub_kafka"><path d="M318.21,328.25 C305.56,306.75 285.4536,279.2708 267.5836,261.9108 " fill="none" id="sub-to-kafka" style="stroke:#181818;stroke-width:1.0;"/><polygon fill="#181818" points="263.28,257.73,266.9482,266.8702,266.8663,261.214,272.5226,261.1321,263.28,257.73" style="stroke:#181818;stroke-width:1.0;"/></g><!--link kafka to sub--><g id="link_kafka_sub"><path d="M245.57,257.73 C253.7,275.09 272.6734,302.3108 292.2234,323.8108 " fill="none" id="kafka-to-sub" style="stroke:#181818;stroke-width:1.0;"/><polygon fill="#181818" points="296.26,328.25,293.1646,318.9002,292.8962,324.5507,287.2457,324.2823,296.26,328.25" style="stroke:#181818;stroke-width:1.0;"/></g><!--link kafka to e_notify--><g id="link_kafka_e_notify"><path d="M235.56,257.73 C222.4,275.09 202.0163,301.9698 185.7063,323.4698 " fill="none" id="kafka-to-e_notify" style="stroke:#181818;stroke-width:1.0;"/><polygon fill="#181818" points="182.08,328.25,190.7062,323.4972,185.1019,324.2665,184.3326,318.6622,182.08,328.25" style="stroke:#181818;stroke-width:1.0;"/></g><!--SRC=[ZPBFRiCW3CRlF0NApdc5NNROeQkqUpLLJaee8WqTVnhbxGSsZ51fqWwHFji_7FoPamGlLjY-E3WkLyvVFfIy-dSB6piDncY75LHDRGGFiv5OpRgf1oTi7x-76WL2AT4G4For8LAY8QnuAB5YZMHJTM5merLthyo2J4mqWBY1cll5U3NHVE9CmPvYbtZv0PpWtQTnNbhXkiJUvNa_z9knCBF1XEK2TkFTKItA87XBgg7-xjWQzKmVpI9pJtdUsVNyxuFOnjc0HbJh_tHhx2FoEuWGiGDC6gXJKWt2ueFe-rVQVWdo32LCzomwBR1e-cE9uceOAzFtivXyxVkRZfdgKPF6gp7QHyReR4tX6dOn7K4NiKoEreJMEuqiFhzSodxbataMbXvOvSclCbsDoYjZx0S0]--></g></svg>