<svg xmlns="http://www.w3.org/2000/svg" xmlns:xlink="http://www.w3.org/1999/xlink" contentStyleType="text/css" height="654px" preserveAspectRatio="none" style="width:758px;height:654px;background:#FFFFFF;" version="1.1" viewBox="0 0 758 654" width="758px" zoomAndPan="magnify"><defs/><g><rect fill="#90EE90" height="385.2813" style="stroke:#000000;stroke-width:1.5;" width="741.1353" x="10" y="171.1094"/><rect fill="#90EE90" height="192.8184" style="stroke:#000000;stroke-width:1.5;" width="721.1353" x="20" y="268.041"/><rect fill="#FF7F50" height="73.5762" style="stroke:none;stroke-width:1.0;" width="721.1353" x="20" y="387.2832"/><rect fill="#FF7F50" height="44.2656" style="stroke:none;stroke-width:1.0;" width="741.1353" x="10" y="467.8594"/><rect fill="#FF7F50" height="44.2656" style="stroke:none;stroke-width:1.0;" width="741.1353" x="10" y="512.125"/><line style="stroke:#181818;stroke-width:0.5;stroke-dasharray:5.0,5.0;" x1="48" x2="48" y1="81.4883" y2="573.3906"/><line style="stroke:#181818;stroke-width:0.5;stroke-dasharray:5.0,5.0;" x1="251.5752" x2="251.5752" y1="81.4883" y2="573.3906"/><line style="stroke:#181818;stroke-width:0.5;stroke-dasharray:5.0,5.0;" x1="332.8145" x2="332.8145" y1="81.4883" y2="573.3906"/><line style="stroke:#181818;stroke-width:0.5;stroke-dasharray:5.0,5.0;" x1="455.6748" x2="455.6748" y1="81.4883" y2="573.3906"/><line style="stroke:#181818;stroke-width:0.5;stroke-dasharray:5.0,5.0;" x1="699.0298" x2="699.0298" y1="81.4883" y2="573.3906"/><text fill="#000000" font-family="sans-serif" font-size="14" lengthAdjust="spacing" textLength="30.3652" x="30" y="78.5352">User</text><ellipse cx="48.1826" cy="13.5" fill="#E2E2F0" rx="8" ry="8" style="stroke:#181818;stroke-width:0.5;"/><path d="M48.1826,21.5 L48.1826,48.5 M35.1826,29.5 L61.1826,29.5 M48.1826,48.5 L35.1826,63.5 M48.1826,48.5 L61.1826,63.5 " fill="none" style="stroke:#181818;stroke-width:0.5;"/><text fill="#000000" font-family="sans-serif" font-size="14" lengthAdjust="spacing" textLength="30.3652" x="30" y="585.9258">User</text><ellipse cx="48.1826" cy="597.3789" fill="#E2E2F0" rx="8" ry="8" style="stroke:#181818;stroke-width:0.5;"/><path d="M48.1826,605.3789 L48.1826,632.3789 M35.1826,613.3789 L61.1826,613.3789 M48.1826,632.3789 L35.1826,647.3789 M48.1826,632.3789 L61.1826,647.3789 " fill="none" style="stroke:#181818;stroke-width:0.5;"/><rect fill="#E2E2F0" height="30.4883" rx="2.5" ry="2.5" style="stroke:#181818;stroke-width:0.5;" width="69.3301" x="217.5752" y="50"/><text fill="#000000" font-family="sans-serif" font-size="14" lengthAdjust="spacing" textLength="55.3301" x="224.5752" y="70.5352">gateway</text><rect fill="#E2E2F0" height="30.4883" rx="2.5" ry="2.5" style="stroke:#181818;stroke-width:0.5;" width="69.3301" x="217.5752" y="572.3906"/><text fill="#000000" font-family="sans-serif" font-size="14" lengthAdjust="spacing" textLength="55.3301" x="224.5752" y="592.9258">gateway</text><text fill="#000000" font-family="sans-serif" font-size="14" lengthAdjust="spacing" textLength="59.9854" x="300.8145" y="78.5352">Keycloak</text><path d="M313.3071,37 L313.3071,61 M313.3071,49 L330.3071,49 " fill="none" style="stroke:#181818;stroke-width:0.5;"/><ellipse cx="342.3071" cy="49" fill="#E2E2F0" rx="12" ry="12" style="stroke:#181818;stroke-width:0.5;"/><text fill="#000000" font-family="sans-serif" font-size="14" lengthAdjust="spacing" textLength="59.9854" x="300.8145" y="585.9258">Keycloak</text><path d="M313.3071,592.8789 L313.3071,616.8789 M313.3071,604.8789 L330.3071,604.8789 " fill="none" style="stroke:#181818;stroke-width:0.5;"/><ellipse cx="342.3071" cy="604.8789" fill="#E2E2F0" rx="12" ry="12" style="stroke:#181818;stroke-width:0.5;"/><rect fill="#E2E2F0" height="30.4883" rx="2.5" ry="2.5" style="stroke:#181818;stroke-width:0.5;" width="63.2461" x="424.6748" y="50"/><text fill="#000000" font-family="sans-serif" font-size="14" lengthAdjust="spacing" textLength="49.2461" x="431.6748" y="70.5352">catalog</text><rect fill="#E2E2F0" height="30.4883" rx="2.5" ry="2.5" style="stroke:#181818;stroke-width:0.5;" width="63.2461" x="424.6748" y="572.3906"/><text fill="#000000" font-family="sans-serif" font-size="14" lengthAdjust="spacing" textLength="49.2461" x="431.6748" y="592.9258">catalog</text><text fill="#000000" font-family="sans-serif" font-size="14" lengthAdjust="spacing" textLength="58.1055" x="667.0298" y="78.5352">Postgres</text><path d="M681.0825,29 C681.0825,19 699.0825,19 699.0825,19 C699.0825,19 717.0825,19 717.0825,29 L717.0825,55 C717.0825,65 699.0825,65 699.0825,65 C699.0825,65 681.0825,65 681.0825,55 L681.0825,29 " fill="#E2E2F0" style="stroke:#181818;stroke-width:1.5;"/><path d="M681.0825,29 C681.0825,39 699.0825,39 699.0825,39 C699.0825,39 717.0825,39 717.0825,29 " fill="none" style="stroke:#181818;stroke-width:1.5;"/><text fill="#000000" font-family="sans-serif" font-size="14" lengthAdjust="spacing" textLength="58.1055" x="667.0298" y="585.9258">Postgres</text><path d="M681.0825,598.8789 C681.0825,588.8789 699.0825,588.8789 699.0825,588.8789 C699.0825,588.8789 717.0825,588.8789 717.0825,598.8789 L717.0825,624.8789 C717.0825,634.8789 699.0825,634.8789 699.0825,634.8789 C699.0825,634.8789 681.0825,634.8789 681.0825,624.8789 L681.0825,598.8789 " fill="#E2E2F0" style="stroke:#181818;stroke-width:1.5;"/><path d="M681.0825,598.8789 C681.0825,608.8789 699.0825,608.8789 699.0825,608.8789 C699.0825,608.8789 717.0825,608.8789 717.0825,598.8789 " fill="none" style="stroke:#181818;stroke-width:1.5;"/><polygon fill="#181818" points="240.2402,108.7988,250.2402,112.7988,240.2402,116.7988,244.2402,112.7988" style="stroke:#181818;stroke-width:1.0;"/><line style="stroke:#181818;stroke-width:1.0;" x1="48.1826" x2="246.2402" y1="112.7988" y2="112.7988"/><text fill="#000000" font-family="sans-serif" font-size="13" lengthAdjust="spacing" textLength="180.0576" x="55.1826" y="108.0566">PUT /api/v1/books/{id}/rate</text><polygon fill="#181818" points="321.8071,138.1094,331.8071,142.1094,321.8071,146.1094,325.8071,142.1094" style="stroke:#181818;stroke-width:1.0;"/><line style="stroke:#181818;stroke-width:1.0;" x1="252.2402" x2="327.8071" y1="142.1094" y2="142.1094"/><text fill="#000000" font-family="sans-serif" font-size="13" lengthAdjust="spacing" textLength="57.5669" x="259.2402" y="137.3672">verify jwt</text><polygon fill="#181818" points="263.2402,152.1094,253.2402,156.1094,263.2402,160.1094,259.2402,156.1094" style="stroke:#181818;stroke-width:1.0;"/><line style="stroke:#181818;stroke-width:1.0;stroke-dasharray:2.0,2.0;" x1="257.2402" x2="332.8071" y1="156.1094" y2="156.1094"/><path d="M10,171.1094 L72.1387,171.1094 L72.1387,178.4199 L62.1387,188.4199 L10,188.4199 L10,171.1094 " fill="#EEEEEE" style="stroke:#000000;stroke-width:1.5;"/><rect fill="none" height="385.2813" style="stroke:#000000;stroke-width:1.5;" width="741.1353" x="10" y="171.1094"/><text fill="#000000" font-family="sans-serif" font-size="13" font-weight="bold" lengthAdjust="spacing" textLength="17.1387" x="25" y="184.6777">alt</text><text fill="#000000" font-family="sans-serif" font-size="11" font-weight="bold" lengthAdjust="spacing" textLength="70.2485" x="87.1387" y="183.7441">[jwt is valid]</text><polygon fill="#181818" points="444.2979,205.7305,454.2979,209.7305,444.2979,213.7305,448.2979,209.7305" style="stroke:#181818;stroke-width:1.0;"/><line style="stroke:#181818;stroke-width:1.0;" x1="252.2402" x2="450.2979" y1="209.7305" y2="209.7305"/><text fill="#000000" font-family="sans-serif" font-size="13" lengthAdjust="spacing" textLength="180.0576" x="259.2402" y="204.9883">PUT /api/v1/books/{id}/rate</text><polygon fill="#181818" points="687.0825,235.041,697.0825,239.041,687.0825,243.041,691.0825,239.041" style="stroke:#181818;stroke-width:1.0;"/><line style="stroke:#181818;stroke-width:1.0;" x1="456.2979" x2="693.0825" y1="239.041" y2="239.041"/><text fill="#000000" font-family="sans-serif" font-size="13" lengthAdjust="spacing" textLength="95.7925" x="463.2979" y="234.2988">find book by id</text><polygon fill="#181818" points="467.2979,249.041,457.2979,253.041,467.2979,257.041,463.2979,253.041" style="stroke:#181818;stroke-width:1.0;"/><line style="stroke:#181818;stroke-width:1.0;stroke-dasharray:2.0,2.0;" x1="461.2979" x2="698.0825" y1="253.041" y2="253.041"/><path d="M20,268.041 L82.1387,268.041 L82.1387,275.3516 L72.1387,285.3516 L20,285.3516 L20,268.041 " fill="#EEEEEE" style="stroke:#000000;stroke-width:1.5;"/><rect fill="none" height="192.8184" style="stroke:#000000;stroke-width:1.5;" width="721.1353" x="20" y="268.041"/><text fill="#000000" font-family="sans-serif" font-size="13" font-weight="bold" lengthAdjust="spacing" textLength="17.1387" x="35" y="281.6094">alt</text><text fill="#000000" font-family="sans-serif" font-size="11" font-weight="bold" lengthAdjust="spacing" textLength="73.498" x="97.1387" y="280.6758">[book exists]</text><polygon fill="#181818" points="687.0825,302.6621,697.0825,306.6621,687.0825,310.6621,691.0825,306.6621" style="stroke:#181818;stroke-width:1.0;"/><line style="stroke:#181818;stroke-width:1.0;" x1="456.2979" x2="693.0825" y1="306.6621" y2="306.6621"/><text fill="#000000" font-family="sans-serif" font-size="13" lengthAdjust="spacing" textLength="218.7847" x="463.2979" y="301.9199">save|update user rate for the book</text><polygon fill="#181818" points="467.2979,316.6621,457.2979,320.6621,467.2979,324.6621,463.2979,320.6621" style="stroke:#181818;stroke-width:1.0;"/><line style="stroke:#181818;stroke-width:1.0;stroke-dasharray:2.0,2.0;" x1="461.2979" x2="698.0825" y1="320.6621" y2="320.6621"/><polygon fill="#181818" points="263.2402,345.9727,253.2402,349.9727,263.2402,353.9727,259.2402,349.9727" style="stroke:#181818;stroke-width:1.0;"/><line style="stroke:#181818;stroke-width:1.0;stroke-dasharray:2.0,2.0;" x1="257.2402" x2="455.2979" y1="349.9727" y2="349.9727"/><text fill="#000000" font-family="sans-serif" font-size="13" lengthAdjust="spacing" textLength="94.834" x="269.2402" y="345.2305">HttpStatus 200</text><polygon fill="#181818" points="59.1826,375.2832,49.1826,379.2832,59.1826,383.2832,55.1826,379.2832" style="stroke:#181818;stroke-width:1.0;"/><line style="stroke:#181818;stroke-width:1.0;stroke-dasharray:2.0,2.0;" x1="53.1826" x2="251.2402" y1="379.2832" y2="379.2832"/><text fill="#000000" font-family="sans-serif" font-size="13" lengthAdjust="spacing" textLength="94.834" x="65.1826" y="374.541">HttpStatus 200</text><line style="stroke:#000000;stroke-width:1.0;stroke-dasharray:2.0,2.0;" x1="20" x2="741.1353" y1="388.2832" y2="388.2832"/><text fill="#000000" font-family="sans-serif" font-size="11" font-weight="bold" lengthAdjust="spacing" textLength="120.2158" x="25" y="398.918">[book does not exist]</text><polygon fill="#181818" points="263.2402,419.5488,253.2402,423.5488,263.2402,427.5488,259.2402,423.5488" style="stroke:#181818;stroke-width:1.0;"/><line style="stroke:#181818;stroke-width:1.0;stroke-dasharray:2.0,2.0;" x1="257.2402" x2="455.2979" y1="423.5488" y2="423.5488"/><text fill="#000000" font-family="sans-serif" font-size="13" lengthAdjust="spacing" textLength="94.834" x="269.2402" y="418.8066">HttpStatus 404</text><polygon fill="#181818" points="59.1826,448.8594,49.1826,452.8594,59.1826,456.8594,55.1826,452.8594" style="stroke:#181818;stroke-width:1.0;"/><line style="stroke:#181818;stroke-width:1.0;stroke-dasharray:2.0,2.0;" x1="53.1826" x2="251.2402" y1="452.8594" y2="452.8594"/><text fill="#000000" font-family="sans-serif" font-size="13" lengthAdjust="spacing" textLength="94.834" x="65.1826" y="448.1172">HttpStatus 404</text><line style="stroke:#000000;stroke-width:1.0;stroke-dasharray:2.0,2.0;" x1="10" x2="751.1353" y1="468.8594" y2="468.8594"/><text fill="#000000" font-family="sans-serif" font-size="11" font-weight="bold" lengthAdjust="spacing" textLength="80.9155" x="15" y="479.4941">[jwt is absent]</text><polygon fill="#181818" points="59.1826,500.125,49.1826,504.125,59.1826,508.125,55.1826,504.125" style="stroke:#181818;stroke-width:1.0;"/><line style="stroke:#181818;stroke-width:1.0;stroke-dasharray:2.0,2.0;" x1="53.1826" x2="251.2402" y1="504.125" y2="504.125"/><text fill="#000000" font-family="sans-serif" font-size="13" lengthAdjust="spacing" textLength="94.834" x="65.1826" y="499.3828">HttpStatus 401</text><line style="stroke:#000000;stroke-width:1.0;stroke-dasharray:2.0,2.0;" x1="10" x2="751.1353" y1="513.125" y2="513.125"/><text fill="#000000" font-family="sans-serif" font-size="11" font-weight="bold" lengthAdjust="spacing" textLength="92.5815" x="15" y="523.7598">[jwt is not valid]</text><polygon fill="#181818" points="59.1826,544.3906,49.1826,548.3906,59.1826,552.3906,55.1826,548.3906" style="stroke:#181818;stroke-width:1.0;"/><line style="stroke:#181818;stroke-width:1.0;stroke-dasharray:2.0,2.0;" x1="53.1826" x2="251.2402" y1="548.3906" y2="548.3906"/><text fill="#000000" font-family="sans-serif" font-size="13" lengthAdjust="spacing" textLength="94.834" x="65.1826" y="543.6484">HttpStatus 403</text><!--SRC=[ZL6zJiCm4Dxz5ATqhj92fmxCI2oLIX_WabnTuyYsx4j21BmxjfjM54M5BB7y_VeEQxOUYaCWNm06wE91EFIiQkNGC1GIcGOSCoe7KTdEDEX7A5veh5kBEYDQtwfgP6ojpDXq5atyLnW8YfqDB3s533ifH8g5vLCCsCBky0ebEbNswxAoLeVoGpLVfOyzX1mII-ijzEJLSOItWONMiCnQWIt3ebNobDp991HKW1vRrGY8tra_5ReVbUWJCMbSf1-LQI3ne1fXSdGoXr_UcAv-jyWAUbU1GyPdd0FszDcvE27AAu1K0OvnDNoYR71LpWJU64vJV6PsUqRk0ZoiLbTQ6a1af8nP3hLnFulQUcpFlHjB0OpbymF-4xTPRVwCkt38DE9dvBGmh08P5lSTrdFArFHstVFYHv6Ylm40]--></g></svg>