<svg xmlns="http://www.w3.org/2000/svg" xmlns:xlink="http://www.w3.org/1999/xlink" contentStyleType="text/css" height="506px" preserveAspectRatio="none" style="width:724px;height:506px;background:#FFFFFF;" version="1.1" viewBox="0 0 724 506" width="724px" zoomAndPan="magnify"><defs/><g><rect fill="#90EE90" height="237.084" style="stroke:#000000;stroke-width:1.5;" width="707.416" x="10" y="171.1094"/><rect fill="#FF7F50" height="44.2656" style="stroke:none;stroke-width:1.0;" width="707.416" x="10" y="319.6621"/><rect fill="#FF7F50" height="44.2656" style="stroke:none;stroke-width:1.0;" width="707.416" x="10" y="363.9277"/><line style="stroke:#181818;stroke-width:0.5;stroke-dasharray:5.0,5.0;" x1="38" x2="38" y1="81.4883" y2="425.1934"/><line style="stroke:#181818;stroke-width:0.5;stroke-dasharray:5.0,5.0;" x1="229.2861" x2="229.2861" y1="81.4883" y2="425.1934"/><line style="stroke:#181818;stroke-width:0.5;stroke-dasharray:5.0,5.0;" x1="310.5254" x2="310.5254" y1="81.4883" y2="425.1934"/><line style="stroke:#181818;stroke-width:0.5;stroke-dasharray:5.0,5.0;" x1="421.6685" x2="421.6685" y1="81.4883" y2="425.1934"/><line style="stroke:#181818;stroke-width:0.5;stroke-dasharray:5.0,5.0;" x1="680.7402" x2="680.7402" y1="81.4883" y2="425.1934"/><text fill="#000000" font-family="sans-serif" font-size="14" lengthAdjust="spacing" textLength="30.3652" x="20" y="78.5352">User</text><ellipse cx="38.1826" cy="13.5" fill="#E2E2F0" rx="8" ry="8" style="stroke:#181818;stroke-width:0.5;"/><path d="M38.1826,21.5 L38.1826,48.5 M25.1826,29.5 L51.1826,29.5 M38.1826,48.5 L25.1826,63.5 M38.1826,48.5 L51.1826,63.5 " fill="none" style="stroke:#181818;stroke-width:0.5;"/><text fill="#000000" font-family="sans-serif" font-size="14" lengthAdjust="spacing" textLength="30.3652" x="20" y="437.7285">User</text><ellipse cx="38.1826" cy="449.1816" fill="#E2E2F0" rx="8" ry="8" style="stroke:#181818;stroke-width:0.5;"/><path d="M38.1826,457.1816 L38.1826,484.1816 M25.1826,465.1816 L51.1826,465.1816 M38.1826,484.1816 L25.1826,499.1816 M38.1826,484.1816 L51.1826,499.1816 " fill="none" style="stroke:#181818;stroke-width:0.5;"/><rect fill="#E2E2F0" height="30.4883" rx="2.5" ry="2.5" style="stroke:#181818;stroke-width:0.5;" width="69.3301" x="195.2861" y="50"/><text fill="#000000" font-family="sans-serif" font-size="14" lengthAdjust="spacing" textLength="55.3301" x="202.2861" y="70.5352">gateway</text><rect fill="#E2E2F0" height="30.4883" rx="2.5" ry="2.5" style="stroke:#181818;stroke-width:0.5;" width="69.3301" x="195.2861" y="424.1934"/><text fill="#000000" font-family="sans-serif" font-size="14" lengthAdjust="spacing" textLength="55.3301" x="202.2861" y="444.7285">gateway</text><text fill="#000000" font-family="sans-serif" font-size="14" lengthAdjust="spacing" textLength="59.9854" x="278.5254" y="78.5352">Keycloak</text><path d="M291.0181,37 L291.0181,61 M291.0181,49 L308.0181,49 " fill="none" style="stroke:#181818;stroke-width:0.5;"/><ellipse cx="320.0181" cy="49" fill="#E2E2F0" rx="12" ry="12" style="stroke:#181818;stroke-width:0.5;"/><text fill="#000000" font-family="sans-serif" font-size="14" lengthAdjust="spacing" textLength="59.9854" x="278.5254" y="437.7285">Keycloak</text><path d="M291.0181,444.6816 L291.0181,468.6816 M291.0181,456.6816 L308.0181,456.6816 " fill="none" style="stroke:#181818;stroke-width:0.5;"/><ellipse cx="320.0181" cy="456.6816" fill="#E2E2F0" rx="12" ry="12" style="stroke:#181818;stroke-width:0.5;"/><rect fill="#E2E2F0" height="30.4883" rx="2.5" ry="2.5" style="stroke:#181818;stroke-width:0.5;" width="98.1025" x="372.6685" y="50"/><text fill="#000000" font-family="sans-serif" font-size="14" lengthAdjust="spacing" textLength="84.1025" x="379.6685" y="70.5352">subscription</text><rect fill="#E2E2F0" height="30.4883" rx="2.5" ry="2.5" style="stroke:#181818;stroke-width:0.5;" width="98.1025" x="372.6685" y="424.1934"/><text fill="#000000" font-family="sans-serif" font-size="14" lengthAdjust="spacing" textLength="84.1025" x="379.6685" y="444.7285">subscription</text><text fill="#000000" font-family="sans-serif" font-size="14" lengthAdjust="spacing" textLength="46.6758" x="654.7402" y="78.5352">Mongo</text><path d="M663.0781,29 C663.0781,19 681.0781,19 681.0781,19 C681.0781,19 699.0781,19 699.0781,29 L699.0781,55 C699.0781,65 681.0781,65 681.0781,65 C681.0781,65 663.0781,65 663.0781,55 L663.0781,29 " fill="#E2E2F0" style="stroke:#181818;stroke-width:1.5;"/><path d="M663.0781,29 C663.0781,39 681.0781,39 681.0781,39 C681.0781,39 699.0781,39 699.0781,29 " fill="none" style="stroke:#181818;stroke-width:1.5;"/><text fill="#000000" font-family="sans-serif" font-size="14" lengthAdjust="spacing" textLength="46.6758" x="654.7402" y="437.7285">Mongo</text><path d="M663.0781,450.6816 C663.0781,440.6816 681.0781,440.6816 681.0781,440.6816 C681.0781,440.6816 699.0781,440.6816 699.0781,450.6816 L699.0781,476.6816 C699.0781,486.6816 681.0781,486.6816 681.0781,486.6816 C681.0781,486.6816 663.0781,486.6816 663.0781,476.6816 L663.0781,450.6816 " fill="#E2E2F0" style="stroke:#181818;stroke-width:1.5;"/><path d="M663.0781,450.6816 C663.0781,460.6816 681.0781,460.6816 681.0781,460.6816 C681.0781,460.6816 699.0781,460.6816 699.0781,450.6816 " fill="none" style="stroke:#181818;stroke-width:1.5;"/><polygon fill="#181818" points="217.9512,108.7988,227.9512,112.7988,217.9512,116.7988,221.9512,112.7988" style="stroke:#181818;stroke-width:1.0;"/><line style="stroke:#181818;stroke-width:1.0;" x1="38.1826" x2="223.9512" y1="112.7988" y2="112.7988"/><text fill="#000000" font-family="sans-serif" font-size="13" lengthAdjust="spacing" textLength="167.7686" x="45.1826" y="108.0566">PUT /api/v1/subscriptions</text><polygon fill="#181818" points="299.5181,138.1094,309.5181,142.1094,299.5181,146.1094,303.5181,142.1094" style="stroke:#181818;stroke-width:1.0;"/><line style="stroke:#181818;stroke-width:1.0;" x1="229.9512" x2="305.5181" y1="142.1094" y2="142.1094"/><text fill="#000000" font-family="sans-serif" font-size="13" lengthAdjust="spacing" textLength="57.5669" x="236.9512" y="137.3672">verify jwt</text><polygon fill="#181818" points="240.9512,152.1094,230.9512,156.1094,240.9512,160.1094,236.9512,156.1094" style="stroke:#181818;stroke-width:1.0;"/><line style="stroke:#181818;stroke-width:1.0;stroke-dasharray:2.0,2.0;" x1="234.9512" x2="310.5181" y1="156.1094" y2="156.1094"/><path d="M10,171.1094 L72.1387,171.1094 L72.1387,178.4199 L62.1387,188.4199 L10,188.4199 L10,171.1094 " fill="#EEEEEE" style="stroke:#000000;stroke-width:1.5;"/><rect fill="none" height="237.084" style="stroke:#000000;stroke-width:1.5;" width="707.416" x="10" y="171.1094"/><text fill="#000000" font-family="sans-serif" font-size="13" font-weight="bold" lengthAdjust="spacing" textLength="17.1387" x="25" y="184.6777">alt</text><text fill="#000000" font-family="sans-serif" font-size="11" font-weight="bold" lengthAdjust="spacing" textLength="70.2485" x="87.1387" y="183.7441">[jwt is valid]</text><polygon fill="#181818" points="409.7197,205.7305,419.7197,209.7305,409.7197,213.7305,413.7197,209.7305" style="stroke:#181818;stroke-width:1.0;"/><line style="stroke:#181818;stroke-width:1.0;" x1="229.9512" x2="415.7197" y1="209.7305" y2="209.7305"/><text fill="#000000" font-family="sans-serif" font-size="13" lengthAdjust="spacing" textLength="167.7686" x="236.9512" y="204.9883">PUT /api/v1/subscriptions</text><polygon fill="#181818" points="669.0781,235.041,679.0781,239.041,669.0781,243.041,673.0781,239.041" style="stroke:#181818;stroke-width:1.0;"/><line style="stroke:#181818;stroke-width:1.0;" x1="421.7197" x2="675.0781" y1="239.041" y2="239.041"/><text fill="#000000" font-family="sans-serif" font-size="13" lengthAdjust="spacing" textLength="235.3584" x="428.7197" y="234.2988">save/update user subscription config</text><polygon fill="#181818" points="432.7197,249.041,422.7197,253.041,432.7197,257.041,428.7197,253.041" style="stroke:#181818;stroke-width:1.0;"/><line style="stroke:#181818;stroke-width:1.0;stroke-dasharray:2.0,2.0;" x1="426.7197" x2="680.0781" y1="253.041" y2="253.041"/><polygon fill="#181818" points="240.9512,278.3516,230.9512,282.3516,240.9512,286.3516,236.9512,282.3516" style="stroke:#181818;stroke-width:1.0;"/><line style="stroke:#181818;stroke-width:1.0;stroke-dasharray:2.0,2.0;" x1="234.9512" x2="420.7197" y1="282.3516" y2="282.3516"/><text fill="#000000" font-family="sans-serif" font-size="13" lengthAdjust="spacing" textLength="94.834" x="246.9512" y="277.6094">HttpStatus 200</text><polygon fill="#181818" points="49.1826,307.6621,39.1826,311.6621,49.1826,315.6621,45.1826,311.6621" style="stroke:#181818;stroke-width:1.0;"/><line style="stroke:#181818;stroke-width:1.0;stroke-dasharray:2.0,2.0;" x1="43.1826" x2="228.9512" y1="311.6621" y2="311.6621"/><text fill="#000000" font-family="sans-serif" font-size="13" lengthAdjust="spacing" textLength="94.834" x="55.1826" y="306.9199">HttpStatus 200</text><line style="stroke:#000000;stroke-width:1.0;stroke-dasharray:2.0,2.0;" x1="10" x2="717.416" y1="320.6621" y2="320.6621"/><text fill="#000000" font-family="sans-serif" font-size="11" font-weight="bold" lengthAdjust="spacing" textLength="80.9155" x="15" y="331.2969">[jwt is absent]</text><polygon fill="#181818" points="49.1826,351.9277,39.1826,355.9277,49.1826,359.9277,45.1826,355.9277" style="stroke:#181818;stroke-width:1.0;"/><line style="stroke:#181818;stroke-width:1.0;stroke-dasharray:2.0,2.0;" x1="43.1826" x2="228.9512" y1="355.9277" y2="355.9277"/><text fill="#000000" font-family="sans-serif" font-size="13" lengthAdjust="spacing" textLength="94.834" x="55.1826" y="351.1855">HttpStatus 401</text><line style="stroke:#000000;stroke-width:1.0;stroke-dasharray:2.0,2.0;" x1="10" x2="717.416" y1="364.9277" y2="364.9277"/><text fill="#000000" font-family="sans-serif" font-size="11" font-weight="bold" lengthAdjust="spacing" textLength="92.5815" x="15" y="375.5625">[jwt is not valid]</text><polygon fill="#181818" points="49.1826,396.1934,39.1826,400.1934,49.1826,404.1934,45.1826,400.1934" style="stroke:#181818;stroke-width:1.0;"/><line style="stroke:#181818;stroke-width:1.0;stroke-dasharray:2.0,2.0;" x1="43.1826" x2="228.9512" y1="400.1934" y2="400.1934"/><text fill="#000000" font-family="sans-serif" font-size="13" lengthAdjust="spacing" textLength="94.834" x="55.1826" y="395.4512">HttpStatus 403</text><!--SRC=[VP31JiCm38RlUGghEq_j1gSUE2CX92Is1t1JBuI494hSLdrxaW3JW6avHVx_p_vjbEmZDCT4iG5CCEMF21XPIntGCJGAcHPSgweMCVZ9ZHXNQ9vebTQZgOenlwaq3Kb67LXxLmsv84Pa730HDC_UAL_h7-KdH9aBsuSyeOUNum5Q3BgTT-rbdoJKKZp6z31JrASLtXSMni2saW8jmyPgzSOg4hcYWaumezMZWFo- -Dpprf1Yp9NYhE5wI3XJEuKSd-g1u180wTr9gufLVqrJrZqt-jxhaJcyClAKODzrvq1PBKt_wMJpfJRIHxG_c-2GoF5DyhxRNIETvpztk0xV2NAZ-0G0]--></g></svg>