<svg xmlns="http://www.w3.org/2000/svg" xmlns:xlink="http://www.w3.org/1999/xlink" contentStyleType="text/css" height="314px" preserveAspectRatio="none" style="width:439px;height:314px;background:#FFFFFF;" version="1.1" viewBox="0 0 439 314" width="439px" zoomAndPan="magnify"><defs/><g><rect fill="#ADD8E6" height="46.6211" style="stroke:#000000;stroke-width:1.5;" width="336.1143" x="97.0469" y="172.4199"/><line style="stroke:#181818;stroke-width:0.5;stroke-dasharray:5.0,5.0;" x1="33" x2="33" y1="67.4883" y2="236.041"/><line style="stroke:#181818;stroke-width:0.5;stroke-dasharray:5.0,5.0;" x1="155.0469" x2="155.0469" y1="67.4883" y2="236.041"/><line style="stroke:#181818;stroke-width:0.5;stroke-dasharray:5.0,5.0;" x1="287.5078" x2="287.5078" y1="67.4883" y2="236.041"/><line style="stroke:#181818;stroke-width:0.5;stroke-dasharray:5.0,5.0;" x1="375.6133" x2="375.6133" y1="67.4883" y2="236.041"/><path d="M10,41 L57.9326,41 C62.9326,41 62.9326,54.2441 62.9326,54.2441 C62.9326,54.2441 62.9326,67.4883 57.9326,67.4883 L10,67.4883 C5,67.4883 5,54.2441 5,54.2441 C5,54.2441 5,41 10,41 " fill="#E2E2F0" style="stroke:#181818;stroke-width:0.5;"/><path d="M57.9326,41 C52.9326,41 52.9326,54.2441 52.9326,54.2441 C52.9326,67.4883 57.9326,67.4883 57.9326,67.4883 " fill="none" style="stroke:#181818;stroke-width:0.5;"/><text fill="#000000" font-family="sans-serif" font-size="14" lengthAdjust="spacing" textLength="37.9326" x="10" y="59.5352">Kafka</text><path d="M10,235.041 L57.9326,235.041 C62.9326,235.041 62.9326,248.2852 62.9326,248.2852 C62.9326,248.2852 62.9326,261.5293 57.9326,261.5293 L10,261.5293 C5,261.5293 5,248.2852 5,248.2852 C5,248.2852 5,235.041 10,235.041 " fill="#E2E2F0" style="stroke:#181818;stroke-width:0.5;"/><path d="M57.9326,235.041 C52.9326,235.041 52.9326,248.2852 52.9326,248.2852 C52.9326,261.5293 57.9326,261.5293 57.9326,261.5293 " fill="none" style="stroke:#181818;stroke-width:0.5;"/><text fill="#000000" font-family="sans-serif" font-size="14" lengthAdjust="spacing" textLength="37.9326" x="10" y="253.5762">Kafka</text><rect fill="#E2E2F0" height="30.4883" rx="2.5" ry="2.5" style="stroke:#181818;stroke-width:0.5;" width="97.8291" x="107.0469" y="36"/><text fill="#000000" font-family="sans-serif" font-size="14" lengthAdjust="spacing" textLength="83.8291" x="114.0469" y="56.5352">email-notify</text><rect fill="#E2E2F0" height="30.4883" rx="2.5" ry="2.5" style="stroke:#181818;stroke-width:0.5;" width="97.8291" x="107.0469" y="235.041"/><text fill="#000000" font-family="sans-serif" font-size="14" lengthAdjust="spacing" textLength="83.8291" x="114.0469" y="255.5762">email-notify</text><text fill="#000000" font-family="sans-serif" font-size="14" lengthAdjust="spacing" textLength="58.1055" x="255.5078" y="64.5352">Postgres</text><path d="M269.5605,15 C269.5605,5 287.5605,5 287.5605,5 C287.5605,5 305.5605,5 305.5605,15 L305.5605,41 C305.5605,51 287.5605,51 287.5605,51 C287.5605,51 269.5605,51 269.5605,41 L269.5605,15 " fill="#E2E2F0" style="stroke:#181818;stroke-width:1.5;"/><path d="M269.5605,15 C269.5605,25 287.5605,25 287.5605,25 C287.5605,25 305.5605,25 305.5605,15 " fill="none" style="stroke:#181818;stroke-width:1.5;"/><text fill="#000000" font-family="sans-serif" font-size="14" lengthAdjust="spacing" textLength="58.1055" x="255.5078" y="248.5762">Postgres</text><path d="M269.5605,261.5293 C269.5605,251.5293 287.5605,251.5293 287.5605,251.5293 C287.5605,251.5293 305.5605,251.5293 305.5605,261.5293 L305.5605,287.5293 C305.5605,297.5293 287.5605,297.5293 287.5605,297.5293 C287.5605,297.5293 269.5605,297.5293 269.5605,287.5293 L269.5605,261.5293 " fill="#E2E2F0" style="stroke:#181818;stroke-width:1.5;"/><path d="M269.5605,261.5293 C269.5605,271.5293 287.5605,271.5293 287.5605,271.5293 C287.5605,271.5293 305.5605,271.5293 305.5605,261.5293 " fill="none" style="stroke:#181818;stroke-width:1.5;"/><text fill="#000000" font-family="sans-serif" font-size="14" lengthAdjust="spacing" textLength="87.5479" x="329.6133" y="64.5352">SMPT service</text><path d="M355.8872,23 L355.8872,47 M355.8872,35 L372.8872,35 " fill="none" style="stroke:#181818;stroke-width:0.5;"/><ellipse cx="384.8872" cy="35" fill="#E2E2F0" rx="12" ry="12" style="stroke:#181818;stroke-width:0.5;"/><text fill="#000000" font-family="sans-serif" font-size="14" lengthAdjust="spacing" textLength="87.5479" x="329.6133" y="248.5762">SMPT service</text><path d="M355.8872,255.5293 L355.8872,279.5293 M355.8872,267.5293 L372.8872,267.5293 " fill="none" style="stroke:#181818;stroke-width:0.5;"/><ellipse cx="384.8872" cy="267.5293" fill="#E2E2F0" rx="12" ry="12" style="stroke:#181818;stroke-width:0.5;"/><polygon fill="#181818" points="143.9614,94.7988,153.9614,98.7988,143.9614,102.7988,147.9614,98.7988" style="stroke:#181818;stroke-width:1.0;"/><line style="stroke:#181818;stroke-width:1.0;" x1="33.9663" x2="149.9614" y1="98.7988" y2="98.7988"/><text fill="#000000" font-family="sans-serif" font-size="13" lengthAdjust="spacing" textLength="97.9951" x="40.9663" y="94.0566">task notify user</text><polygon fill="#181818" points="275.5605,124.1094,285.5605,128.1094,275.5605,132.1094,279.5605,128.1094" style="stroke:#181818;stroke-width:1.0;"/><line style="stroke:#181818;stroke-width:1.0;" x1="155.9614" x2="281.5605" y1="128.1094" y2="128.1094"/><text fill="#000000" font-family="sans-serif" font-size="13" lengthAdjust="spacing" textLength="107.5991" x="162.9614" y="123.3672">find users emails</text><polygon fill="#181818" points="166.9614,153.4199,156.9614,157.4199,166.9614,161.4199,162.9614,157.4199" style="stroke:#181818;stroke-width:1.0;"/><line style="stroke:#181818;stroke-width:1.0;stroke-dasharray:2.0,2.0;" x1="160.9614" x2="286.5605" y1="157.4199" y2="157.4199"/><text fill="#000000" font-family="sans-serif" font-size="13" lengthAdjust="spacing" textLength="40.7012" x="172.9614" y="152.6777">emails</text><path d="M97.0469,172.4199 L164.2129,172.4199 L164.2129,179.7305 L154.2129,189.7305 L97.0469,189.7305 L97.0469,172.4199 " fill="#EEEEEE" style="stroke:#000000;stroke-width:1.5;"/><rect fill="none" height="46.6211" style="stroke:#000000;stroke-width:1.5;" width="336.1143" x="97.0469" y="172.4199"/><text fill="#000000" font-family="sans-serif" font-size="13" font-weight="bold" lengthAdjust="spacing" textLength="22.166" x="112.0469" y="185.9883">par</text><text fill="#000000" font-family="sans-serif" font-size="11" font-weight="bold" lengthAdjust="spacing" textLength="88.7144" x="179.2129" y="185.0547">[for each email]</text><polygon fill="#181818" points="364.3872,207.041,374.3872,211.041,364.3872,215.041,368.3872,211.041" style="stroke:#181818;stroke-width:1.0;"/><line style="stroke:#181818;stroke-width:1.0;" x1="155.9614" x2="370.3872" y1="211.041" y2="211.041"/><text fill="#000000" font-family="sans-serif" font-size="13" lengthAdjust="spacing" textLength="68.3071" x="162.9614" y="206.2988">send email</text><!--SRC=[JK_13OCm3Fnx2Yjzim2FBb1LGceNC92424ZIEAd4zZM1glNhx3kVpw-YYqPr8pEJGcASTmIHKdQ3Y-GpAhsIMneViZDRrHmGHihK4yjw5pZRfBcoqK8VYXyfRQWUz-w9hDFR3RgolCOCKAzWSpsjMip4yzbW4JsSM2JHjcYS7-kSiQPXY1QRl_tlb19U5cUdt2_obma9DGtJGGDA_Npt9Ara4-U35WGV]--></g></svg>