<svg xmlns="http://www.w3.org/2000/svg" xmlns:xlink="http://www.w3.org/1999/xlink" contentStyleType="text/css" height="521px" preserveAspectRatio="none" style="width:769px;height:521px;background:#FFFFFF;" version="1.1" viewBox="0 0 769 521" width="769px" zoomAndPan="magnify"><defs/><g><rect fill="#90EE90" height="252.3945" style="stroke:#000000;stroke-width:1.5;" width="752.1099" x="10" y="171.1094"/><rect fill="#FF7F50" height="44.2656" style="stroke:none;stroke-width:1.0;" width="752.1099" x="10" y="334.9727"/><rect fill="#FF7F50" height="44.2656" style="stroke:none;stroke-width:1.0;" width="752.1099" x="10" y="379.2383"/><line style="stroke:#181818;stroke-width:0.5;stroke-dasharray:5.0,5.0;" x1="38" x2="38" y1="81.4883" y2="440.5039"/><line style="stroke:#181818;stroke-width:0.5;stroke-dasharray:5.0,5.0;" x1="295.8921" x2="295.8921" y1="81.4883" y2="440.5039"/><line style="stroke:#181818;stroke-width:0.5;stroke-dasharray:5.0,5.0;" x1="377.1313" x2="377.1313" y1="81.4883" y2="440.5039"/><line style="stroke:#181818;stroke-width:0.5;stroke-dasharray:5.0,5.0;" x1="554.2275" x2="554.2275" y1="81.4883" y2="440.5039"/><line style="stroke:#181818;stroke-width:0.5;stroke-dasharray:5.0,5.0;" x1="725.4341" x2="725.4341" y1="81.4883" y2="440.5039"/><text fill="#000000" font-family="sans-serif" font-size="14" lengthAdjust="spacing" textLength="30.3652" x="20" y="78.5352">User</text><ellipse cx="38.1826" cy="13.5" fill="#E2E2F0" rx="8" ry="8" style="stroke:#181818;stroke-width:0.5;"/><path d="M38.1826,21.5 L38.1826,48.5 M25.1826,29.5 L51.1826,29.5 M38.1826,48.5 L25.1826,63.5 M38.1826,48.5 L51.1826,63.5 " fill="none" style="stroke:#181818;stroke-width:0.5;"/><text fill="#000000" font-family="sans-serif" font-size="14" lengthAdjust="spacing" textLength="30.3652" x="20" y="453.0391">User</text><ellipse cx="38.1826" cy="464.4922" fill="#E2E2F0" rx="8" ry="8" style="stroke:#181818;stroke-width:0.5;"/><path d="M38.1826,472.4922 L38.1826,499.4922 M25.1826,480.4922 L51.1826,480.4922 M38.1826,499.4922 L25.1826,514.4922 M38.1826,499.4922 L51.1826,514.4922 " fill="none" style="stroke:#181818;stroke-width:0.5;"/><rect fill="#E2E2F0" height="30.4883" rx="2.5" ry="2.5" style="stroke:#181818;stroke-width:0.5;" width="69.3301" x="261.8921" y="50"/><text fill="#000000" font-family="sans-serif" font-size="14" lengthAdjust="spacing" textLength="55.3301" x="268.8921" y="70.5352">gateway</text><rect fill="#E2E2F0" height="30.4883" rx="2.5" ry="2.5" style="stroke:#181818;stroke-width:0.5;" width="69.3301" x="261.8921" y="439.5039"/><text fill="#000000" font-family="sans-serif" font-size="14" lengthAdjust="spacing" textLength="55.3301" x="268.8921" y="460.0391">gateway</text><text fill="#000000" font-family="sans-serif" font-size="14" lengthAdjust="spacing" textLength="59.9854" x="345.1313" y="78.5352">Keycloak</text><path d="M357.624,37 L357.624,61 M357.624,49 L374.624,49 " fill="none" style="stroke:#181818;stroke-width:0.5;"/><ellipse cx="386.624" cy="49" fill="#E2E2F0" rx="12" ry="12" style="stroke:#181818;stroke-width:0.5;"/><text fill="#000000" font-family="sans-serif" font-size="14" lengthAdjust="spacing" textLength="59.9854" x="345.1313" y="453.0391">Keycloak</text><path d="M357.624,459.9922 L357.624,483.9922 M357.624,471.9922 L374.624,471.9922 " fill="none" style="stroke:#181818;stroke-width:0.5;"/><ellipse cx="386.624" cy="471.9922" fill="#E2E2F0" rx="12" ry="12" style="stroke:#181818;stroke-width:0.5;"/><rect fill="#E2E2F0" height="30.4883" rx="2.5" ry="2.5" style="stroke:#181818;stroke-width:0.5;" width="57.4082" x="526.2275" y="50"/><text fill="#000000" font-family="sans-serif" font-size="14" lengthAdjust="spacing" textLength="43.4082" x="533.2275" y="70.5352">review</text><rect fill="#E2E2F0" height="30.4883" rx="2.5" ry="2.5" style="stroke:#181818;stroke-width:0.5;" width="57.4082" x="526.2275" y="439.5039"/><text fill="#000000" font-family="sans-serif" font-size="14" lengthAdjust="spacing" textLength="43.4082" x="533.2275" y="460.0391">review</text><text fill="#000000" font-family="sans-serif" font-size="14" lengthAdjust="spacing" textLength="46.6758" x="699.4341" y="78.5352">Mongo</text><path d="M707.772,29 C707.772,19 725.772,19 725.772,19 C725.772,19 743.772,19 743.772,29 L743.772,55 C743.772,65 725.772,65 725.772,65 C725.772,65 707.772,65 707.772,55 L707.772,29 " fill="#E2E2F0" style="stroke:#181818;stroke-width:1.5;"/><path d="M707.772,29 C707.772,39 725.772,39 725.772,39 C725.772,39 743.772,39 743.772,29 " fill="none" style="stroke:#181818;stroke-width:1.5;"/><text fill="#000000" font-family="sans-serif" font-size="14" lengthAdjust="spacing" textLength="46.6758" x="699.4341" y="453.0391">Mongo</text><path d="M707.772,465.9922 C707.772,455.9922 725.772,455.9922 725.772,455.9922 C725.772,455.9922 743.772,455.9922 743.772,465.9922 L743.772,491.9922 C743.772,501.9922 725.772,501.9922 725.772,501.9922 C725.772,501.9922 707.772,501.9922 707.772,491.9922 L707.772,465.9922 " fill="#E2E2F0" style="stroke:#181818;stroke-width:1.5;"/><path d="M707.772,465.9922 C707.772,475.9922 725.772,475.9922 725.772,475.9922 C725.772,475.9922 743.772,475.9922 743.772,465.9922 " fill="none" style="stroke:#181818;stroke-width:1.5;"/><polygon fill="#181818" points="284.5571,108.7988,294.5571,112.7988,284.5571,116.7988,288.5571,112.7988" style="stroke:#181818;stroke-width:1.0;"/><line style="stroke:#181818;stroke-width:1.0;" x1="38.1826" x2="290.5571" y1="112.7988" y2="112.7988"/><text fill="#000000" font-family="sans-serif" font-size="13" lengthAdjust="spacing" textLength="234.3745" x="45.1826" y="108.0566">GET /api/v1/books/{bookId}/reviews</text><polygon fill="#181818" points="366.124,138.1094,376.124,142.1094,366.124,146.1094,370.124,142.1094" style="stroke:#181818;stroke-width:1.0;"/><line style="stroke:#181818;stroke-width:1.0;" x1="296.5571" x2="372.124" y1="142.1094" y2="142.1094"/><text fill="#000000" font-family="sans-serif" font-size="13" lengthAdjust="spacing" textLength="57.5669" x="303.5571" y="137.3672">verify jwt</text><polygon fill="#181818" points="307.5571,152.1094,297.5571,156.1094,307.5571,160.1094,303.5571,156.1094" style="stroke:#181818;stroke-width:1.0;"/><line style="stroke:#181818;stroke-width:1.0;stroke-dasharray:2.0,2.0;" x1="301.5571" x2="377.124" y1="156.1094" y2="156.1094"/><path d="M10,171.1094 L72.1387,171.1094 L72.1387,178.4199 L62.1387,188.4199 L10,188.4199 L10,171.1094 " fill="#EEEEEE" style="stroke:#000000;stroke-width:1.5;"/><rect fill="none" height="252.3945" style="stroke:#000000;stroke-width:1.5;" width="752.1099" x="10" y="171.1094"/><text fill="#000000" font-family="sans-serif" font-size="13" font-weight="bold" lengthAdjust="spacing" textLength="17.1387" x="25" y="184.6777">alt</text><text fill="#000000" font-family="sans-serif" font-size="11" font-weight="bold" lengthAdjust="spacing" textLength="70.2485" x="87.1387" y="183.7441">[jwt is valid]</text><polygon fill="#181818" points="542.9316,205.7305,552.9316,209.7305,542.9316,213.7305,546.9316,209.7305" style="stroke:#181818;stroke-width:1.0;"/><line style="stroke:#181818;stroke-width:1.0;" x1="296.5571" x2="548.9316" y1="209.7305" y2="209.7305"/><text fill="#000000" font-family="sans-serif" font-size="13" lengthAdjust="spacing" textLength="234.3745" x="303.5571" y="204.9883">GET /api/v1/books/{bookId}/reviews</text><polygon fill="#181818" points="713.772,235.041,723.772,239.041,713.772,243.041,717.772,239.041" style="stroke:#181818;stroke-width:1.0;"/><line style="stroke:#181818;stroke-width:1.0;" x1="554.9316" x2="719.772" y1="239.041" y2="239.041"/><text fill="#000000" font-family="sans-serif" font-size="13" lengthAdjust="spacing" textLength="146.8403" x="561.9316" y="234.2988">find reviews by book id</text><polygon fill="#181818" points="565.9316,264.3516,555.9316,268.3516,565.9316,272.3516,561.9316,268.3516" style="stroke:#181818;stroke-width:1.0;"/><line style="stroke:#181818;stroke-width:1.0;stroke-dasharray:2.0,2.0;" x1="559.9316" x2="724.772" y1="268.3516" y2="268.3516"/><text fill="#000000" font-family="sans-serif" font-size="13" lengthAdjust="spacing" textLength="63.4258" x="571.9316" y="263.6094">review list</text><polygon fill="#181818" points="307.5571,293.6621,297.5571,297.6621,307.5571,301.6621,303.5571,297.6621" style="stroke:#181818;stroke-width:1.0;"/><line style="stroke:#181818;stroke-width:1.0;stroke-dasharray:2.0,2.0;" x1="301.5571" x2="553.9316" y1="297.6621" y2="297.6621"/><text fill="#000000" font-family="sans-serif" font-size="13" lengthAdjust="spacing" textLength="63.4258" x="313.5571" y="292.9199">review list</text><polygon fill="#181818" points="49.1826,322.9727,39.1826,326.9727,49.1826,330.9727,45.1826,326.9727" style="stroke:#181818;stroke-width:1.0;"/><line style="stroke:#181818;stroke-width:1.0;stroke-dasharray:2.0,2.0;" x1="43.1826" x2="295.5571" y1="326.9727" y2="326.9727"/><text fill="#000000" font-family="sans-serif" font-size="13" lengthAdjust="spacing" textLength="63.4258" x="55.1826" y="322.2305">review list</text><line style="stroke:#000000;stroke-width:1.0;stroke-dasharray:2.0,2.0;" x1="10" x2="762.1099" y1="335.9727" y2="335.9727"/><text fill="#000000" font-family="sans-serif" font-size="11" font-weight="bold" lengthAdjust="spacing" textLength="80.9155" x="15" y="346.6074">[jwt is absent]</text><polygon fill="#181818" points="49.1826,367.2383,39.1826,371.2383,49.1826,375.2383,45.1826,371.2383" style="stroke:#181818;stroke-width:1.0;"/><line style="stroke:#181818;stroke-width:1.0;stroke-dasharray:2.0,2.0;" x1="43.1826" x2="295.5571" y1="371.2383" y2="371.2383"/><text fill="#000000" font-family="sans-serif" font-size="13" lengthAdjust="spacing" textLength="94.834" x="55.1826" y="366.4961">HttpStatus 401</text><line style="stroke:#000000;stroke-width:1.0;stroke-dasharray:2.0,2.0;" x1="10" x2="762.1099" y1="380.2383" y2="380.2383"/><text fill="#000000" font-family="sans-serif" font-size="11" font-weight="bold" lengthAdjust="spacing" textLength="92.5815" x="15" y="390.873">[jwt is not valid]</text><polygon fill="#181818" points="49.1826,411.5039,39.1826,415.5039,49.1826,419.5039,45.1826,415.5039" style="stroke:#181818;stroke-width:1.0;"/><line style="stroke:#181818;stroke-width:1.0;stroke-dasharray:2.0,2.0;" x1="43.1826" x2="295.5571" y1="415.5039" y2="415.5039"/><text fill="#000000" font-family="sans-serif" font-size="13" lengthAdjust="spacing" textLength="94.834" x="55.1826" y="410.7617">HttpStatus 403</text><!--SRC=[ZP0zJiGm48LxdsAKhLTX1LKAEWG8KG47cCIpnjZOaJr9527kJcndYwnIuCPFVlxU_637Fa3r4IbKW166HOWU0-jEz-WOAeLC4yxPLPDe_U0aXXcg5vexwz5anvWj5MZKD6MhI26HiSL8KBrwftoslfCI8XM5u_qIty3ZmplKsEjwFDMjzoRMF-bwbhzr2Of2JUcpCGsC5FHvXg-9XJ5mp142BSF1QlN9AX2vv8AECABLKi1o2b_I_bKmGKKdC3VTm5axkRv6Q6T84AmLyfVSpwNAYbiTUHEtJdrjgsAbnMnDiii63vqFQ2-3OHl9xM1FpFqR8myHxcvEUwJpVBMMVVXMa9FY3m00]--></g></svg>