<svg xmlns="http://www.w3.org/2000/svg" xmlns:xlink="http://www.w3.org/1999/xlink" contentStyleType="text/css" height="770px" preserveAspectRatio="none" style="width:834px;height:770px;background:#FFFFFF;" version="1.1" viewBox="0 0 834 770" width="834px" zoomAndPan="magnify"><defs/><g><rect fill="#90EE90" height="501.5234" style="stroke:#000000;stroke-width:1.5;" width="817.4785" x="10" y="171.1094"/><rect fill="#90EE90" height="309.0605" style="stroke:#000000;stroke-width:1.5;" width="797.4785" x="20" y="268.041"/><rect fill="#FF7F50" height="73.5762" style="stroke:none;stroke-width:1.0;" width="797.4785" x="20" y="503.5254"/><rect fill="#FF7F50" height="44.2656" style="stroke:none;stroke-width:1.0;" width="817.4785" x="10" y="584.1016"/><rect fill="#FF7F50" height="44.2656" style="stroke:none;stroke-width:1.0;" width="817.4785" x="10" y="628.3672"/><line style="stroke:#181818;stroke-width:0.5;stroke-dasharray:5.0,5.0;" x1="48" x2="48" y1="81.4883" y2="689.6328"/><line style="stroke:#181818;stroke-width:0.5;stroke-dasharray:5.0,5.0;" x1="220.4019" x2="220.4019" y1="81.4883" y2="689.6328"/><line style="stroke:#181818;stroke-width:0.5;stroke-dasharray:5.0,5.0;" x1="301.6411" x2="301.6411" y1="81.4883" y2="689.6328"/><line style="stroke:#181818;stroke-width:0.5;stroke-dasharray:5.0,5.0;" x1="393.3281" x2="393.3281" y1="81.4883" y2="689.6328"/><line style="stroke:#181818;stroke-width:0.5;stroke-dasharray:5.0,5.0;" x1="509.0186" x2="509.0186" y1="81.4883" y2="689.6328"/><line style="stroke:#181818;stroke-width:0.5;stroke-dasharray:5.0,5.0;" x1="606.3154" x2="606.3154" y1="81.4883" y2="689.6328"/><line style="stroke:#181818;stroke-width:0.5;stroke-dasharray:5.0,5.0;" x1="752.3721" x2="752.3721" y1="81.4883" y2="689.6328"/><text fill="#000000" font-family="sans-serif" font-size="14" lengthAdjust="spacing" textLength="30.3652" x="30" y="78.5352">User</text><ellipse cx="48.1826" cy="13.5" fill="#E2E2F0" rx="8" ry="8" style="stroke:#181818;stroke-width:0.5;"/><path d="M48.1826,21.5 L48.1826,48.5 M35.1826,29.5 L61.1826,29.5 M48.1826,48.5 L35.1826,63.5 M48.1826,48.5 L61.1826,63.5 " fill="none" style="stroke:#181818;stroke-width:0.5;"/><text fill="#000000" font-family="sans-serif" font-size="14" lengthAdjust="spacing" textLength="30.3652" x="30" y="702.168">User</text><ellipse cx="48.1826" cy="713.6211" fill="#E2E2F0" rx="8" ry="8" style="stroke:#181818;stroke-width:0.5;"/><path d="M48.1826,721.6211 L48.1826,748.6211 M35.1826,729.6211 L61.1826,729.6211 M48.1826,748.6211 L35.1826,763.6211 M48.1826,748.6211 L61.1826,763.6211 " fill="none" style="stroke:#181818;stroke-width:0.5;"/><rect fill="#E2E2F0" height="30.4883" rx="2.5" ry="2.5" style="stroke:#181818;stroke-width:0.5;" width="69.3301" x="186.4019" y="50"/><text fill="#000000" font-family="sans-serif" font-size="14" lengthAdjust="spacing" textLength="55.3301" x="193.4019" y="70.5352">gateway</text><rect fill="#E2E2F0" height="30.4883" rx="2.5" ry="2.5" style="stroke:#181818;stroke-width:0.5;" width="69.3301" x="186.4019" y="688.6328"/><text fill="#000000" font-family="sans-serif" font-size="14" lengthAdjust="spacing" textLength="55.3301" x="193.4019" y="709.168">gateway</text><text fill="#000000" font-family="sans-serif" font-size="14" lengthAdjust="spacing" textLength="59.9854" x="269.6411" y="78.5352">Keycloak</text><path d="M282.1338,37 L282.1338,61 M282.1338,49 L299.1338,49 " fill="none" style="stroke:#181818;stroke-width:0.5;"/><ellipse cx="311.1338" cy="49" fill="#E2E2F0" rx="12" ry="12" style="stroke:#181818;stroke-width:0.5;"/><text fill="#000000" font-family="sans-serif" font-size="14" lengthAdjust="spacing" textLength="59.9854" x="269.6411" y="702.168">Keycloak</text><path d="M282.1338,709.1211 L282.1338,733.1211 M282.1338,721.1211 L299.1338,721.1211 " fill="none" style="stroke:#181818;stroke-width:0.5;"/><ellipse cx="311.1338" cy="721.1211" fill="#E2E2F0" rx="12" ry="12" style="stroke:#181818;stroke-width:0.5;"/><rect fill="#E2E2F0" height="30.4883" rx="2.5" ry="2.5" style="stroke:#181818;stroke-width:0.5;" width="63.2461" x="362.3281" y="50"/><text fill="#000000" font-family="sans-serif" font-size="14" lengthAdjust="spacing" textLength="49.2461" x="369.3281" y="70.5352">catalog</text><rect fill="#E2E2F0" height="30.4883" rx="2.5" ry="2.5" style="stroke:#181818;stroke-width:0.5;" width="63.2461" x="362.3281" y="688.6328"/><text fill="#000000" font-family="sans-serif" font-size="14" lengthAdjust="spacing" textLength="49.2461" x="369.3281" y="709.168">catalog</text><text fill="#000000" font-family="sans-serif" font-size="14" lengthAdjust="spacing" textLength="114.2969" x="449.0186" y="78.5352">Postgres Catalog</text><path d="M491.167,29 C491.167,19 509.167,19 509.167,19 C509.167,19 527.167,19 527.167,29 L527.167,55 C527.167,65 509.167,65 509.167,65 C509.167,65 491.167,65 491.167,55 L491.167,29 " fill="#E2E2F0" style="stroke:#181818;stroke-width:1.5;"/><path d="M491.167,29 C491.167,39 509.167,39 509.167,39 C509.167,39 527.167,39 527.167,29 " fill="none" style="stroke:#181818;stroke-width:1.5;"/><text fill="#000000" font-family="sans-serif" font-size="14" lengthAdjust="spacing" textLength="114.2969" x="449.0186" y="702.168">Postgres Catalog</text><path d="M491.167,715.1211 C491.167,705.1211 509.167,705.1211 509.167,705.1211 C509.167,705.1211 527.167,705.1211 527.167,715.1211 L527.167,741.1211 C527.167,751.1211 509.167,751.1211 509.167,751.1211 C509.167,751.1211 491.167,751.1211 491.167,741.1211 L491.167,715.1211 " fill="#E2E2F0" style="stroke:#181818;stroke-width:1.5;"/><path d="M491.167,715.1211 C491.167,725.1211 509.167,725.1211 509.167,725.1211 C509.167,725.1211 527.167,725.1211 527.167,715.1211 " fill="none" style="stroke:#181818;stroke-width:1.5;"/><rect fill="#E2E2F0" height="30.4883" rx="2.5" ry="2.5" style="stroke:#181818;stroke-width:0.5;" width="55.3301" x="579.3154" y="50"/><text fill="#000000" font-family="sans-serif" font-size="14" lengthAdjust="spacing" textLength="41.3301" x="586.3154" y="70.5352">books</text><rect fill="#E2E2F0" height="30.4883" rx="2.5" ry="2.5" style="stroke:#181818;stroke-width:0.5;" width="55.3301" x="579.3154" y="688.6328"/><text fill="#000000" font-family="sans-serif" font-size="14" lengthAdjust="spacing" textLength="41.3301" x="586.3154" y="709.168">books</text><text fill="#000000" font-family="sans-serif" font-size="14" lengthAdjust="spacing" textLength="103.1064" x="698.3721" y="78.5352">Postgres Books</text><path d="M734.9253,29 C734.9253,19 752.9253,19 752.9253,19 C752.9253,19 770.9253,19 770.9253,29 L770.9253,55 C770.9253,65 752.9253,65 752.9253,65 C752.9253,65 734.9253,65 734.9253,55 L734.9253,29 " fill="#E2E2F0" style="stroke:#181818;stroke-width:1.5;"/><path d="M734.9253,29 C734.9253,39 752.9253,39 752.9253,39 C752.9253,39 770.9253,39 770.9253,29 " fill="none" style="stroke:#181818;stroke-width:1.5;"/><text fill="#000000" font-family="sans-serif" font-size="14" lengthAdjust="spacing" textLength="103.1064" x="698.3721" y="702.168">Postgres Books</text><path d="M734.9253,715.1211 C734.9253,705.1211 752.9253,705.1211 752.9253,705.1211 C752.9253,705.1211 770.9253,705.1211 770.9253,715.1211 L770.9253,741.1211 C770.9253,751.1211 752.9253,751.1211 752.9253,751.1211 C752.9253,751.1211 734.9253,751.1211 734.9253,741.1211 L734.9253,715.1211 " fill="#E2E2F0" style="stroke:#181818;stroke-width:1.5;"/><path d="M734.9253,715.1211 C734.9253,725.1211 752.9253,725.1211 752.9253,725.1211 C752.9253,725.1211 770.9253,725.1211 770.9253,715.1211 " fill="none" style="stroke:#181818;stroke-width:1.5;"/><polygon fill="#181818" points="209.0669,108.7988,219.0669,112.7988,209.0669,116.7988,213.0669,112.7988" style="stroke:#181818;stroke-width:1.0;"/><line style="stroke:#181818;stroke-width:1.0;" x1="48.1826" x2="215.0669" y1="112.7988" y2="112.7988"/><text fill="#000000" font-family="sans-serif" font-size="13" lengthAdjust="spacing" textLength="148.8843" x="55.1826" y="108.0566">GET /api/v1/books/{id}</text><polygon fill="#181818" points="290.6338,138.1094,300.6338,142.1094,290.6338,146.1094,294.6338,142.1094" style="stroke:#181818;stroke-width:1.0;"/><line style="stroke:#181818;stroke-width:1.0;" x1="221.0669" x2="296.6338" y1="142.1094" y2="142.1094"/><text fill="#000000" font-family="sans-serif" font-size="13" lengthAdjust="spacing" textLength="57.5669" x="228.0669" y="137.3672">verify jwt</text><polygon fill="#181818" points="232.0669,152.1094,222.0669,156.1094,232.0669,160.1094,228.0669,156.1094" style="stroke:#181818;stroke-width:1.0;"/><line style="stroke:#181818;stroke-width:1.0;stroke-dasharray:2.0,2.0;" x1="226.0669" x2="301.6338" y1="156.1094" y2="156.1094"/><path d="M10,171.1094 L72.1387,171.1094 L72.1387,178.4199 L62.1387,188.4199 L10,188.4199 L10,171.1094 " fill="#EEEEEE" style="stroke:#000000;stroke-width:1.5;"/><rect fill="none" height="501.5234" style="stroke:#000000;stroke-width:1.5;" width="817.4785" x="10" y="171.1094"/><text fill="#000000" font-family="sans-serif" font-size="13" font-weight="bold" lengthAdjust="spacing" textLength="17.1387" x="25" y="184.6777">alt</text><text fill="#000000" font-family="sans-serif" font-size="11" font-weight="bold" lengthAdjust="spacing" textLength="70.2485" x="87.1387" y="183.7441">[jwt is valid]</text><polygon fill="#181818" points="381.9512,205.7305,391.9512,209.7305,381.9512,213.7305,385.9512,209.7305" style="stroke:#181818;stroke-width:1.0;"/><line style="stroke:#181818;stroke-width:1.0;" x1="221.0669" x2="387.9512" y1="209.7305" y2="209.7305"/><text fill="#000000" font-family="sans-serif" font-size="13" lengthAdjust="spacing" textLength="148.8843" x="228.0669" y="204.9883">GET /api/v1/books/{id}</text><polygon fill="#181818" points="497.167,235.041,507.167,239.041,497.167,243.041,501.167,239.041" style="stroke:#181818;stroke-width:1.0;"/><line style="stroke:#181818;stroke-width:1.0;" x1="393.9512" x2="503.167" y1="239.041" y2="239.041"/><text fill="#000000" font-family="sans-serif" font-size="13" lengthAdjust="spacing" textLength="91.2158" x="400.9512" y="234.2988">get book by id</text><polygon fill="#181818" points="404.9512,249.041,394.9512,253.041,404.9512,257.041,400.9512,253.041" style="stroke:#181818;stroke-width:1.0;"/><line style="stroke:#181818;stroke-width:1.0;stroke-dasharray:2.0,2.0;" x1="398.9512" x2="508.167" y1="253.041" y2="253.041"/><path d="M20,268.041 L82.1387,268.041 L82.1387,275.3516 L72.1387,285.3516 L20,285.3516 L20,268.041 " fill="#EEEEEE" style="stroke:#000000;stroke-width:1.5;"/><rect fill="none" height="309.0605" style="stroke:#000000;stroke-width:1.5;" width="797.4785" x="20" y="268.041"/><text fill="#000000" font-family="sans-serif" font-size="13" font-weight="bold" lengthAdjust="spacing" textLength="17.1387" x="35" y="281.6094">alt</text><text fill="#000000" font-family="sans-serif" font-size="11" font-weight="bold" lengthAdjust="spacing" textLength="73.498" x="97.1387" y="280.6758">[book exists]</text><polygon fill="#181818" points="594.9805,302.6621,604.9805,306.6621,594.9805,310.6621,598.9805,306.6621" style="stroke:#181818;stroke-width:1.0;"/><line style="stroke:#181818;stroke-width:1.0;" x1="393.9512" x2="600.9805" y1="306.6621" y2="306.6621"/><text fill="#000000" font-family="sans-serif" font-size="13" lengthAdjust="spacing" textLength="181.8667" x="400.9512" y="301.9199">GET /api/v1/books/{id}/files</text><polygon fill="#181818" points="740.9253,331.9727,750.9253,335.9727,740.9253,339.9727,744.9253,335.9727" style="stroke:#181818;stroke-width:1.0;"/><line style="stroke:#181818;stroke-width:1.0;" x1="606.9805" x2="746.9253" y1="335.9727" y2="335.9727"/><text fill="#000000" font-family="sans-serif" font-size="13" lengthAdjust="spacing" textLength="121.9448" x="613.9805" y="331.2305">find files by bookId</text><polygon fill="#181818" points="617.9805,361.2832,607.9805,365.2832,617.9805,369.2832,613.9805,365.2832" style="stroke:#181818;stroke-width:1.0;"/><line style="stroke:#181818;stroke-width:1.0;stroke-dasharray:2.0,2.0;" x1="611.9805" x2="751.9253" y1="365.2832" y2="365.2832"/><text fill="#000000" font-family="sans-serif" font-size="13" lengthAdjust="spacing" textLength="42.6563" x="623.9805" y="360.541">file list</text><polygon fill="#181818" points="404.9512,390.5938,394.9512,394.5938,404.9512,398.5938,400.9512,394.5938" style="stroke:#181818;stroke-width:1.0;"/><line style="stroke:#181818;stroke-width:1.0;stroke-dasharray:2.0,2.0;" x1="398.9512" x2="605.9805" y1="394.5938" y2="394.5938"/><text fill="#000000" font-family="sans-serif" font-size="13" lengthAdjust="spacing" textLength="42.6563" x="410.9512" y="389.8516">file list</text><line style="stroke:#181818;stroke-width:1.0;" x1="393.9512" x2="435.9512" y1="423.9043" y2="423.9043"/><line style="stroke:#181818;stroke-width:1.0;" x1="435.9512" x2="435.9512" y1="423.9043" y2="436.9043"/><line style="stroke:#181818;stroke-width:1.0;" x1="394.9512" x2="435.9512" y1="436.9043" y2="436.9043"/><polygon fill="#181818" points="404.9512,432.9043,394.9512,436.9043,404.9512,440.9043,400.9512,436.9043" style="stroke:#181818;stroke-width:1.0;"/><text fill="#000000" font-family="sans-serif" font-size="13" lengthAdjust="spacing" textLength="63.3433" x="400.9512" y="419.1621">aggregate</text><polygon fill="#181818" points="232.0669,462.2148,222.0669,466.2148,232.0669,470.2148,228.0669,466.2148" style="stroke:#181818;stroke-width:1.0;"/><line style="stroke:#181818;stroke-width:1.0;stroke-dasharray:2.0,2.0;" x1="226.0669" x2="392.9512" y1="466.2148" y2="466.2148"/><text fill="#000000" font-family="sans-serif" font-size="13" lengthAdjust="spacing" textLength="77.4731" x="238.0669" y="461.4727">book details</text><polygon fill="#181818" points="59.1826,491.5254,49.1826,495.5254,59.1826,499.5254,55.1826,495.5254" style="stroke:#181818;stroke-width:1.0;"/><line style="stroke:#181818;stroke-width:1.0;stroke-dasharray:2.0,2.0;" x1="53.1826" x2="220.0669" y1="495.5254" y2="495.5254"/><text fill="#000000" font-family="sans-serif" font-size="13" lengthAdjust="spacing" textLength="77.4731" x="65.1826" y="490.7832">book details</text><line style="stroke:#000000;stroke-width:1.0;stroke-dasharray:2.0,2.0;" x1="20" x2="817.4785" y1="504.5254" y2="504.5254"/><text fill="#000000" font-family="sans-serif" font-size="11" font-weight="bold" lengthAdjust="spacing" textLength="120.2158" x="25" y="515.1602">[book does not exist]</text><polygon fill="#181818" points="232.0669,535.791,222.0669,539.791,232.0669,543.791,228.0669,539.791" style="stroke:#181818;stroke-width:1.0;"/><line style="stroke:#181818;stroke-width:1.0;stroke-dasharray:2.0,2.0;" x1="226.0669" x2="392.9512" y1="539.791" y2="539.791"/><text fill="#000000" font-family="sans-serif" font-size="13" lengthAdjust="spacing" textLength="94.834" x="238.0669" y="535.0488">HttpStatus 404</text><polygon fill="#181818" points="59.1826,565.1016,49.1826,569.1016,59.1826,573.1016,55.1826,569.1016" style="stroke:#181818;stroke-width:1.0;"/><line style="stroke:#181818;stroke-width:1.0;stroke-dasharray:2.0,2.0;" x1="53.1826" x2="220.0669" y1="569.1016" y2="569.1016"/><text fill="#000000" font-family="sans-serif" font-size="13" lengthAdjust="spacing" textLength="94.834" x="65.1826" y="564.3594">HttpStatus 404</text><line style="stroke:#000000;stroke-width:1.0;stroke-dasharray:2.0,2.0;" x1="10" x2="827.4785" y1="585.1016" y2="585.1016"/><text fill="#000000" font-family="sans-serif" font-size="11" font-weight="bold" lengthAdjust="spacing" textLength="80.9155" x="15" y="595.7363">[jwt is absent]</text><polygon fill="#181818" points="59.1826,616.3672,49.1826,620.3672,59.1826,624.3672,55.1826,620.3672" style="stroke:#181818;stroke-width:1.0;"/><line style="stroke:#181818;stroke-width:1.0;stroke-dasharray:2.0,2.0;" x1="53.1826" x2="220.0669" y1="620.3672" y2="620.3672"/><text fill="#000000" font-family="sans-serif" font-size="13" lengthAdjust="spacing" textLength="94.834" x="65.1826" y="615.625">HttpStatus 401</text><line style="stroke:#000000;stroke-width:1.0;stroke-dasharray:2.0,2.0;" x1="10" x2="827.4785" y1="629.3672" y2="629.3672"/><text fill="#000000" font-family="sans-serif" font-size="11" font-weight="bold" lengthAdjust="spacing" textLength="92.5815" x="15" y="640.002">[jwt is not valid]</text><polygon fill="#181818" points="59.1826,660.6328,49.1826,664.6328,59.1826,668.6328,55.1826,664.6328" style="stroke:#181818;stroke-width:1.0;"/><line style="stroke:#181818;stroke-width:1.0;stroke-dasharray:2.0,2.0;" x1="53.1826" x2="220.0669" y1="664.6328" y2="664.6328"/><text fill="#000000" font-family="sans-serif" font-size="13" lengthAdjust="spacing" textLength="94.834" x="65.1826" y="659.8906">HttpStatus 403</text><!--SRC=[VP8nJyCm48Lt_ufJEbUXebC61X02n884pEWIkyR4YgFusX0X_Zi-nxHfISaIo- -xU-ziOqMkW-pLgou3zB0D2z5YHwOoBJO4cKPIFGvHrRqetRQHs0sGFQgXiWxhgDJrSLM5XDRfgAMraE5VebUGFJbFkbCURYPOgzy2UTocTAxsKOshkHRNUoGqO4e87WAMLo5k0NUtBv1ZQ_BTAeyzyYyZluNk6QZh0dQgCvi1FdeITGtBM2RG4YoiqU_ieHfMmNZOeJLIGFZ6-ZJPMHSc4yFuE641Mb6S1ye1KhzHYlQ_nyNRfpbYbVeqddpKJmoYzRaq-SPOTIYBGah5wm8sff4G8Gx6UmzoZoSg9amsZ88DMKvxJa_cBpJ9kwTGX_dufVsbqZr6Swa8ZJtCmBSGTBxl6KBPy50MbUlG9j65qHf7umcUjRedQfy9QUjXVR6UDvjXL2F5r3Az6IozQaZyts4rLyb9Zr_SVF6bOEiV]--></g></svg>