<svg xmlns="http://www.w3.org/2000/svg" xmlns:xlink="http://www.w3.org/1999/xlink" contentStyleType="text/css" height="712px" preserveAspectRatio="none" style="width:767px;height:712px;background:#FFFFFF;" version="1.1" viewBox="0 0 767 712" width="767px" zoomAndPan="magnify"><defs/><g><rect fill="#90EE90" height="442.9023" style="stroke:#000000;stroke-width:1.5;" width="644.6455" x="10" y="171.1094"/><rect fill="#90EE90" height="250.4395" style="stroke:#000000;stroke-width:1.5;" width="624.6455" x="20" y="268.041"/><rect fill="#FF7F50" height="73.5762" style="stroke:none;stroke-width:1.0;" width="624.6455" x="20" y="444.9043"/><rect fill="#FF7F50" height="44.2656" style="stroke:none;stroke-width:1.0;" width="644.6455" x="10" y="525.4805"/><rect fill="#FF7F50" height="44.2656" style="stroke:none;stroke-width:1.0;" width="644.6455" x="10" y="569.7461"/><line style="stroke:#181818;stroke-width:0.5;stroke-dasharray:5.0,5.0;" x1="48" x2="48" y1="81.4883" y2="631.0117"/><line style="stroke:#181818;stroke-width:0.5;stroke-dasharray:5.0,5.0;" x1="220.4019" x2="220.4019" y1="81.4883" y2="631.0117"/><line style="stroke:#181818;stroke-width:0.5;stroke-dasharray:5.0,5.0;" x1="301.6411" x2="301.6411" y1="81.4883" y2="631.0117"/><line style="stroke:#181818;stroke-width:0.5;stroke-dasharray:5.0,5.0;" x1="393.3281" x2="393.3281" y1="81.4883" y2="631.0117"/><line style="stroke:#181818;stroke-width:0.5;stroke-dasharray:5.0,5.0;" x1="509.0186" x2="509.0186" y1="81.4883" y2="631.0117"/><line style="stroke:#181818;stroke-width:0.5;stroke-dasharray:5.0,5.0;" x1="606.3154" x2="606.3154" y1="81.4883" y2="631.0117"/><line style="stroke:#181818;stroke-width:0.5;stroke-dasharray:5.0,5.0;" x1="702.6455" x2="702.6455" y1="81.4883" y2="631.0117"/><text fill="#000000" font-family="sans-serif" font-size="14" lengthAdjust="spacing" textLength="30.3652" x="30" y="78.5352">User</text><ellipse cx="48.1826" cy="13.5" fill="#E2E2F0" rx="8" ry="8" style="stroke:#181818;stroke-width:0.5;"/><path d="M48.1826,21.5 L48.1826,48.5 M35.1826,29.5 L61.1826,29.5 M48.1826,48.5 L35.1826,63.5 M48.1826,48.5 L61.1826,63.5 " fill="none" style="stroke:#181818;stroke-width:0.5;"/><text fill="#000000" font-family="sans-serif" font-size="14" lengthAdjust="spacing" textLength="30.3652" x="30" y="643.5469">User</text><ellipse cx="48.1826" cy="655" fill="#E2E2F0" rx="8" ry="8" style="stroke:#181818;stroke-width:0.5;"/><path d="M48.1826,663 L48.1826,690 M35.1826,671 L61.1826,671 M48.1826,690 L35.1826,705 M48.1826,690 L61.1826,705 " fill="none" style="stroke:#181818;stroke-width:0.5;"/><rect fill="#E2E2F0" height="30.4883" rx="2.5" ry="2.5" style="stroke:#181818;stroke-width:0.5;" width="69.3301" x="186.4019" y="50"/><text fill="#000000" font-family="sans-serif" font-size="14" lengthAdjust="spacing" textLength="55.3301" x="193.4019" y="70.5352">gateway</text><rect fill="#E2E2F0" height="30.4883" rx="2.5" ry="2.5" style="stroke:#181818;stroke-width:0.5;" width="69.3301" x="186.4019" y="630.0117"/><text fill="#000000" font-family="sans-serif" font-size="14" lengthAdjust="spacing" textLength="55.3301" x="193.4019" y="650.5469">gateway</text><text fill="#000000" font-family="sans-serif" font-size="14" lengthAdjust="spacing" textLength="59.9854" x="269.6411" y="78.5352">Keycloak</text><path d="M282.1338,37 L282.1338,61 M282.1338,49 L299.1338,49 " fill="none" style="stroke:#181818;stroke-width:0.5;"/><ellipse cx="311.1338" cy="49" fill="#E2E2F0" rx="12" ry="12" style="stroke:#181818;stroke-width:0.5;"/><text fill="#000000" font-family="sans-serif" font-size="14" lengthAdjust="spacing" textLength="59.9854" x="269.6411" y="643.5469">Keycloak</text><path d="M282.1338,650.5 L282.1338,674.5 M282.1338,662.5 L299.1338,662.5 " fill="none" style="stroke:#181818;stroke-width:0.5;"/><ellipse cx="311.1338" cy="662.5" fill="#E2E2F0" rx="12" ry="12" style="stroke:#181818;stroke-width:0.5;"/><rect fill="#E2E2F0" height="30.4883" rx="2.5" ry="2.5" style="stroke:#181818;stroke-width:0.5;" width="63.2461" x="362.3281" y="50"/><text fill="#000000" font-family="sans-serif" font-size="14" lengthAdjust="spacing" textLength="49.2461" x="369.3281" y="70.5352">catalog</text><rect fill="#E2E2F0" height="30.4883" rx="2.5" ry="2.5" style="stroke:#181818;stroke-width:0.5;" width="63.2461" x="362.3281" y="630.0117"/><text fill="#000000" font-family="sans-serif" font-size="14" lengthAdjust="spacing" textLength="49.2461" x="369.3281" y="650.5469">catalog</text><text fill="#000000" font-family="sans-serif" font-size="14" lengthAdjust="spacing" textLength="114.2969" x="449.0186" y="78.5352">Postgres Catalog</text><path d="M491.167,29 C491.167,19 509.167,19 509.167,19 C509.167,19 527.167,19 527.167,29 L527.167,55 C527.167,65 509.167,65 509.167,65 C509.167,65 491.167,65 491.167,55 L491.167,29 " fill="#E2E2F0" style="stroke:#181818;stroke-width:1.5;"/><path d="M491.167,29 C491.167,39 509.167,39 509.167,39 C509.167,39 527.167,39 527.167,29 " fill="none" style="stroke:#181818;stroke-width:1.5;"/><text fill="#000000" font-family="sans-serif" font-size="14" lengthAdjust="spacing" textLength="114.2969" x="449.0186" y="643.5469">Postgres Catalog</text><path d="M491.167,656.5 C491.167,646.5 509.167,646.5 509.167,646.5 C509.167,646.5 527.167,646.5 527.167,656.5 L527.167,682.5 C527.167,692.5 509.167,692.5 509.167,692.5 C509.167,692.5 491.167,692.5 491.167,682.5 L491.167,656.5 " fill="#E2E2F0" style="stroke:#181818;stroke-width:1.5;"/><path d="M491.167,656.5 C491.167,666.5 509.167,666.5 509.167,666.5 C509.167,666.5 527.167,666.5 527.167,656.5 " fill="none" style="stroke:#181818;stroke-width:1.5;"/><rect fill="#E2E2F0" height="30.4883" rx="2.5" ry="2.5" style="stroke:#181818;stroke-width:0.5;" width="55.3301" x="579.3154" y="50"/><text fill="#000000" font-family="sans-serif" font-size="14" lengthAdjust="spacing" textLength="41.3301" x="586.3154" y="70.5352">books</text><rect fill="#E2E2F0" height="30.4883" rx="2.5" ry="2.5" style="stroke:#181818;stroke-width:0.5;" width="55.3301" x="579.3154" y="630.0117"/><text fill="#000000" font-family="sans-serif" font-size="14" lengthAdjust="spacing" textLength="41.3301" x="586.3154" y="650.5469">books</text><rect fill="#E2E2F0" height="30.4883" rx="2.5" ry="2.5" style="stroke:#181818;stroke-width:0.5;" width="117.1064" x="644.6455" y="50"/><text fill="#000000" font-family="sans-serif" font-size="14" lengthAdjust="spacing" textLength="103.1064" x="651.6455" y="70.5352">Postgres Books</text><rect fill="#E2E2F0" height="30.4883" rx="2.5" ry="2.5" style="stroke:#181818;stroke-width:0.5;" width="117.1064" x="644.6455" y="630.0117"/><text fill="#000000" font-family="sans-serif" font-size="14" lengthAdjust="spacing" textLength="103.1064" x="651.6455" y="650.5469">Postgres Books</text><polygon fill="#181818" points="209.0669,108.7988,219.0669,112.7988,209.0669,116.7988,213.0669,112.7988" style="stroke:#181818;stroke-width:1.0;"/><line style="stroke:#181818;stroke-width:1.0;" x1="48.1826" x2="215.0669" y1="112.7988" y2="112.7988"/><text fill="#000000" font-family="sans-serif" font-size="13" lengthAdjust="spacing" textLength="148.8843" x="55.1826" y="108.0566">GET /api/v1/books/{id}</text><polygon fill="#181818" points="290.6338,138.1094,300.6338,142.1094,290.6338,146.1094,294.6338,142.1094" style="stroke:#181818;stroke-width:1.0;"/><line style="stroke:#181818;stroke-width:1.0;" x1="221.0669" x2="296.6338" y1="142.1094" y2="142.1094"/><text fill="#000000" font-family="sans-serif" font-size="13" lengthAdjust="spacing" textLength="57.5669" x="228.0669" y="137.3672">verify jwt</text><polygon fill="#181818" points="232.0669,152.1094,222.0669,156.1094,232.0669,160.1094,228.0669,156.1094" style="stroke:#181818;stroke-width:1.0;"/><line style="stroke:#181818;stroke-width:1.0;stroke-dasharray:2.0,2.0;" x1="226.0669" x2="301.6338" y1="156.1094" y2="156.1094"/><path d="M10,171.1094 L72.1387,171.1094 L72.1387,178.4199 L62.1387,188.4199 L10,188.4199 L10,171.1094 " fill="#EEEEEE" style="stroke:#000000;stroke-width:1.5;"/><rect fill="none" height="442.9023" style="stroke:#000000;stroke-width:1.5;" width="644.6455" x="10" y="171.1094"/><text fill="#000000" font-family="sans-serif" font-size="13" font-weight="bold" lengthAdjust="spacing" textLength="17.1387" x="25" y="184.6777">alt</text><text fill="#000000" font-family="sans-serif" font-size="11" font-weight="bold" lengthAdjust="spacing" textLength="70.2485" x="87.1387" y="183.7441">[jwt is valid]</text><polygon fill="#181818" points="381.9512,205.7305,391.9512,209.7305,381.9512,213.7305,385.9512,209.7305" style="stroke:#181818;stroke-width:1.0;"/><line style="stroke:#181818;stroke-width:1.0;" x1="221.0669" x2="387.9512" y1="209.7305" y2="209.7305"/><text fill="#000000" font-family="sans-serif" font-size="13" lengthAdjust="spacing" textLength="148.8843" x="228.0669" y="204.9883">GET /api/v1/books/{id}</text><polygon fill="#181818" points="497.167,235.041,507.167,239.041,497.167,243.041,501.167,239.041" style="stroke:#181818;stroke-width:1.0;"/><line style="stroke:#181818;stroke-width:1.0;" x1="393.9512" x2="503.167" y1="239.041" y2="239.041"/><text fill="#000000" font-family="sans-serif" font-size="13" lengthAdjust="spacing" textLength="91.2158" x="400.9512" y="234.2988">get book by id</text><polygon fill="#181818" points="404.9512,249.041,394.9512,253.041,404.9512,257.041,400.9512,253.041" style="stroke:#181818;stroke-width:1.0;"/><line style="stroke:#181818;stroke-width:1.0;stroke-dasharray:2.0,2.0;" x1="398.9512" x2="508.167" y1="253.041" y2="253.041"/><path d="M20,268.041 L82.1387,268.041 L82.1387,275.3516 L72.1387,285.3516 L20,285.3516 L20,268.041 " fill="#EEEEEE" style="stroke:#000000;stroke-width:1.5;"/><rect fill="none" height="250.4395" style="stroke:#000000;stroke-width:1.5;" width="624.6455" x="20" y="268.041"/><text fill="#000000" font-family="sans-serif" font-size="13" font-weight="bold" lengthAdjust="spacing" textLength="17.1387" x="35" y="281.6094">alt</text><text fill="#000000" font-family="sans-serif" font-size="11" font-weight="bold" lengthAdjust="spacing" textLength="73.498" x="97.1387" y="280.6758">[book exists]</text><polygon fill="#181818" points="594.9805,302.6621,604.9805,306.6621,594.9805,310.6621,598.9805,306.6621" style="stroke:#181818;stroke-width:1.0;"/><line style="stroke:#181818;stroke-width:1.0;" x1="393.9512" x2="600.9805" y1="306.6621" y2="306.6621"/><text fill="#000000" font-family="sans-serif" font-size="13" lengthAdjust="spacing" textLength="181.8667" x="400.9512" y="301.9199">GET /api/v1/books/{id}/files</text><polygon fill="#181818" points="404.9512,331.9727,394.9512,335.9727,404.9512,339.9727,400.9512,335.9727" style="stroke:#181818;stroke-width:1.0;"/><line style="stroke:#181818;stroke-width:1.0;stroke-dasharray:2.0,2.0;" x1="398.9512" x2="605.9805" y1="335.9727" y2="335.9727"/><text fill="#000000" font-family="sans-serif" font-size="13" lengthAdjust="spacing" textLength="42.6563" x="410.9512" y="331.2305">file list</text><line style="stroke:#181818;stroke-width:1.0;" x1="393.9512" x2="435.9512" y1="365.2832" y2="365.2832"/><line style="stroke:#181818;stroke-width:1.0;" x1="435.9512" x2="435.9512" y1="365.2832" y2="378.2832"/><line style="stroke:#181818;stroke-width:1.0;" x1="394.9512" x2="435.9512" y1="378.2832" y2="378.2832"/><polygon fill="#181818" points="404.9512,374.2832,394.9512,378.2832,404.9512,382.2832,400.9512,378.2832" style="stroke:#181818;stroke-width:1.0;"/><text fill="#000000" font-family="sans-serif" font-size="13" lengthAdjust="spacing" textLength="63.3433" x="400.9512" y="360.541">aggregate</text><polygon fill="#181818" points="232.0669,403.5938,222.0669,407.5938,232.0669,411.5938,228.0669,407.5938" style="stroke:#181818;stroke-width:1.0;"/><line style="stroke:#181818;stroke-width:1.0;stroke-dasharray:2.0,2.0;" x1="226.0669" x2="392.9512" y1="407.5938" y2="407.5938"/><text fill="#000000" font-family="sans-serif" font-size="13" lengthAdjust="spacing" textLength="77.4731" x="238.0669" y="402.8516">book details</text><polygon fill="#181818" points="59.1826,432.9043,49.1826,436.9043,59.1826,440.9043,55.1826,436.9043" style="stroke:#181818;stroke-width:1.0;"/><line style="stroke:#181818;stroke-width:1.0;stroke-dasharray:2.0,2.0;" x1="53.1826" x2="220.0669" y1="436.9043" y2="436.9043"/><text fill="#000000" font-family="sans-serif" font-size="13" lengthAdjust="spacing" textLength="77.4731" x="65.1826" y="432.1621">book details</text><line style="stroke:#000000;stroke-width:1.0;stroke-dasharray:2.0,2.0;" x1="20" x2="644.6455" y1="445.9043" y2="445.9043"/><text fill="#000000" font-family="sans-serif" font-size="11" font-weight="bold" lengthAdjust="spacing" textLength="120.2158" x="25" y="456.5391">[book does not exist]</text><polygon fill="#181818" points="232.0669,477.1699,222.0669,481.1699,232.0669,485.1699,228.0669,481.1699" style="stroke:#181818;stroke-width:1.0;"/><line style="stroke:#181818;stroke-width:1.0;stroke-dasharray:2.0,2.0;" x1="226.0669" x2="392.9512" y1="481.1699" y2="481.1699"/><text fill="#000000" font-family="sans-serif" font-size="13" lengthAdjust="spacing" textLength="94.834" x="238.0669" y="476.4277">HttpStatus 404</text><polygon fill="#181818" points="59.1826,506.4805,49.1826,510.4805,59.1826,514.4805,55.1826,510.4805" style="stroke:#181818;stroke-width:1.0;"/><line style="stroke:#181818;stroke-width:1.0;stroke-dasharray:2.0,2.0;" x1="53.1826" x2="220.0669" y1="510.4805" y2="510.4805"/><text fill="#000000" font-family="sans-serif" font-size="13" lengthAdjust="spacing" textLength="94.834" x="65.1826" y="505.7383">HttpStatus 404</text><line style="stroke:#000000;stroke-width:1.0;stroke-dasharray:2.0,2.0;" x1="10" x2="654.6455" y1="526.4805" y2="526.4805"/><text fill="#000000" font-family="sans-serif" font-size="11" font-weight="bold" lengthAdjust="spacing" textLength="80.9155" x="15" y="537.1152">[jwt is absent]</text><polygon fill="#181818" points="59.1826,557.7461,49.1826,561.7461,59.1826,565.7461,55.1826,561.7461" style="stroke:#181818;stroke-width:1.0;"/><line style="stroke:#181818;stroke-width:1.0;stroke-dasharray:2.0,2.0;" x1="53.1826" x2="220.0669" y1="561.7461" y2="561.7461"/><text fill="#000000" font-family="sans-serif" font-size="13" lengthAdjust="spacing" textLength="94.834" x="65.1826" y="557.0039">HttpStatus 401</text><line style="stroke:#000000;stroke-width:1.0;stroke-dasharray:2.0,2.0;" x1="10" x2="654.6455" y1="570.7461" y2="570.7461"/><text fill="#000000" font-family="sans-serif" font-size="11" font-weight="bold" lengthAdjust="spacing" textLength="92.5815" x="15" y="581.3809">[jwt is not valid]</text><polygon fill="#181818" points="59.1826,602.0117,49.1826,606.0117,59.1826,610.0117,55.1826,606.0117" style="stroke:#181818;stroke-width:1.0;"/><line style="stroke:#181818;stroke-width:1.0;stroke-dasharray:2.0,2.0;" x1="53.1826" x2="220.0669" y1="606.0117" y2="606.0117"/><text fill="#000000" font-family="sans-serif" font-size="13" lengthAdjust="spacing" textLength="94.834" x="65.1826" y="601.2695">HttpStatus 403</text><!--SRC=[VLAzJiCm4Dxz5ATqha95fmmC80GI2n8meqjoDSPM7DdNXWZnxjXEQ9kIDajE_lxkpiQAhOFipPFB03riGo5QTAmgrMB3a4bawh1FgEn4QRTDZQw7x8dwobZK2T5wgggGqLYPiB4MTVYNw0coP-jPEl9mTqHhvNjWJcrAQxLFQAgcuDxbTiyA7f4eH9m3bZUXum8UxbyXnrRbkrMURF9lLVy8sKM2rWNioAbD3vyT2wrXcMG23SF2AFaHCwY9A2WFEpIg5X2-GJyETpObCaTEf0z35Y29qqXGzZ3w3L2A_zjOF3xj8wdeItds2Jy9ID7dkiatoj11be3Zm08Y0Kmmd_FUir26NkB3-CyQTvwwh8bHcKDUt5Z0uztCCCY4fx6eh4CpWZRSRMDvcFPir2Dp-yB8Mm_hg_Lys0o7cbeSHuxtYwMdXiLbXzMSCdOwVHtpuciHety1]--></g></svg>