<svg xmlns="http://www.w3.org/2000/svg" xmlns:xlink="http://www.w3.org/1999/xlink" contentStyleType="text/css" height="595px" preserveAspectRatio="none" style="width:710px;height:595px;background:#FFFFFF;" version="1.1" viewBox="0 0 710 595" width="710px" zoomAndPan="magnify"><defs/><g><rect fill="#90EE90" height="296.75" style="stroke:#000000;stroke-width:1.5;" width="693.0908" x="10" y="200.4199"/><rect fill="#ADD8E6" height="46.6211" style="stroke:#000000;stroke-width:1.5;" width="399.606" x="293.4849" y="311.3516"/><rect fill="#FF7F50" height="73.5762" style="stroke:none;stroke-width:1.0;" width="693.0908" x="10" y="423.5938"/><line style="stroke:#181818;stroke-width:0.5;stroke-dasharray:5.0,5.0;" x1="38" x2="38" y1="81.4883" y2="514.1699"/><line style="stroke:#181818;stroke-width:0.5;stroke-dasharray:5.0,5.0;" x1="202.9878" x2="202.9878" y1="81.4883" y2="514.1699"/><line style="stroke:#181818;stroke-width:0.5;stroke-dasharray:5.0,5.0;" x1="352.4849" x2="352.4849" y1="81.4883" y2="514.1699"/><line style="stroke:#181818;stroke-width:0.5;stroke-dasharray:5.0,5.0;" x1="507.0674" x2="507.0674" y1="81.4883" y2="514.1699"/><line style="stroke:#181818;stroke-width:0.5;stroke-dasharray:5.0,5.0;" x1="583.0527" x2="583.0527" y1="81.4883" y2="514.1699"/><line style="stroke:#181818;stroke-width:0.5;stroke-dasharray:5.0,5.0;" x1="653.1582" x2="653.1582" y1="81.4883" y2="514.1699"/><text fill="#000000" font-family="sans-serif" font-size="14" lengthAdjust="spacing" textLength="30.3652" x="20" y="78.5352">User</text><ellipse cx="38.1826" cy="13.5" fill="#E2E2F0" rx="8" ry="8" style="stroke:#181818;stroke-width:0.5;"/><path d="M38.1826,21.5 L38.1826,48.5 M25.1826,29.5 L51.1826,29.5 M38.1826,48.5 L25.1826,63.5 M38.1826,48.5 L51.1826,63.5 " fill="none" style="stroke:#181818;stroke-width:0.5;"/><text fill="#000000" font-family="sans-serif" font-size="14" lengthAdjust="spacing" textLength="30.3652" x="20" y="526.7051">User</text><ellipse cx="38.1826" cy="538.1582" fill="#E2E2F0" rx="8" ry="8" style="stroke:#181818;stroke-width:0.5;"/><path d="M38.1826,546.1582 L38.1826,573.1582 M25.1826,554.1582 L51.1826,554.1582 M38.1826,573.1582 L25.1826,588.1582 M38.1826,573.1582 L51.1826,588.1582 " fill="none" style="stroke:#181818;stroke-width:0.5;"/><rect fill="#E2E2F0" height="30.4883" rx="2.5" ry="2.5" style="stroke:#181818;stroke-width:0.5;" width="69.3301" x="168.9878" y="50"/><text fill="#000000" font-family="sans-serif" font-size="14" lengthAdjust="spacing" textLength="55.3301" x="175.9878" y="70.5352">gateway</text><rect fill="#E2E2F0" height="30.4883" rx="2.5" ry="2.5" style="stroke:#181818;stroke-width:0.5;" width="69.3301" x="168.9878" y="513.1699"/><text fill="#000000" font-family="sans-serif" font-size="14" lengthAdjust="spacing" textLength="55.3301" x="175.9878" y="533.7051">gateway</text><rect fill="#E2E2F0" height="30.4883" rx="2.5" ry="2.5" style="stroke:#181818;stroke-width:0.5;" width="98.3828" x="303.4849" y="50"/><text fill="#000000" font-family="sans-serif" font-size="14" lengthAdjust="spacing" textLength="84.3828" x="310.4849" y="70.5352">user-service</text><rect fill="#E2E2F0" height="30.4883" rx="2.5" ry="2.5" style="stroke:#181818;stroke-width:0.5;" width="98.3828" x="303.4849" y="513.1699"/><text fill="#000000" font-family="sans-serif" font-size="14" lengthAdjust="spacing" textLength="84.3828" x="310.4849" y="533.7051">user-service</text><text fill="#000000" font-family="sans-serif" font-size="14" lengthAdjust="spacing" textLength="59.9854" x="475.0674" y="78.5352">Keycloak</text><path d="M487.5601,37 L487.5601,61 M487.5601,49 L504.5601,49 " fill="none" style="stroke:#181818;stroke-width:0.5;"/><ellipse cx="516.5601" cy="49" fill="#E2E2F0" rx="12" ry="12" style="stroke:#181818;stroke-width:0.5;"/><text fill="#000000" font-family="sans-serif" font-size="14" lengthAdjust="spacing" textLength="59.9854" x="475.0674" y="526.7051">Keycloak</text><path d="M487.5601,533.6582 L487.5601,557.6582 M487.5601,545.6582 L504.5601,545.6582 " fill="none" style="stroke:#181818;stroke-width:0.5;"/><ellipse cx="516.5601" cy="545.6582" fill="#E2E2F0" rx="12" ry="12" style="stroke:#181818;stroke-width:0.5;"/><text fill="#000000" font-family="sans-serif" font-size="14" lengthAdjust="spacing" textLength="58.1055" x="551.0527" y="78.5352">Postgres</text><path d="M565.1055,29 C565.1055,19 583.1055,19 583.1055,19 C583.1055,19 601.1055,19 601.1055,29 L601.1055,55 C601.1055,65 583.1055,65 583.1055,65 C583.1055,65 565.1055,65 565.1055,55 L565.1055,29 " fill="#E2E2F0" style="stroke:#181818;stroke-width:1.5;"/><path d="M565.1055,29 C565.1055,39 583.1055,39 583.1055,39 C583.1055,39 601.1055,39 601.1055,29 " fill="none" style="stroke:#181818;stroke-width:1.5;"/><text fill="#000000" font-family="sans-serif" font-size="14" lengthAdjust="spacing" textLength="58.1055" x="551.0527" y="526.7051">Postgres</text><path d="M565.1055,539.6582 C565.1055,529.6582 583.1055,529.6582 583.1055,529.6582 C583.1055,529.6582 601.1055,529.6582 601.1055,539.6582 L601.1055,565.6582 C601.1055,575.6582 583.1055,575.6582 583.1055,575.6582 C583.1055,575.6582 565.1055,575.6582 565.1055,565.6582 L565.1055,539.6582 " fill="#E2E2F0" style="stroke:#181818;stroke-width:1.5;"/><path d="M565.1055,539.6582 C565.1055,549.6582 583.1055,549.6582 583.1055,549.6582 C583.1055,549.6582 601.1055,549.6582 601.1055,539.6582 " fill="none" style="stroke:#181818;stroke-width:1.5;"/><path d="M630.1582,55 L678.0908,55 C683.0908,55 683.0908,68.2441 683.0908,68.2441 C683.0908,68.2441 683.0908,81.4883 678.0908,81.4883 L630.1582,81.4883 C625.1582,81.4883 625.1582,68.2441 625.1582,68.2441 C625.1582,68.2441 625.1582,55 630.1582,55 " fill="#E2E2F0" style="stroke:#181818;stroke-width:0.5;"/><path d="M678.0908,55 C673.0908,55 673.0908,68.2441 673.0908,68.2441 C673.0908,81.4883 678.0908,81.4883 678.0908,81.4883 " fill="none" style="stroke:#181818;stroke-width:0.5;"/><text fill="#000000" font-family="sans-serif" font-size="14" lengthAdjust="spacing" textLength="37.9326" x="630.1582" y="73.5352">Kafka</text><path d="M630.1582,513.1699 L678.0908,513.1699 C683.0908,513.1699 683.0908,526.4141 683.0908,526.4141 C683.0908,526.4141 683.0908,539.6582 678.0908,539.6582 L630.1582,539.6582 C625.1582,539.6582 625.1582,526.4141 625.1582,526.4141 C625.1582,526.4141 625.1582,513.1699 630.1582,513.1699 " fill="#E2E2F0" style="stroke:#181818;stroke-width:0.5;"/><path d="M678.0908,513.1699 C673.0908,513.1699 673.0908,526.4141 673.0908,526.4141 C673.0908,539.6582 678.0908,539.6582 678.0908,539.6582 " fill="none" style="stroke:#181818;stroke-width:0.5;"/><text fill="#000000" font-family="sans-serif" font-size="14" lengthAdjust="spacing" textLength="37.9326" x="630.1582" y="531.7051">Kafka</text><polygon fill="#181818" points="191.6528,108.7988,201.6528,112.7988,191.6528,116.7988,195.6528,112.7988" style="stroke:#181818;stroke-width:1.0;"/><line style="stroke:#181818;stroke-width:1.0;" x1="38.1826" x2="197.6528" y1="112.7988" y2="112.7988"/><text fill="#000000" font-family="sans-serif" font-size="13" lengthAdjust="spacing" textLength="141.4702" x="45.1826" y="108.0566">POST /api/v1/sign-up</text><polygon fill="#181818" points="340.6763,138.1094,350.6763,142.1094,340.6763,146.1094,344.6763,142.1094" style="stroke:#181818;stroke-width:1.0;"/><line style="stroke:#181818;stroke-width:1.0;" x1="203.6528" x2="346.6763" y1="142.1094" y2="142.1094"/><text fill="#000000" font-family="sans-serif" font-size="13" lengthAdjust="spacing" textLength="125.0234" x="210.6528" y="137.3672">POST /api/v1/users</text><polygon fill="#181818" points="496.0601,167.4199,506.0601,171.4199,496.0601,175.4199,500.0601,171.4199" style="stroke:#181818;stroke-width:1.0;"/><line style="stroke:#181818;stroke-width:1.0;" x1="352.6763" x2="502.0601" y1="171.4199" y2="171.4199"/><text fill="#000000" font-family="sans-serif" font-size="13" lengthAdjust="spacing" textLength="131.3838" x="359.6763" y="166.6777">check user existence</text><polygon fill="#181818" points="363.6763,181.4199,353.6763,185.4199,363.6763,189.4199,359.6763,185.4199" style="stroke:#181818;stroke-width:1.0;"/><line style="stroke:#181818;stroke-width:1.0;stroke-dasharray:2.0,2.0;" x1="357.6763" x2="507.0601" y1="185.4199" y2="185.4199"/><path d="M10,200.4199 L72.1387,200.4199 L72.1387,207.7305 L62.1387,217.7305 L10,217.7305 L10,200.4199 " fill="#EEEEEE" style="stroke:#000000;stroke-width:1.5;"/><rect fill="none" height="296.75" style="stroke:#000000;stroke-width:1.5;" width="693.0908" x="10" y="200.4199"/><text fill="#000000" font-family="sans-serif" font-size="13" font-weight="bold" lengthAdjust="spacing" textLength="17.1387" x="25" y="213.9883">alt</text><text fill="#000000" font-family="sans-serif" font-size="11" font-weight="bold" lengthAdjust="spacing" textLength="109.7476" x="87.1387" y="213.0547">[User doesn't exist]</text><polygon fill="#181818" points="496.0601,235.041,506.0601,239.041,496.0601,243.041,500.0601,239.041" style="stroke:#181818;stroke-width:1.0;"/><line style="stroke:#181818;stroke-width:1.0;" x1="352.6763" x2="502.0601" y1="239.041" y2="239.041"/><text fill="#000000" font-family="sans-serif" font-size="13" lengthAdjust="spacing" textLength="90.6636" x="359.6763" y="234.2988">save user data</text><polygon fill="#181818" points="363.6763,249.041,353.6763,253.041,363.6763,257.041,359.6763,253.041" style="stroke:#181818;stroke-width:1.0;"/><line style="stroke:#181818;stroke-width:1.0;stroke-dasharray:2.0,2.0;" x1="357.6763" x2="507.0601" y1="253.041" y2="253.041"/><polygon fill="#181818" points="571.1055,278.3516,581.1055,282.3516,571.1055,286.3516,575.1055,282.3516" style="stroke:#181818;stroke-width:1.0;"/><line style="stroke:#181818;stroke-width:1.0;" x1="352.6763" x2="577.1055" y1="282.3516" y2="282.3516"/><text fill="#000000" font-family="sans-serif" font-size="13" lengthAdjust="spacing" textLength="88.5879" x="359.6763" y="277.6094">save new user</text><polygon fill="#181818" points="363.6763,292.3516,353.6763,296.3516,363.6763,300.3516,359.6763,296.3516" style="stroke:#181818;stroke-width:1.0;"/><line style="stroke:#181818;stroke-width:1.0;stroke-dasharray:2.0,2.0;" x1="357.6763" x2="582.1055" y1="296.3516" y2="296.3516"/><path d="M293.4849,311.3516 L360.6509,311.3516 L360.6509,318.6621 L350.6509,328.6621 L293.4849,328.6621 L293.4849,311.3516 " fill="#EEEEEE" style="stroke:#000000;stroke-width:1.5;"/><rect fill="none" height="46.6211" style="stroke:#000000;stroke-width:1.5;" width="399.606" x="293.4849" y="311.3516"/><text fill="#000000" font-family="sans-serif" font-size="13" font-weight="bold" lengthAdjust="spacing" textLength="22.166" x="308.4849" y="324.9199">par</text><polygon fill="#181818" points="642.1245,345.9727,652.1245,349.9727,642.1245,353.9727,646.1245,349.9727" style="stroke:#181818;stroke-width:1.0;"/><line style="stroke:#181818;stroke-width:1.0;" x1="352.6763" x2="648.1245" y1="349.9727" y2="349.9727"/><text fill="#000000" font-family="sans-serif" font-size="13" lengthAdjust="spacing" textLength="94.9546" x="359.6763" y="345.2305">new user event</text><polygon fill="#181818" points="214.6528,382.2832,204.6528,386.2832,214.6528,390.2832,210.6528,386.2832" style="stroke:#181818;stroke-width:1.0;"/><line style="stroke:#181818;stroke-width:1.0;stroke-dasharray:2.0,2.0;" x1="208.6528" x2="351.6763" y1="386.2832" y2="386.2832"/><text fill="#000000" font-family="sans-serif" font-size="13" lengthAdjust="spacing" textLength="94.834" x="220.6528" y="381.541">HttpStatus 201</text><polygon fill="#181818" points="49.1826,411.5938,39.1826,415.5938,49.1826,419.5938,45.1826,415.5938" style="stroke:#181818;stroke-width:1.0;"/><line style="stroke:#181818;stroke-width:1.0;stroke-dasharray:2.0,2.0;" x1="43.1826" x2="202.6528" y1="415.5938" y2="415.5938"/><text fill="#000000" font-family="sans-serif" font-size="13" lengthAdjust="spacing" textLength="94.834" x="55.1826" y="410.8516">HttpStatus 201</text><line style="stroke:#000000;stroke-width:1.0;stroke-dasharray:2.0,2.0;" x1="10" x2="703.0908" y1="424.5938" y2="424.5938"/><text fill="#000000" font-family="sans-serif" font-size="11" font-weight="bold" lengthAdjust="spacing" textLength="70.9629" x="15" y="435.2285">[User exists]</text><polygon fill="#181818" points="214.6528,455.8594,204.6528,459.8594,214.6528,463.8594,210.6528,459.8594" style="stroke:#181818;stroke-width:1.0;"/><line style="stroke:#181818;stroke-width:1.0;stroke-dasharray:2.0,2.0;" x1="208.6528" x2="351.6763" y1="459.8594" y2="459.8594"/><text fill="#000000" font-family="sans-serif" font-size="13" lengthAdjust="spacing" textLength="94.834" x="220.6528" y="455.1172">HttpStatus 409</text><polygon fill="#181818" points="49.1826,485.1699,39.1826,489.1699,49.1826,493.1699,45.1826,489.1699" style="stroke:#181818;stroke-width:1.0;"/><line style="stroke:#181818;stroke-width:1.0;stroke-dasharray:2.0,2.0;" x1="43.1826" x2="202.6528" y1="489.1699" y2="489.1699"/><text fill="#000000" font-family="sans-serif" font-size="13" lengthAdjust="spacing" textLength="94.834" x="55.1826" y="484.4277">HttpStatus 409</text><!--SRC=[TP51QyCm38Nl_XKYFUmKsevTriFEWnvQw7OUYgEbni79OZbP_lqiExJTHWC6uq_lwKb1pTq0nRkdeG3q4E95zJYmqQP7nr0qo3JXd6Wp_MPINSOp6asBN5LTS3KECnHxcdNReKt4MbKZOuMUe3Xsdfk1_ANbHrsfhq0XiZr-MimIkIab7CgNs7m7nyFf3TROc_MuNNlJk3Bqgfa41_y7Yyv7jK1hTw3Ff6tg1lHjF9FJfAo5CeaLjWohrZHdIKOEP2LGT-JT0sU1WlXT_JoEbErai0IlRjVIPRobtj6KTvmB4hhLnFKkAQesK7gwwIeBsLqyW4PoEHMv-j9oMTKhStzYvFZqkDacAejQ4ltZrCOVizBTW6qUFOsSGzsnVTeyPtpFLmeasGy0]--></g></svg>