<svg xmlns="http://www.w3.org/2000/svg" xmlns:xlink="http://www.w3.org/1999/xlink" contentStyleType="text/css" height="595px" preserveAspectRatio="none" style="width:668px;height:595px;background:#FFFFFF;" version="1.1" viewBox="0 0 668 595" width="668px" zoomAndPan="magnify"><defs/><g><rect fill="#90EE90" height="296.75" style="stroke:#000000;stroke-width:1.5;" width="651.4717" x="10" y="200.4199"/><rect fill="#ADD8E6" height="46.6211" style="stroke:#000000;stroke-width:1.5;" width="388.1763" x="263.2954" y="297.3516"/><rect fill="#FF7F50" height="73.5762" style="stroke:none;stroke-width:1.0;" width="651.4717" x="10" y="423.5938"/><line style="stroke:#181818;stroke-width:0.5;stroke-dasharray:5.0,5.0;" x1="38" x2="38" y1="81.4883" y2="514.1699"/><line style="stroke:#181818;stroke-width:0.5;stroke-dasharray:5.0,5.0;" x1="202.9878" x2="202.9878" y1="81.4883" y2="514.1699"/><line style="stroke:#181818;stroke-width:0.5;stroke-dasharray:5.0,5.0;" x1="322.2954" x2="322.2954" y1="81.4883" y2="514.1699"/><line style="stroke:#181818;stroke-width:0.5;stroke-dasharray:5.0,5.0;" x1="476.8779" x2="476.8779" y1="81.4883" y2="514.1699"/><line style="stroke:#181818;stroke-width:0.5;stroke-dasharray:5.0,5.0;" x1="546.8633" x2="546.8633" y1="81.4883" y2="514.1699"/><line style="stroke:#181818;stroke-width:0.5;stroke-dasharray:5.0,5.0;" x1="611.5391" x2="611.5391" y1="81.4883" y2="514.1699"/><text fill="#000000" font-family="sans-serif" font-size="14" lengthAdjust="spacing" textLength="30.3652" x="20" y="78.5352">User</text><ellipse cx="38.1826" cy="13.5" fill="#E2E2F0" rx="8" ry="8" style="stroke:#181818;stroke-width:0.5;"/><path d="M38.1826,21.5 L38.1826,48.5 M25.1826,29.5 L51.1826,29.5 M38.1826,48.5 L25.1826,63.5 M38.1826,48.5 L51.1826,63.5 " fill="none" style="stroke:#181818;stroke-width:0.5;"/><text fill="#000000" font-family="sans-serif" font-size="14" lengthAdjust="spacing" textLength="30.3652" x="20" y="526.7051">User</text><ellipse cx="38.1826" cy="538.1582" fill="#E2E2F0" rx="8" ry="8" style="stroke:#181818;stroke-width:0.5;"/><path d="M38.1826,546.1582 L38.1826,573.1582 M25.1826,554.1582 L51.1826,554.1582 M38.1826,573.1582 L25.1826,588.1582 M38.1826,573.1582 L51.1826,588.1582 " fill="none" style="stroke:#181818;stroke-width:0.5;"/><rect fill="#E2E2F0" height="30.4883" rx="2.5" ry="2.5" style="stroke:#181818;stroke-width:0.5;" width="69.3301" x="168.9878" y="50"/><text fill="#000000" font-family="sans-serif" font-size="14" lengthAdjust="spacing" textLength="55.3301" x="175.9878" y="70.5352">gateway</text><rect fill="#E2E2F0" height="30.4883" rx="2.5" ry="2.5" style="stroke:#181818;stroke-width:0.5;" width="69.3301" x="168.9878" y="513.1699"/><text fill="#000000" font-family="sans-serif" font-size="14" lengthAdjust="spacing" textLength="55.3301" x="175.9878" y="533.7051">gateway</text><rect fill="#E2E2F0" height="30.4883" rx="2.5" ry="2.5" style="stroke:#181818;stroke-width:0.5;" width="98.3828" x="273.2954" y="50"/><text fill="#000000" font-family="sans-serif" font-size="14" lengthAdjust="spacing" textLength="84.3828" x="280.2954" y="70.5352">user-service</text><rect fill="#E2E2F0" height="30.4883" rx="2.5" ry="2.5" style="stroke:#181818;stroke-width:0.5;" width="98.3828" x="273.2954" y="513.1699"/><text fill="#000000" font-family="sans-serif" font-size="14" lengthAdjust="spacing" textLength="84.3828" x="280.2954" y="533.7051">user-service</text><text fill="#000000" font-family="sans-serif" font-size="14" lengthAdjust="spacing" textLength="59.9854" x="444.8779" y="78.5352">Keycloak</text><path d="M457.3706,37 L457.3706,61 M457.3706,49 L474.3706,49 " fill="none" style="stroke:#181818;stroke-width:0.5;"/><ellipse cx="486.3706" cy="49" fill="#E2E2F0" rx="12" ry="12" style="stroke:#181818;stroke-width:0.5;"/><text fill="#000000" font-family="sans-serif" font-size="14" lengthAdjust="spacing" textLength="59.9854" x="444.8779" y="526.7051">Keycloak</text><path d="M457.3706,533.6582 L457.3706,557.6582 M457.3706,545.6582 L474.3706,545.6582 " fill="none" style="stroke:#181818;stroke-width:0.5;"/><ellipse cx="486.3706" cy="545.6582" fill="#E2E2F0" rx="12" ry="12" style="stroke:#181818;stroke-width:0.5;"/><text fill="#000000" font-family="sans-serif" font-size="14" lengthAdjust="spacing" textLength="46.6758" x="520.8633" y="78.5352">Mongo</text><path d="M529.2012,29 C529.2012,19 547.2012,19 547.2012,19 C547.2012,19 565.2012,19 565.2012,29 L565.2012,55 C565.2012,65 547.2012,65 547.2012,65 C547.2012,65 529.2012,65 529.2012,55 L529.2012,29 " fill="#E2E2F0" style="stroke:#181818;stroke-width:1.5;"/><path d="M529.2012,29 C529.2012,39 547.2012,39 547.2012,39 C547.2012,39 565.2012,39 565.2012,29 " fill="none" style="stroke:#181818;stroke-width:1.5;"/><text fill="#000000" font-family="sans-serif" font-size="14" lengthAdjust="spacing" textLength="46.6758" x="520.8633" y="526.7051">Mongo</text><path d="M529.2012,539.6582 C529.2012,529.6582 547.2012,529.6582 547.2012,529.6582 C547.2012,529.6582 565.2012,529.6582 565.2012,539.6582 L565.2012,565.6582 C565.2012,575.6582 547.2012,575.6582 547.2012,575.6582 C547.2012,575.6582 529.2012,575.6582 529.2012,565.6582 L529.2012,539.6582 " fill="#E2E2F0" style="stroke:#181818;stroke-width:1.5;"/><path d="M529.2012,539.6582 C529.2012,549.6582 547.2012,549.6582 547.2012,549.6582 C547.2012,549.6582 565.2012,549.6582 565.2012,539.6582 " fill="none" style="stroke:#181818;stroke-width:1.5;"/><path d="M588.5391,55 L636.4717,55 C641.4717,55 641.4717,68.2441 641.4717,68.2441 C641.4717,68.2441 641.4717,81.4883 636.4717,81.4883 L588.5391,81.4883 C583.5391,81.4883 583.5391,68.2441 583.5391,68.2441 C583.5391,68.2441 583.5391,55 588.5391,55 " fill="#E2E2F0" style="stroke:#181818;stroke-width:0.5;"/><path d="M636.4717,55 C631.4717,55 631.4717,68.2441 631.4717,68.2441 C631.4717,81.4883 636.4717,81.4883 636.4717,81.4883 " fill="none" style="stroke:#181818;stroke-width:0.5;"/><text fill="#000000" font-family="sans-serif" font-size="14" lengthAdjust="spacing" textLength="37.9326" x="588.5391" y="73.5352">Kafka</text><path d="M588.5391,513.1699 L636.4717,513.1699 C641.4717,513.1699 641.4717,526.4141 641.4717,526.4141 C641.4717,526.4141 641.4717,539.6582 636.4717,539.6582 L588.5391,539.6582 C583.5391,539.6582 583.5391,526.4141 583.5391,526.4141 C583.5391,526.4141 583.5391,513.1699 588.5391,513.1699 " fill="#E2E2F0" style="stroke:#181818;stroke-width:0.5;"/><path d="M636.4717,513.1699 C631.4717,513.1699 631.4717,526.4141 631.4717,526.4141 C631.4717,539.6582 636.4717,539.6582 636.4717,539.6582 " fill="none" style="stroke:#181818;stroke-width:0.5;"/><text fill="#000000" font-family="sans-serif" font-size="14" lengthAdjust="spacing" textLength="37.9326" x="588.5391" y="531.7051">Kafka</text><polygon fill="#181818" points="191.6528,108.7988,201.6528,112.7988,191.6528,116.7988,195.6528,112.7988" style="stroke:#181818;stroke-width:1.0;"/><line style="stroke:#181818;stroke-width:1.0;" x1="38.1826" x2="197.6528" y1="112.7988" y2="112.7988"/><text fill="#000000" font-family="sans-serif" font-size="13" lengthAdjust="spacing" textLength="141.4702" x="45.1826" y="108.0566">POST /api/v1/sign-up</text><polygon fill="#181818" points="310.4868,138.1094,320.4868,142.1094,310.4868,146.1094,314.4868,142.1094" style="stroke:#181818;stroke-width:1.0;"/><line style="stroke:#181818;stroke-width:1.0;" x1="203.6528" x2="316.4868" y1="142.1094" y2="142.1094"/><text fill="#000000" font-family="sans-serif" font-size="13" lengthAdjust="spacing" textLength="88.4038" x="210.6528" y="137.3672">/api/v1/users</text><polygon fill="#181818" points="465.8706,167.4199,475.8706,171.4199,465.8706,175.4199,469.8706,171.4199" style="stroke:#181818;stroke-width:1.0;"/><line style="stroke:#181818;stroke-width:1.0;" x1="322.4868" x2="471.8706" y1="171.4199" y2="171.4199"/><text fill="#000000" font-family="sans-serif" font-size="13" lengthAdjust="spacing" textLength="131.3838" x="329.4868" y="166.6777">check user existence</text><polygon fill="#181818" points="333.4868,181.4199,323.4868,185.4199,333.4868,189.4199,329.4868,185.4199" style="stroke:#181818;stroke-width:1.0;"/><line style="stroke:#181818;stroke-width:1.0;stroke-dasharray:2.0,2.0;" x1="327.4868" x2="476.8706" y1="185.4199" y2="185.4199"/><path d="M10,200.4199 L72.1387,200.4199 L72.1387,207.7305 L62.1387,217.7305 L10,217.7305 L10,200.4199 " fill="#EEEEEE" style="stroke:#000000;stroke-width:1.5;"/><rect fill="none" height="296.75" style="stroke:#000000;stroke-width:1.5;" width="651.4717" x="10" y="200.4199"/><text fill="#000000" font-family="sans-serif" font-size="13" font-weight="bold" lengthAdjust="spacing" textLength="17.1387" x="25" y="213.9883">alt</text><text fill="#000000" font-family="sans-serif" font-size="11" font-weight="bold" lengthAdjust="spacing" textLength="109.7476" x="87.1387" y="213.0547">[User doesn't exist]</text><polygon fill="#181818" points="465.8706,235.041,475.8706,239.041,465.8706,243.041,469.8706,239.041" style="stroke:#181818;stroke-width:1.0;"/><line style="stroke:#181818;stroke-width:1.0;" x1="322.4868" x2="471.8706" y1="239.041" y2="239.041"/><text fill="#000000" font-family="sans-serif" font-size="13" lengthAdjust="spacing" textLength="90.6636" x="329.4868" y="234.2988">save user data</text><polygon fill="#181818" points="333.4868,249.041,323.4868,253.041,333.4868,257.041,329.4868,253.041" style="stroke:#181818;stroke-width:1.0;"/><line style="stroke:#181818;stroke-width:1.0;stroke-dasharray:2.0,2.0;" x1="327.4868" x2="476.8706" y1="253.041" y2="253.041"/><polygon fill="#181818" points="535.2012,278.3516,545.2012,282.3516,535.2012,286.3516,539.2012,282.3516" style="stroke:#181818;stroke-width:1.0;"/><line style="stroke:#181818;stroke-width:1.0;" x1="322.4868" x2="541.2012" y1="282.3516" y2="282.3516"/><text fill="#000000" font-family="sans-serif" font-size="13" lengthAdjust="spacing" textLength="90.6636" x="329.4868" y="277.6094">save user data</text><path d="M263.2954,297.3516 L330.4614,297.3516 L330.4614,304.6621 L320.4614,314.6621 L263.2954,314.6621 L263.2954,297.3516 " fill="#EEEEEE" style="stroke:#000000;stroke-width:1.5;"/><rect fill="none" height="46.6211" style="stroke:#000000;stroke-width:1.5;" width="388.1763" x="263.2954" y="297.3516"/><text fill="#000000" font-family="sans-serif" font-size="13" font-weight="bold" lengthAdjust="spacing" textLength="22.166" x="278.2954" y="310.9199">par</text><polygon fill="#181818" points="600.5054,331.9727,610.5054,335.9727,600.5054,339.9727,604.5054,335.9727" style="stroke:#181818;stroke-width:1.0;"/><line style="stroke:#181818;stroke-width:1.0;" x1="322.4868" x2="606.5054" y1="335.9727" y2="335.9727"/><text fill="#000000" font-family="sans-serif" font-size="13" lengthAdjust="spacing" textLength="94.9546" x="329.4868" y="331.2305">new user event</text><polygon fill="#181818" points="333.4868,352.9727,323.4868,356.9727,333.4868,360.9727,329.4868,356.9727" style="stroke:#181818;stroke-width:1.0;"/><line style="stroke:#181818;stroke-width:1.0;stroke-dasharray:2.0,2.0;" x1="327.4868" x2="546.2012" y1="356.9727" y2="356.9727"/><polygon fill="#181818" points="214.6528,382.2832,204.6528,386.2832,214.6528,390.2832,210.6528,386.2832" style="stroke:#181818;stroke-width:1.0;"/><line style="stroke:#181818;stroke-width:1.0;stroke-dasharray:2.0,2.0;" x1="208.6528" x2="321.4868" y1="386.2832" y2="386.2832"/><text fill="#000000" font-family="sans-serif" font-size="13" lengthAdjust="spacing" textLength="94.834" x="220.6528" y="381.541">HttpStatus 201</text><polygon fill="#181818" points="49.1826,411.5938,39.1826,415.5938,49.1826,419.5938,45.1826,415.5938" style="stroke:#181818;stroke-width:1.0;"/><line style="stroke:#181818;stroke-width:1.0;stroke-dasharray:2.0,2.0;" x1="43.1826" x2="202.6528" y1="415.5938" y2="415.5938"/><text fill="#000000" font-family="sans-serif" font-size="13" lengthAdjust="spacing" textLength="94.834" x="55.1826" y="410.8516">HttpStatus 201</text><line style="stroke:#000000;stroke-width:1.0;stroke-dasharray:2.0,2.0;" x1="10" x2="661.4717" y1="424.5938" y2="424.5938"/><text fill="#000000" font-family="sans-serif" font-size="11" font-weight="bold" lengthAdjust="spacing" textLength="70.9629" x="15" y="435.2285">[User exists]</text><polygon fill="#181818" points="214.6528,455.8594,204.6528,459.8594,214.6528,463.8594,210.6528,459.8594" style="stroke:#181818;stroke-width:1.0;"/><line style="stroke:#181818;stroke-width:1.0;stroke-dasharray:2.0,2.0;" x1="208.6528" x2="321.4868" y1="459.8594" y2="459.8594"/><text fill="#000000" font-family="sans-serif" font-size="13" lengthAdjust="spacing" textLength="94.834" x="220.6528" y="455.1172">HttpStatus 409</text><polygon fill="#181818" points="49.1826,485.1699,39.1826,489.1699,49.1826,493.1699,45.1826,489.1699" style="stroke:#181818;stroke-width:1.0;"/><line style="stroke:#181818;stroke-width:1.0;stroke-dasharray:2.0,2.0;" x1="43.1826" x2="202.6528" y1="489.1699" y2="489.1699"/><text fill="#000000" font-family="sans-serif" font-size="13" lengthAdjust="spacing" textLength="94.834" x="55.1826" y="484.4277">HttpStatus 409</text><!--SRC=[TP5DQyCm38Rl_XKYFUmKsevTbiFEWr8sw7OUYgEvni7EOZjP_ltyHREl6Wn6Z_I-aepScH6gLqjZ1MZ1XmSRS7IIom6rWqgWencNHCNyayNiEjn9SYhbh3LUTpWkK1reuRr1bOXIh4E7BLg2wcYqC1U_jwvb7vvy00TyLvZpuuknoA5-2CuDF3-TNc2BWznE-wsLGjT-O6AEsDlcGcA93OKnhbG3_4nS9IEWJsaTQKvCAQXJ7SFUmQQNukp4IAGXhW8wGrRVk5p089nLp-94MIuEbE2gjgQMoVxD3qiidctlAOM-USJ96z0qbwOdqha7qbqnIDA_FSkQ7fqRJWvT2Dtkzed69PMM_d3gmuzik1cnpxEdcRFg5TcxtNt6rtHZGcps2m00]--></g></svg>