<svg xmlns="http://www.w3.org/2000/svg" xmlns:xlink="http://www.w3.org/1999/xlink" contentStyleType="text/css" height="668px" preserveAspectRatio="none" style="width:679px;height:668px;background:#FFFFFF;" version="1.1" viewBox="0 0 679 668" width="679px" zoomAndPan="magnify"><defs/><g><rect fill="#90EE90" height="399.5918" style="stroke:#000000;stroke-width:1.5;" width="662.1421" x="10" y="171.1094"/><rect fill="#90EE90" height="208.1289" style="stroke:#000000;stroke-width:1.5;" width="642.1421" x="20" y="267.041"/><rect fill="#FF7F50" height="73.5762" style="stroke:none;stroke-width:1.0;" width="642.1421" x="20" y="401.5938"/><rect fill="#FF7F50" height="44.2656" style="stroke:none;stroke-width:1.0;" width="662.1421" x="10" y="482.1699"/><rect fill="#FF7F50" height="44.2656" style="stroke:none;stroke-width:1.0;" width="662.1421" x="10" y="526.4355"/><line style="stroke:#181818;stroke-width:0.5;stroke-dasharray:5.0,5.0;" x1="79" x2="79" y1="81.4883" y2="587.7012"/><line style="stroke:#181818;stroke-width:0.5;stroke-dasharray:5.0,5.0;" x1="285.0874" x2="285.0874" y1="81.4883" y2="587.7012"/><line style="stroke:#181818;stroke-width:0.5;stroke-dasharray:5.0,5.0;" x1="491.4531" x2="491.4531" y1="81.4883" y2="587.7012"/><line style="stroke:#181818;stroke-width:0.5;stroke-dasharray:5.0,5.0;" x1="618.1567" x2="618.1567" y1="81.4883" y2="587.7012"/><text fill="#000000" font-family="sans-serif" font-size="14" lengthAdjust="spacing" textLength="93.7207" x="30" y="78.5352">Administrator</text><ellipse cx="79.8604" cy="13.5" fill="#E2E2F0" rx="8" ry="8" style="stroke:#181818;stroke-width:0.5;"/><path d="M79.8604,21.5 L79.8604,48.5 M66.8604,29.5 L92.8604,29.5 M79.8604,48.5 L66.8604,63.5 M79.8604,48.5 L92.8604,63.5 " fill="none" style="stroke:#181818;stroke-width:0.5;"/><text fill="#000000" font-family="sans-serif" font-size="14" lengthAdjust="spacing" textLength="93.7207" x="30" y="600.2363">Administrator</text><ellipse cx="79.8604" cy="611.6895" fill="#E2E2F0" rx="8" ry="8" style="stroke:#181818;stroke-width:0.5;"/><path d="M79.8604,619.6895 L79.8604,646.6895 M66.8604,627.6895 L92.8604,627.6895 M79.8604,646.6895 L66.8604,661.6895 M79.8604,646.6895 L92.8604,661.6895 " fill="none" style="stroke:#181818;stroke-width:0.5;"/><rect fill="#E2E2F0" height="30.4883" rx="2.5" ry="2.5" style="stroke:#181818;stroke-width:0.5;" width="69.3301" x="251.0874" y="50"/><text fill="#000000" font-family="sans-serif" font-size="14" lengthAdjust="spacing" textLength="55.3301" x="258.0874" y="70.5352">gateway</text><rect fill="#E2E2F0" height="30.4883" rx="2.5" ry="2.5" style="stroke:#181818;stroke-width:0.5;" width="69.3301" x="251.0874" y="586.7012"/><text fill="#000000" font-family="sans-serif" font-size="14" lengthAdjust="spacing" textLength="55.3301" x="258.0874" y="607.2363">gateway</text><rect fill="#E2E2F0" height="30.4883" rx="2.5" ry="2.5" style="stroke:#181818;stroke-width:0.5;" width="98.3828" x="442.4531" y="50"/><text fill="#000000" font-family="sans-serif" font-size="14" lengthAdjust="spacing" textLength="84.3828" x="449.4531" y="70.5352">user-service</text><rect fill="#E2E2F0" height="30.4883" rx="2.5" ry="2.5" style="stroke:#181818;stroke-width:0.5;" width="98.3828" x="442.4531" y="586.7012"/><text fill="#000000" font-family="sans-serif" font-size="14" lengthAdjust="spacing" textLength="84.3828" x="449.4531" y="607.2363">user-service</text><text fill="#000000" font-family="sans-serif" font-size="14" lengthAdjust="spacing" textLength="59.9854" x="586.1567" y="78.5352">Keycloak</text><path d="M598.6494,37 L598.6494,61 M598.6494,49 L615.6494,49 " fill="none" style="stroke:#181818;stroke-width:0.5;"/><ellipse cx="627.6494" cy="49" fill="#E2E2F0" rx="12" ry="12" style="stroke:#181818;stroke-width:0.5;"/><text fill="#000000" font-family="sans-serif" font-size="14" lengthAdjust="spacing" textLength="59.9854" x="586.1567" y="600.2363">Keycloak</text><path d="M598.6494,607.1895 L598.6494,631.1895 M598.6494,619.1895 L615.6494,619.1895 " fill="none" style="stroke:#181818;stroke-width:0.5;"/><ellipse cx="627.6494" cy="619.1895" fill="#E2E2F0" rx="12" ry="12" style="stroke:#181818;stroke-width:0.5;"/><polygon fill="#181818" points="273.7524,108.7988,283.7524,112.7988,273.7524,116.7988,277.7524,112.7988" style="stroke:#181818;stroke-width:1.0;"/><line style="stroke:#181818;stroke-width:1.0;" x1="79.8604" x2="279.7524" y1="112.7988" y2="112.7988"/><text fill="#000000" font-family="sans-serif" font-size="13" lengthAdjust="spacing" textLength="181.8921" x="86.8604" y="108.0566">PUT /api/v1/users/{id}/roles</text><polygon fill="#181818" points="607.1494,138.1094,617.1494,142.1094,607.1494,146.1094,611.1494,142.1094" style="stroke:#181818;stroke-width:1.0;"/><line style="stroke:#181818;stroke-width:1.0;" x1="285.7524" x2="613.1494" y1="142.1094" y2="142.1094"/><text fill="#000000" font-family="sans-serif" font-size="13" lengthAdjust="spacing" textLength="57.5669" x="292.7524" y="137.3672">verify jwt</text><polygon fill="#181818" points="296.7524,152.1094,286.7524,156.1094,296.7524,160.1094,292.7524,156.1094" style="stroke:#181818;stroke-width:1.0;"/><line style="stroke:#181818;stroke-width:1.0;stroke-dasharray:2.0,2.0;" x1="290.7524" x2="618.1494" y1="156.1094" y2="156.1094"/><path d="M10,171.1094 L72.1387,171.1094 L72.1387,178.4199 L62.1387,188.4199 L10,188.4199 L10,171.1094 " fill="#EEEEEE" style="stroke:#000000;stroke-width:1.5;"/><rect fill="none" height="399.5918" style="stroke:#000000;stroke-width:1.5;" width="662.1421" x="10" y="171.1094"/><text fill="#000000" font-family="sans-serif" font-size="13" font-weight="bold" lengthAdjust="spacing" textLength="17.1387" x="25" y="184.6777">alt</text><text fill="#000000" font-family="sans-serif" font-size="11" font-weight="bold" lengthAdjust="spacing" textLength="70.2485" x="87.1387" y="183.7441">[jwt is valid]</text><polygon fill="#181818" points="479.6445,205.7305,489.6445,209.7305,479.6445,213.7305,483.6445,209.7305" style="stroke:#181818;stroke-width:1.0;"/><line style="stroke:#181818;stroke-width:1.0;" x1="285.7524" x2="485.6445" y1="209.7305" y2="209.7305"/><text fill="#000000" font-family="sans-serif" font-size="13" lengthAdjust="spacing" textLength="181.8921" x="292.7524" y="204.9883">PUT /api/v1/users/{id}/roles</text><line style="stroke:#181818;stroke-width:1.0;" x1="491.6445" x2="533.6445" y1="239.041" y2="239.041"/><line style="stroke:#181818;stroke-width:1.0;" x1="533.6445" x2="533.6445" y1="239.041" y2="252.041"/><line style="stroke:#181818;stroke-width:1.0;" x1="492.6445" x2="533.6445" y1="252.041" y2="252.041"/><polygon fill="#181818" points="502.6445,248.041,492.6445,252.041,502.6445,256.041,498.6445,252.041" style="stroke:#181818;stroke-width:1.0;"/><text fill="#000000" font-family="sans-serif" font-size="13" lengthAdjust="spacing" textLength="87.5913" x="498.6445" y="234.2988">check jwt role</text><path d="M20,267.041 L82.1387,267.041 L82.1387,274.3516 L72.1387,284.3516 L20,284.3516 L20,267.041 " fill="#EEEEEE" style="stroke:#000000;stroke-width:1.5;"/><rect fill="none" height="208.1289" style="stroke:#000000;stroke-width:1.5;" width="642.1421" x="20" y="267.041"/><text fill="#000000" font-family="sans-serif" font-size="13" font-weight="bold" lengthAdjust="spacing" textLength="17.1387" x="35" y="280.6094">alt</text><text fill="#000000" font-family="sans-serif" font-size="11" font-weight="bold" lengthAdjust="spacing" textLength="144.6382" x="97.1387" y="279.6758">[Actor is "Administrator"]</text><polygon fill="#181818" points="607.1494,301.6621,617.1494,305.6621,607.1494,309.6621,611.1494,305.6621" style="stroke:#181818;stroke-width:1.0;"/><line style="stroke:#181818;stroke-width:1.0;" x1="491.6445" x2="613.1494" y1="305.6621" y2="305.6621"/><text fill="#000000" font-family="sans-serif" font-size="13" lengthAdjust="spacing" textLength="103.5049" x="498.6445" y="300.9199">update user role</text><polygon fill="#181818" points="502.6445,330.9727,492.6445,334.9727,502.6445,338.9727,498.6445,334.9727" style="stroke:#181818;stroke-width:1.0;"/><line style="stroke:#181818;stroke-width:1.0;stroke-dasharray:2.0,2.0;" x1="496.6445" x2="618.1494" y1="334.9727" y2="334.9727"/><text fill="#000000" font-family="sans-serif" font-size="13" lengthAdjust="spacing" textLength="94.834" x="508.6445" y="330.2305">HttpStatus 200</text><polygon fill="#181818" points="296.7524,360.2832,286.7524,364.2832,296.7524,368.2832,292.7524,364.2832" style="stroke:#181818;stroke-width:1.0;"/><line style="stroke:#181818;stroke-width:1.0;stroke-dasharray:2.0,2.0;" x1="290.7524" x2="490.6445" y1="364.2832" y2="364.2832"/><text fill="#000000" font-family="sans-serif" font-size="13" lengthAdjust="spacing" textLength="94.834" x="302.7524" y="359.541">HttpStatus 200</text><polygon fill="#181818" points="90.8604,389.5938,80.8604,393.5938,90.8604,397.5938,86.8604,393.5938" style="stroke:#181818;stroke-width:1.0;"/><line style="stroke:#181818;stroke-width:1.0;stroke-dasharray:2.0,2.0;" x1="84.8604" x2="284.7524" y1="393.5938" y2="393.5938"/><text fill="#000000" font-family="sans-serif" font-size="13" lengthAdjust="spacing" textLength="94.834" x="96.8604" y="388.8516">HttpStatus 200</text><line style="stroke:#000000;stroke-width:1.0;stroke-dasharray:2.0,2.0;" x1="20" x2="662.1421" y1="402.5938" y2="402.5938"/><text fill="#000000" font-family="sans-serif" font-size="11" font-weight="bold" lengthAdjust="spacing" textLength="166.9712" x="25" y="413.2285">[Actor is not "Administrator"]</text><polygon fill="#181818" points="296.7524,433.8594,286.7524,437.8594,296.7524,441.8594,292.7524,437.8594" style="stroke:#181818;stroke-width:1.0;"/><line style="stroke:#181818;stroke-width:1.0;stroke-dasharray:2.0,2.0;" x1="290.7524" x2="490.6445" y1="437.8594" y2="437.8594"/><text fill="#000000" font-family="sans-serif" font-size="13" lengthAdjust="spacing" textLength="94.834" x="302.7524" y="433.1172">HttpStatus 403</text><polygon fill="#181818" points="90.8604,463.1699,80.8604,467.1699,90.8604,471.1699,86.8604,467.1699" style="stroke:#181818;stroke-width:1.0;"/><line style="stroke:#181818;stroke-width:1.0;stroke-dasharray:2.0,2.0;" x1="84.8604" x2="284.7524" y1="467.1699" y2="467.1699"/><text fill="#000000" font-family="sans-serif" font-size="13" lengthAdjust="spacing" textLength="94.834" x="96.8604" y="462.4277">HttpStatus 403</text><line style="stroke:#000000;stroke-width:1.0;stroke-dasharray:2.0,2.0;" x1="10" x2="672.1421" y1="483.1699" y2="483.1699"/><text fill="#000000" font-family="sans-serif" font-size="11" font-weight="bold" lengthAdjust="spacing" textLength="80.9155" x="15" y="493.8047">[jwt is absent]</text><polygon fill="#181818" points="90.8604,514.4355,80.8604,518.4355,90.8604,522.4355,86.8604,518.4355" style="stroke:#181818;stroke-width:1.0;"/><line style="stroke:#181818;stroke-width:1.0;stroke-dasharray:2.0,2.0;" x1="84.8604" x2="284.7524" y1="518.4355" y2="518.4355"/><text fill="#000000" font-family="sans-serif" font-size="13" lengthAdjust="spacing" textLength="94.834" x="96.8604" y="513.6934">HttpStatus 401</text><line style="stroke:#000000;stroke-width:1.0;stroke-dasharray:2.0,2.0;" x1="10" x2="672.1421" y1="527.4355" y2="527.4355"/><text fill="#000000" font-family="sans-serif" font-size="11" font-weight="bold" lengthAdjust="spacing" textLength="92.5815" x="15" y="538.0703">[jwt is not valid]</text><polygon fill="#181818" points="90.8604,558.7012,80.8604,562.7012,90.8604,566.7012,86.8604,562.7012" style="stroke:#181818;stroke-width:1.0;"/><line style="stroke:#181818;stroke-width:1.0;stroke-dasharray:2.0,2.0;" x1="84.8604" x2="284.7524" y1="562.7012" y2="562.7012"/><text fill="#000000" font-family="sans-serif" font-size="13" lengthAdjust="spacing" textLength="94.834" x="96.8604" y="557.959">HttpStatus 403</text><!--SRC=[XL51JiCm4Bpx5QlqNAK5JZqWzOR41GbumDPPKcFZHFOcKOJuErwJggIqr98FzipEZCUekGbGRAiFuqtaWEbO04P0kL4j1ZRQjEWPYXgP1XmpN0zph8iKbcdtHbCcT57jcivN64Oe7cdKha6R4MkLokgml4yw6tXwVO4IMrFswr9qOlbfggyoD8wYgWUXMRk1de9v6-5zO6KjBFEmGiUmSARUSns8lA1W8lJeJAKWhP_vBbwn4MeN3rIz9sspbg0PF3NQvkAIrKbtcNnKa-1TMwNcG3oFUhAcPuZZ0tFxpCXfwcQrcebCBLrWoFiI8nTwbaGk4Ynq4z0TG_k6_mt-r_DkTNlTyq0YNwdVljElu2wIPtL5OdrkL0BFF_LY037_1W00]--></g></svg>