<svg xmlns="http://www.w3.org/2000/svg" xmlns:xlink="http://www.w3.org/1999/xlink" contentStyleType="text/css" height="506px" preserveAspectRatio="none" style="width:741px;height:506px;background:#FFFFFF;" version="1.1" viewBox="0 0 741 506" width="741px" zoomAndPan="magnify"><defs/><g><rect fill="#90EE90" height="237.084" style="stroke:#000000;stroke-width:1.5;" width="724.6753" x="10" y="171.1094"/><rect fill="#FF7F50" height="44.2656" style="stroke:none;stroke-width:1.0;" width="724.6753" x="10" y="319.6621"/><rect fill="#FF7F50" height="44.2656" style="stroke:none;stroke-width:1.0;" width="724.6753" x="10" y="363.9277"/><line style="stroke:#181818;stroke-width:0.5;stroke-dasharray:5.0,5.0;" x1="38" x2="38" y1="81.4883" y2="425.1934"/><line style="stroke:#181818;stroke-width:0.5;stroke-dasharray:5.0,5.0;" x1="303.7378" x2="303.7378" y1="81.4883" y2="425.1934"/><line style="stroke:#181818;stroke-width:0.5;stroke-dasharray:5.0,5.0;" x1="384.9771" x2="384.9771" y1="81.4883" y2="425.1934"/><line style="stroke:#181818;stroke-width:0.5;stroke-dasharray:5.0,5.0;" x1="569.9189" x2="569.9189" y1="81.4883" y2="425.1934"/><line style="stroke:#181818;stroke-width:0.5;stroke-dasharray:5.0,5.0;" x1="697.9995" x2="697.9995" y1="81.4883" y2="425.1934"/><text fill="#000000" font-family="sans-serif" font-size="14" lengthAdjust="spacing" textLength="30.3652" x="20" y="78.5352">User</text><ellipse cx="38.1826" cy="13.5" fill="#E2E2F0" rx="8" ry="8" style="stroke:#181818;stroke-width:0.5;"/><path d="M38.1826,21.5 L38.1826,48.5 M25.1826,29.5 L51.1826,29.5 M38.1826,48.5 L25.1826,63.5 M38.1826,48.5 L51.1826,63.5 " fill="none" style="stroke:#181818;stroke-width:0.5;"/><text fill="#000000" font-family="sans-serif" font-size="14" lengthAdjust="spacing" textLength="30.3652" x="20" y="437.7285">User</text><ellipse cx="38.1826" cy="449.1816" fill="#E2E2F0" rx="8" ry="8" style="stroke:#181818;stroke-width:0.5;"/><path d="M38.1826,457.1816 L38.1826,484.1816 M25.1826,465.1816 L51.1826,465.1816 M38.1826,484.1816 L25.1826,499.1816 M38.1826,484.1816 L51.1826,499.1816 " fill="none" style="stroke:#181818;stroke-width:0.5;"/><rect fill="#E2E2F0" height="30.4883" rx="2.5" ry="2.5" style="stroke:#181818;stroke-width:0.5;" width="69.3301" x="269.7378" y="50"/><text fill="#000000" font-family="sans-serif" font-size="14" lengthAdjust="spacing" textLength="55.3301" x="276.7378" y="70.5352">gateway</text><rect fill="#E2E2F0" height="30.4883" rx="2.5" ry="2.5" style="stroke:#181818;stroke-width:0.5;" width="69.3301" x="269.7378" y="424.1934"/><text fill="#000000" font-family="sans-serif" font-size="14" lengthAdjust="spacing" textLength="55.3301" x="276.7378" y="444.7285">gateway</text><text fill="#000000" font-family="sans-serif" font-size="14" lengthAdjust="spacing" textLength="59.9854" x="352.9771" y="78.5352">Keycloak</text><path d="M365.4697,37 L365.4697,61 M365.4697,49 L382.4697,49 " fill="none" style="stroke:#181818;stroke-width:0.5;"/><ellipse cx="394.4697" cy="49" fill="#E2E2F0" rx="12" ry="12" style="stroke:#181818;stroke-width:0.5;"/><text fill="#000000" font-family="sans-serif" font-size="14" lengthAdjust="spacing" textLength="59.9854" x="352.9771" y="437.7285">Keycloak</text><path d="M365.4697,444.6816 L365.4697,468.6816 M365.4697,456.6816 L382.4697,456.6816 " fill="none" style="stroke:#181818;stroke-width:0.5;"/><ellipse cx="394.4697" cy="456.6816" fill="#E2E2F0" rx="12" ry="12" style="stroke:#181818;stroke-width:0.5;"/><rect fill="#E2E2F0" height="30.4883" rx="2.5" ry="2.5" style="stroke:#181818;stroke-width:0.5;" width="57.4082" x="541.9189" y="50"/><text fill="#000000" font-family="sans-serif" font-size="14" lengthAdjust="spacing" textLength="43.4082" x="548.9189" y="70.5352">review</text><rect fill="#E2E2F0" height="30.4883" rx="2.5" ry="2.5" style="stroke:#181818;stroke-width:0.5;" width="57.4082" x="541.9189" y="424.1934"/><text fill="#000000" font-family="sans-serif" font-size="14" lengthAdjust="spacing" textLength="43.4082" x="548.9189" y="444.7285">review</text><text fill="#000000" font-family="sans-serif" font-size="14" lengthAdjust="spacing" textLength="46.6758" x="671.9995" y="78.5352">Mongo</text><path d="M680.3374,29 C680.3374,19 698.3374,19 698.3374,19 C698.3374,19 716.3374,19 716.3374,29 L716.3374,55 C716.3374,65 698.3374,65 698.3374,65 C698.3374,65 680.3374,65 680.3374,55 L680.3374,29 " fill="#E2E2F0" style="stroke:#181818;stroke-width:1.5;"/><path d="M680.3374,29 C680.3374,39 698.3374,39 698.3374,39 C698.3374,39 716.3374,39 716.3374,29 " fill="none" style="stroke:#181818;stroke-width:1.5;"/><text fill="#000000" font-family="sans-serif" font-size="14" lengthAdjust="spacing" textLength="46.6758" x="671.9995" y="437.7285">Mongo</text><path d="M680.3374,450.6816 C680.3374,440.6816 698.3374,440.6816 698.3374,440.6816 C698.3374,440.6816 716.3374,440.6816 716.3374,450.6816 L716.3374,476.6816 C716.3374,486.6816 698.3374,486.6816 698.3374,486.6816 C698.3374,486.6816 680.3374,486.6816 680.3374,476.6816 L680.3374,450.6816 " fill="#E2E2F0" style="stroke:#181818;stroke-width:1.5;"/><path d="M680.3374,450.6816 C680.3374,460.6816 698.3374,460.6816 698.3374,460.6816 C698.3374,460.6816 716.3374,460.6816 716.3374,450.6816 " fill="none" style="stroke:#181818;stroke-width:1.5;"/><polygon fill="#181818" points="292.4028,108.7988,302.4028,112.7988,292.4028,116.7988,296.4028,112.7988" style="stroke:#181818;stroke-width:1.0;"/><line style="stroke:#181818;stroke-width:1.0;" x1="38.1826" x2="298.4028" y1="112.7988" y2="112.7988"/><text fill="#000000" font-family="sans-serif" font-size="13" lengthAdjust="spacing" textLength="242.2202" x="45.1826" y="108.0566">POST /api/v1/books/{bookId}/reviews</text><polygon fill="#181818" points="373.9697,138.1094,383.9697,142.1094,373.9697,146.1094,377.9697,142.1094" style="stroke:#181818;stroke-width:1.0;"/><line style="stroke:#181818;stroke-width:1.0;" x1="304.4028" x2="379.9697" y1="142.1094" y2="142.1094"/><text fill="#000000" font-family="sans-serif" font-size="13" lengthAdjust="spacing" textLength="57.5669" x="311.4028" y="137.3672">verify jwt</text><polygon fill="#181818" points="315.4028,152.1094,305.4028,156.1094,315.4028,160.1094,311.4028,156.1094" style="stroke:#181818;stroke-width:1.0;"/><line style="stroke:#181818;stroke-width:1.0;stroke-dasharray:2.0,2.0;" x1="309.4028" x2="384.9697" y1="156.1094" y2="156.1094"/><path d="M10,171.1094 L72.1387,171.1094 L72.1387,178.4199 L62.1387,188.4199 L10,188.4199 L10,171.1094 " fill="#EEEEEE" style="stroke:#000000;stroke-width:1.5;"/><rect fill="none" height="237.084" style="stroke:#000000;stroke-width:1.5;" width="724.6753" x="10" y="171.1094"/><text fill="#000000" font-family="sans-serif" font-size="13" font-weight="bold" lengthAdjust="spacing" textLength="17.1387" x="25" y="184.6777">alt</text><text fill="#000000" font-family="sans-serif" font-size="11" font-weight="bold" lengthAdjust="spacing" textLength="70.2485" x="87.1387" y="183.7441">[jwt is valid]</text><polygon fill="#181818" points="558.623,205.7305,568.623,209.7305,558.623,213.7305,562.623,209.7305" style="stroke:#181818;stroke-width:1.0;"/><line style="stroke:#181818;stroke-width:1.0;" x1="304.4028" x2="564.623" y1="209.7305" y2="209.7305"/><text fill="#000000" font-family="sans-serif" font-size="13" lengthAdjust="spacing" textLength="242.2202" x="311.4028" y="204.9883">POST /api/v1/books/{bookId}/reviews</text><polygon fill="#181818" points="686.3374,235.041,696.3374,239.041,686.3374,243.041,690.3374,239.041" style="stroke:#181818;stroke-width:1.0;"/><line style="stroke:#181818;stroke-width:1.0;" x1="570.623" x2="692.3374" y1="239.041" y2="239.041"/><text fill="#000000" font-family="sans-serif" font-size="13" lengthAdjust="spacing" textLength="103.7144" x="577.623" y="234.2988">save review data</text><polygon fill="#181818" points="581.623,249.041,571.623,253.041,581.623,257.041,577.623,253.041" style="stroke:#181818;stroke-width:1.0;"/><line style="stroke:#181818;stroke-width:1.0;stroke-dasharray:2.0,2.0;" x1="575.623" x2="697.3374" y1="253.041" y2="253.041"/><polygon fill="#181818" points="315.4028,278.3516,305.4028,282.3516,315.4028,286.3516,311.4028,282.3516" style="stroke:#181818;stroke-width:1.0;"/><line style="stroke:#181818;stroke-width:1.0;stroke-dasharray:2.0,2.0;" x1="309.4028" x2="569.623" y1="282.3516" y2="282.3516"/><text fill="#000000" font-family="sans-serif" font-size="13" lengthAdjust="spacing" textLength="94.834" x="321.4028" y="277.6094">HttpStatus 201</text><polygon fill="#181818" points="49.1826,307.6621,39.1826,311.6621,49.1826,315.6621,45.1826,311.6621" style="stroke:#181818;stroke-width:1.0;"/><line style="stroke:#181818;stroke-width:1.0;stroke-dasharray:2.0,2.0;" x1="43.1826" x2="303.4028" y1="311.6621" y2="311.6621"/><text fill="#000000" font-family="sans-serif" font-size="13" lengthAdjust="spacing" textLength="94.834" x="55.1826" y="306.9199">HttpStatus 201</text><line style="stroke:#000000;stroke-width:1.0;stroke-dasharray:2.0,2.0;" x1="10" x2="734.6753" y1="320.6621" y2="320.6621"/><text fill="#000000" font-family="sans-serif" font-size="11" font-weight="bold" lengthAdjust="spacing" textLength="80.9155" x="15" y="331.2969">[jwt is absent]</text><polygon fill="#181818" points="49.1826,351.9277,39.1826,355.9277,49.1826,359.9277,45.1826,355.9277" style="stroke:#181818;stroke-width:1.0;"/><line style="stroke:#181818;stroke-width:1.0;stroke-dasharray:2.0,2.0;" x1="43.1826" x2="303.4028" y1="355.9277" y2="355.9277"/><text fill="#000000" font-family="sans-serif" font-size="13" lengthAdjust="spacing" textLength="94.834" x="55.1826" y="351.1855">HttpStatus 401</text><line style="stroke:#000000;stroke-width:1.0;stroke-dasharray:2.0,2.0;" x1="10" x2="734.6753" y1="364.9277" y2="364.9277"/><text fill="#000000" font-family="sans-serif" font-size="11" font-weight="bold" lengthAdjust="spacing" textLength="92.5815" x="15" y="375.5625">[jwt is not valid]</text><polygon fill="#181818" points="49.1826,396.1934,39.1826,400.1934,49.1826,404.1934,45.1826,400.1934" style="stroke:#181818;stroke-width:1.0;"/><line style="stroke:#181818;stroke-width:1.0;stroke-dasharray:2.0,2.0;" x1="43.1826" x2="303.4028" y1="400.1934" y2="400.1934"/><text fill="#000000" font-family="sans-serif" font-size="13" lengthAdjust="spacing" textLength="94.834" x="55.1826" y="395.4512">HttpStatus 403</text><!--SRC=[ZP3BJiCm44NtynMZT5s55bPPi0OXHAN21qoImRWsTcHF4aM8VoTsMiIZGdZZAr-VEmzgn0SidYA70YbYFmleA8XkT4TEi50aFDAKNJL2xNlNKfYmkEEfiPvCTepvJWKUD8_PMYIq95HJP2pklLC-Mwz90QIYkBwUuolSFUmViQHEbyEchBqtiNnBrstxNYv94TIOVXjJuS11Fqzu60MCmNNE0BA2AwlLYwZ0x9ABEk90LhU0yrdu9Ur_5HErw4JcjYkCDF3fDKsNVsKlTtAS-ojwdF56fDiBIHznUx7vR6bsqoP- -MpdhQqQ7yYUPg4wifC_oQlpfFFoOnFduKjWry87]--></g></svg>