<svg xmlns="http://www.w3.org/2000/svg" xmlns:xlink="http://www.w3.org/1999/xlink" contentStyleType="text/css" height="685px" preserveAspectRatio="none" style="width:869px;height:685px;background:#FFFFFF;" version="1.1" viewBox="0 0 869 685" width="869px" zoomAndPan="magnify"><defs/><g><rect fill="#90EE90" height="415.9023" style="stroke:#000000;stroke-width:1.5;" width="852.4399" x="10" y="171.1094"/><rect fill="#90EE90" height="208.1289" style="stroke:#000000;stroke-width:1.5;" width="832.4399" x="20" y="283.3516"/><rect fill="#FF7F50" height="73.5762" style="stroke:none;stroke-width:1.0;" width="832.4399" x="20" y="417.9043"/><rect fill="#FF7F50" height="44.2656" style="stroke:none;stroke-width:1.0;" width="852.4399" x="10" y="498.4805"/><rect fill="#FF7F50" height="44.2656" style="stroke:none;stroke-width:1.0;" width="852.4399" x="10" y="542.7461"/><line style="stroke:#181818;stroke-width:0.5;stroke-dasharray:5.0,5.0;" x1="48" x2="48" y1="81.4883" y2="604.0117"/><line style="stroke:#181818;stroke-width:0.5;stroke-dasharray:5.0,5.0;" x1="331.8604" x2="331.8604" y1="81.4883" y2="604.0117"/><line style="stroke:#181818;stroke-width:0.5;stroke-dasharray:5.0,5.0;" x1="413.0996" x2="413.0996" y1="81.4883" y2="604.0117"/><line style="stroke:#181818;stroke-width:0.5;stroke-dasharray:5.0,5.0;" x1="616.2031" x2="616.2031" y1="81.4883" y2="604.0117"/><line style="stroke:#181818;stroke-width:0.5;stroke-dasharray:5.0,5.0;" x1="751.3345" x2="751.3345" y1="81.4883" y2="604.0117"/><line style="stroke:#181818;stroke-width:0.5;stroke-dasharray:5.0,5.0;" x1="817.4399" x2="817.4399" y1="81.4883" y2="604.0117"/><text fill="#000000" font-family="sans-serif" font-size="14" lengthAdjust="spacing" textLength="30.3652" x="30" y="78.5352">User</text><ellipse cx="48.1826" cy="13.5" fill="#E2E2F0" rx="8" ry="8" style="stroke:#181818;stroke-width:0.5;"/><path d="M48.1826,21.5 L48.1826,48.5 M35.1826,29.5 L61.1826,29.5 M48.1826,48.5 L35.1826,63.5 M48.1826,48.5 L61.1826,63.5 " fill="none" style="stroke:#181818;stroke-width:0.5;"/><text fill="#000000" font-family="sans-serif" font-size="14" lengthAdjust="spacing" textLength="30.3652" x="30" y="616.5469">User</text><ellipse cx="48.1826" cy="628" fill="#E2E2F0" rx="8" ry="8" style="stroke:#181818;stroke-width:0.5;"/><path d="M48.1826,636 L48.1826,663 M35.1826,644 L61.1826,644 M48.1826,663 L35.1826,678 M48.1826,663 L61.1826,678 " fill="none" style="stroke:#181818;stroke-width:0.5;"/><rect fill="#E2E2F0" height="30.4883" rx="2.5" ry="2.5" style="stroke:#181818;stroke-width:0.5;" width="69.3301" x="297.8604" y="50"/><text fill="#000000" font-family="sans-serif" font-size="14" lengthAdjust="spacing" textLength="55.3301" x="304.8604" y="70.5352">gateway</text><rect fill="#E2E2F0" height="30.4883" rx="2.5" ry="2.5" style="stroke:#181818;stroke-width:0.5;" width="69.3301" x="297.8604" y="603.0117"/><text fill="#000000" font-family="sans-serif" font-size="14" lengthAdjust="spacing" textLength="55.3301" x="304.8604" y="623.5469">gateway</text><text fill="#000000" font-family="sans-serif" font-size="14" lengthAdjust="spacing" textLength="59.9854" x="381.0996" y="78.5352">Keycloak</text><path d="M393.5923,37 L393.5923,61 M393.5923,49 L410.5923,49 " fill="none" style="stroke:#181818;stroke-width:0.5;"/><ellipse cx="422.5923" cy="49" fill="#E2E2F0" rx="12" ry="12" style="stroke:#181818;stroke-width:0.5;"/><text fill="#000000" font-family="sans-serif" font-size="14" lengthAdjust="spacing" textLength="59.9854" x="381.0996" y="616.5469">Keycloak</text><path d="M393.5923,623.5 L393.5923,647.5 M393.5923,635.5 L410.5923,635.5 " fill="none" style="stroke:#181818;stroke-width:0.5;"/><ellipse cx="422.5923" cy="635.5" fill="#E2E2F0" rx="12" ry="12" style="stroke:#181818;stroke-width:0.5;"/><rect fill="#E2E2F0" height="30.4883" rx="2.5" ry="2.5" style="stroke:#181818;stroke-width:0.5;" width="55.3301" x="589.2031" y="50"/><text fill="#000000" font-family="sans-serif" font-size="14" lengthAdjust="spacing" textLength="41.3301" x="596.2031" y="70.5352">books</text><rect fill="#E2E2F0" height="30.4883" rx="2.5" ry="2.5" style="stroke:#181818;stroke-width:0.5;" width="55.3301" x="589.2031" y="603.0117"/><text fill="#000000" font-family="sans-serif" font-size="14" lengthAdjust="spacing" textLength="41.3301" x="596.2031" y="623.5469">books</text><text fill="#000000" font-family="sans-serif" font-size="14" lengthAdjust="spacing" textLength="58.1055" x="719.3345" y="78.5352">Postgres</text><path d="M733.3872,29 C733.3872,19 751.3872,19 751.3872,19 C751.3872,19 769.3872,19 769.3872,29 L769.3872,55 C769.3872,65 751.3872,65 751.3872,65 C751.3872,65 733.3872,65 733.3872,55 L733.3872,29 " fill="#E2E2F0" style="stroke:#181818;stroke-width:1.5;"/><path d="M733.3872,29 C733.3872,39 751.3872,39 751.3872,39 C751.3872,39 769.3872,39 769.3872,29 " fill="none" style="stroke:#181818;stroke-width:1.5;"/><text fill="#000000" font-family="sans-serif" font-size="14" lengthAdjust="spacing" textLength="58.1055" x="719.3345" y="616.5469">Postgres</text><path d="M733.3872,629.5 C733.3872,619.5 751.3872,619.5 751.3872,619.5 C751.3872,619.5 769.3872,619.5 769.3872,629.5 L769.3872,655.5 C769.3872,665.5 751.3872,665.5 751.3872,665.5 C751.3872,665.5 733.3872,665.5 733.3872,655.5 L733.3872,629.5 " fill="#E2E2F0" style="stroke:#181818;stroke-width:1.5;"/><path d="M733.3872,629.5 C733.3872,639.5 751.3872,639.5 751.3872,639.5 C751.3872,639.5 769.3872,639.5 769.3872,629.5 " fill="none" style="stroke:#181818;stroke-width:1.5;"/><text fill="#000000" font-family="sans-serif" font-size="14" lengthAdjust="spacing" textLength="37.4404" x="796.2197" y="78.5352">Minio</text><path d="M797.4399,37 L797.4399,61 M797.4399,49 L814.4399,49 " fill="none" style="stroke:#181818;stroke-width:0.5;"/><ellipse cx="826.4399" cy="49" fill="#E2E2F0" rx="12" ry="12" style="stroke:#181818;stroke-width:0.5;"/><text fill="#000000" font-family="sans-serif" font-size="14" lengthAdjust="spacing" textLength="37.4404" x="796.2197" y="616.5469">Minio</text><path d="M797.4399,623.5 L797.4399,647.5 M797.4399,635.5 L814.4399,635.5 " fill="none" style="stroke:#181818;stroke-width:0.5;"/><ellipse cx="826.4399" cy="635.5" fill="#E2E2F0" rx="12" ry="12" style="stroke:#181818;stroke-width:0.5;"/><polygon fill="#181818" points="320.5254,108.7988,330.5254,112.7988,320.5254,116.7988,324.5254,112.7988" style="stroke:#181818;stroke-width:1.0;"/><line style="stroke:#181818;stroke-width:1.0;" x1="48.1826" x2="326.5254" y1="112.7988" y2="112.7988"/><text fill="#000000" font-family="sans-serif" font-size="13" lengthAdjust="spacing" textLength="260.3428" x="55.1826" y="108.0566">GET /api/v1/books/{bookId}/files/{fileId}</text><polygon fill="#181818" points="402.0923,138.1094,412.0923,142.1094,402.0923,146.1094,406.0923,142.1094" style="stroke:#181818;stroke-width:1.0;"/><line style="stroke:#181818;stroke-width:1.0;" x1="332.5254" x2="408.0923" y1="142.1094" y2="142.1094"/><text fill="#000000" font-family="sans-serif" font-size="13" lengthAdjust="spacing" textLength="57.5669" x="339.5254" y="137.3672">verify jwt</text><polygon fill="#181818" points="343.5254,152.1094,333.5254,156.1094,343.5254,160.1094,339.5254,156.1094" style="stroke:#181818;stroke-width:1.0;"/><line style="stroke:#181818;stroke-width:1.0;stroke-dasharray:2.0,2.0;" x1="337.5254" x2="413.0923" y1="156.1094" y2="156.1094"/><path d="M10,171.1094 L72.1387,171.1094 L72.1387,178.4199 L62.1387,188.4199 L10,188.4199 L10,171.1094 " fill="#EEEEEE" style="stroke:#000000;stroke-width:1.5;"/><rect fill="none" height="415.9023" style="stroke:#000000;stroke-width:1.5;" width="852.4399" x="10" y="171.1094"/><text fill="#000000" font-family="sans-serif" font-size="13" font-weight="bold" lengthAdjust="spacing" textLength="17.1387" x="25" y="184.6777">alt</text><text fill="#000000" font-family="sans-serif" font-size="11" font-weight="bold" lengthAdjust="spacing" textLength="70.2485" x="87.1387" y="183.7441">[jwt is valid]</text><polygon fill="#181818" points="604.8682,205.7305,614.8682,209.7305,604.8682,213.7305,608.8682,209.7305" style="stroke:#181818;stroke-width:1.0;"/><line style="stroke:#181818;stroke-width:1.0;" x1="332.5254" x2="610.8682" y1="209.7305" y2="209.7305"/><text fill="#000000" font-family="sans-serif" font-size="13" lengthAdjust="spacing" textLength="260.3428" x="339.5254" y="204.9883">GET /api/v1/books/{bookId}/files/{fileId}</text><polygon fill="#181818" points="739.3872,235.041,749.3872,239.041,739.3872,243.041,743.3872,239.041" style="stroke:#181818;stroke-width:1.0;"/><line style="stroke:#181818;stroke-width:1.0;" x1="616.8682" x2="745.3872" y1="239.041" y2="239.041"/><text fill="#000000" font-family="sans-serif" font-size="13" lengthAdjust="spacing" textLength="110.519" x="623.8682" y="234.2988">get file data by id</text><polygon fill="#181818" points="627.8682,264.3516,617.8682,268.3516,627.8682,272.3516,623.8682,268.3516" style="stroke:#181818;stroke-width:1.0;"/><line style="stroke:#181818;stroke-width:1.0;stroke-dasharray:2.0,2.0;" x1="621.8682" x2="750.3872" y1="268.3516" y2="268.3516"/><text fill="#000000" font-family="sans-serif" font-size="13" lengthAdjust="spacing" textLength="51.0542" x="633.8682" y="263.6094">file data</text><path d="M20,283.3516 L82.1387,283.3516 L82.1387,290.6621 L72.1387,300.6621 L20,300.6621 L20,283.3516 " fill="#EEEEEE" style="stroke:#000000;stroke-width:1.5;"/><rect fill="none" height="208.1289" style="stroke:#000000;stroke-width:1.5;" width="832.4399" x="20" y="283.3516"/><text fill="#000000" font-family="sans-serif" font-size="13" font-weight="bold" lengthAdjust="spacing" textLength="17.1387" x="35" y="296.9199">alt</text><text fill="#000000" font-family="sans-serif" font-size="11" font-weight="bold" lengthAdjust="spacing" textLength="91.6631" x="97.1387" y="295.9863">[file data exists]</text><polygon fill="#181818" points="805.9399,317.9727,815.9399,321.9727,805.9399,325.9727,809.9399,321.9727" style="stroke:#181818;stroke-width:1.0;"/><line style="stroke:#181818;stroke-width:1.0;" x1="616.8682" x2="811.9399" y1="321.9727" y2="321.9727"/><text fill="#000000" font-family="sans-serif" font-size="13" lengthAdjust="spacing" textLength="90.2446" x="623.8682" y="317.2305">get file by link</text><polygon fill="#181818" points="627.8682,347.2832,617.8682,351.2832,627.8682,355.2832,623.8682,351.2832" style="stroke:#181818;stroke-width:1.0;"/><line style="stroke:#181818;stroke-width:1.0;stroke-dasharray:2.0,2.0;" x1="621.8682" x2="816.9399" y1="351.2832" y2="351.2832"/><text fill="#000000" font-family="sans-serif" font-size="13" lengthAdjust="spacing" textLength="19.5381" x="633.8682" y="346.541">file</text><polygon fill="#181818" points="343.5254,376.5938,333.5254,380.5938,343.5254,384.5938,339.5254,380.5938" style="stroke:#181818;stroke-width:1.0;"/><line style="stroke:#181818;stroke-width:1.0;" x1="337.5254" x2="615.8682" y1="380.5938" y2="380.5938"/><text fill="#000000" font-family="sans-serif" font-size="13" lengthAdjust="spacing" textLength="19.5381" x="349.5254" y="375.8516">file</text><polygon fill="#181818" points="59.1826,405.9043,49.1826,409.9043,59.1826,413.9043,55.1826,409.9043" style="stroke:#181818;stroke-width:1.0;"/><line style="stroke:#181818;stroke-width:1.0;stroke-dasharray:2.0,2.0;" x1="53.1826" x2="331.5254" y1="409.9043" y2="409.9043"/><text fill="#000000" font-family="sans-serif" font-size="13" lengthAdjust="spacing" textLength="19.5381" x="65.1826" y="405.1621">file</text><line style="stroke:#000000;stroke-width:1.0;stroke-dasharray:2.0,2.0;" x1="20" x2="852.4399" y1="418.9043" y2="418.9043"/><text fill="#000000" font-family="sans-serif" font-size="11" font-weight="bold" lengthAdjust="spacing" textLength="138.3809" x="25" y="429.5391">[file data does not exist]</text><polygon fill="#181818" points="343.5254,450.1699,333.5254,454.1699,343.5254,458.1699,339.5254,454.1699" style="stroke:#181818;stroke-width:1.0;"/><line style="stroke:#181818;stroke-width:1.0;stroke-dasharray:2.0,2.0;" x1="337.5254" x2="615.8682" y1="454.1699" y2="454.1699"/><text fill="#000000" font-family="sans-serif" font-size="13" lengthAdjust="spacing" textLength="94.834" x="349.5254" y="449.4277">HttpStatus 404</text><polygon fill="#181818" points="59.1826,479.4805,49.1826,483.4805,59.1826,487.4805,55.1826,483.4805" style="stroke:#181818;stroke-width:1.0;"/><line style="stroke:#181818;stroke-width:1.0;stroke-dasharray:2.0,2.0;" x1="53.1826" x2="331.5254" y1="483.4805" y2="483.4805"/><text fill="#000000" font-family="sans-serif" font-size="13" lengthAdjust="spacing" textLength="94.834" x="65.1826" y="478.7383">HttpStatus 404</text><line style="stroke:#000000;stroke-width:1.0;stroke-dasharray:2.0,2.0;" x1="10" x2="862.4399" y1="499.4805" y2="499.4805"/><text fill="#000000" font-family="sans-serif" font-size="11" font-weight="bold" lengthAdjust="spacing" textLength="80.9155" x="15" y="510.1152">[jwt is absent]</text><polygon fill="#181818" points="59.1826,530.7461,49.1826,534.7461,59.1826,538.7461,55.1826,534.7461" style="stroke:#181818;stroke-width:1.0;"/><line style="stroke:#181818;stroke-width:1.0;stroke-dasharray:2.0,2.0;" x1="53.1826" x2="331.5254" y1="534.7461" y2="534.7461"/><text fill="#000000" font-family="sans-serif" font-size="13" lengthAdjust="spacing" textLength="94.834" x="65.1826" y="530.0039">HttpStatus 401</text><line style="stroke:#000000;stroke-width:1.0;stroke-dasharray:2.0,2.0;" x1="10" x2="862.4399" y1="543.7461" y2="543.7461"/><text fill="#000000" font-family="sans-serif" font-size="11" font-weight="bold" lengthAdjust="spacing" textLength="92.5815" x="15" y="554.3809">[jwt is not valid]</text><polygon fill="#181818" points="59.1826,575.0117,49.1826,579.0117,59.1826,583.0117,55.1826,579.0117" style="stroke:#181818;stroke-width:1.0;"/><line style="stroke:#181818;stroke-width:1.0;stroke-dasharray:2.0,2.0;" x1="53.1826" x2="331.5254" y1="579.0117" y2="579.0117"/><text fill="#000000" font-family="sans-serif" font-size="13" lengthAdjust="spacing" textLength="94.834" x="65.1826" y="574.2695">HttpStatus 403</text><!--SRC=[bL5FJuCm5B_tKxomyuABE-tWpQWn9YRgsJoWmzhQalPjI8pVtRx2DfZ4H2wq_Fxo7fRaF6GlGVeCCC0k7aI3dbIf6hG4MOqaM-mIMhUYS3jReUyWkvTTQHpgX6WzLHNEwP2GT18L4XOO96IFBb3jPGyszMkFdsmVb5KkWHzy4e8hmV8gXc_WvlePScnKlb_bIPX_yUkk-iwtoiXuvLUyYhfbZTORs4kljXsyjoIqXcLo4cW85aRLRzn5MaP11TYZKPM0-FJwbF6VM9Oc1giFVxU1MX8m1NWEK7Gmf1mOgTR0FV8IuxpeoKL-ga0XaIQfQMoZo9XcbDL7OiBF0t_RyBWd24yaVkTrZ11fub8NfVDeHjqg9mDOHtt9S_F1_PQeUIAaNO3rnNe-PuOZRIN6gSFgi0ZIalZROJMdv9xJnS-BBmL7_m00]--></g></svg>