<svg xmlns="http://www.w3.org/2000/svg" xmlns:xlink="http://www.w3.org/1999/xlink" contentStyleType="text/css" height="685px" preserveAspectRatio="none" style="width:865px;height:685px;background:#FFFFFF;" version="1.1" viewBox="0 0 865 685" width="865px" zoomAndPan="magnify"><defs/><g><rect fill="#90EE90" height="415.9023" style="stroke:#000000;stroke-width:1.5;" width="848.2188" x="10" y="171.1094"/><rect fill="#90EE90" height="208.1289" style="stroke:#000000;stroke-width:1.5;" width="828.2188" x="20" y="283.3516"/><rect fill="#FF7F50" height="73.5762" style="stroke:none;stroke-width:1.0;" width="828.2188" x="20" y="417.9043"/><rect fill="#FF7F50" height="44.2656" style="stroke:none;stroke-width:1.0;" width="848.2188" x="10" y="498.4805"/><rect fill="#FF7F50" height="44.2656" style="stroke:none;stroke-width:1.0;" width="848.2188" x="10" y="542.7461"/><line style="stroke:#181818;stroke-width:0.5;stroke-dasharray:5.0,5.0;" x1="48" x2="48" y1="81.4883" y2="604.0117"/><line style="stroke:#181818;stroke-width:0.5;stroke-dasharray:5.0,5.0;" x1="331.8604" x2="331.8604" y1="81.4883" y2="604.0117"/><line style="stroke:#181818;stroke-width:0.5;stroke-dasharray:5.0,5.0;" x1="413.0996" x2="413.0996" y1="81.4883" y2="604.0117"/><line style="stroke:#181818;stroke-width:0.5;stroke-dasharray:5.0,5.0;" x1="616.2031" x2="616.2031" y1="81.4883" y2="604.0117"/><line style="stroke:#181818;stroke-width:0.5;stroke-dasharray:5.0,5.0;" x1="747.1133" x2="747.1133" y1="81.4883" y2="604.0117"/><line style="stroke:#181818;stroke-width:0.5;stroke-dasharray:5.0,5.0;" x1="813.2188" x2="813.2188" y1="81.4883" y2="604.0117"/><text fill="#000000" font-family="sans-serif" font-size="14" lengthAdjust="spacing" textLength="30.3652" x="30" y="78.5352">User</text><ellipse cx="48.1826" cy="13.5" fill="#E2E2F0" rx="8" ry="8" style="stroke:#181818;stroke-width:0.5;"/><path d="M48.1826,21.5 L48.1826,48.5 M35.1826,29.5 L61.1826,29.5 M48.1826,48.5 L35.1826,63.5 M48.1826,48.5 L61.1826,63.5 " fill="none" style="stroke:#181818;stroke-width:0.5;"/><text fill="#000000" font-family="sans-serif" font-size="14" lengthAdjust="spacing" textLength="30.3652" x="30" y="616.5469">User</text><ellipse cx="48.1826" cy="628" fill="#E2E2F0" rx="8" ry="8" style="stroke:#181818;stroke-width:0.5;"/><path d="M48.1826,636 L48.1826,663 M35.1826,644 L61.1826,644 M48.1826,663 L35.1826,678 M48.1826,663 L61.1826,678 " fill="none" style="stroke:#181818;stroke-width:0.5;"/><rect fill="#E2E2F0" height="30.4883" rx="2.5" ry="2.5" style="stroke:#181818;stroke-width:0.5;" width="69.3301" x="297.8604" y="50"/><text fill="#000000" font-family="sans-serif" font-size="14" lengthAdjust="spacing" textLength="55.3301" x="304.8604" y="70.5352">gateway</text><rect fill="#E2E2F0" height="30.4883" rx="2.5" ry="2.5" style="stroke:#181818;stroke-width:0.5;" width="69.3301" x="297.8604" y="603.0117"/><text fill="#000000" font-family="sans-serif" font-size="14" lengthAdjust="spacing" textLength="55.3301" x="304.8604" y="623.5469">gateway</text><text fill="#000000" font-family="sans-serif" font-size="14" lengthAdjust="spacing" textLength="59.9854" x="381.0996" y="78.5352">Keycloak</text><path d="M393.5923,37 L393.5923,61 M393.5923,49 L410.5923,49 " fill="none" style="stroke:#181818;stroke-width:0.5;"/><ellipse cx="422.5923" cy="49" fill="#E2E2F0" rx="12" ry="12" style="stroke:#181818;stroke-width:0.5;"/><text fill="#000000" font-family="sans-serif" font-size="14" lengthAdjust="spacing" textLength="59.9854" x="381.0996" y="616.5469">Keycloak</text><path d="M393.5923,623.5 L393.5923,647.5 M393.5923,635.5 L410.5923,635.5 " fill="none" style="stroke:#181818;stroke-width:0.5;"/><ellipse cx="422.5923" cy="635.5" fill="#E2E2F0" rx="12" ry="12" style="stroke:#181818;stroke-width:0.5;"/><rect fill="#E2E2F0" height="30.4883" rx="2.5" ry="2.5" style="stroke:#181818;stroke-width:0.5;" width="55.3301" x="589.2031" y="50"/><text fill="#000000" font-family="sans-serif" font-size="14" lengthAdjust="spacing" textLength="41.3301" x="596.2031" y="70.5352">books</text><rect fill="#E2E2F0" height="30.4883" rx="2.5" ry="2.5" style="stroke:#181818;stroke-width:0.5;" width="55.3301" x="589.2031" y="603.0117"/><text fill="#000000" font-family="sans-serif" font-size="14" lengthAdjust="spacing" textLength="41.3301" x="596.2031" y="623.5469">books</text><text fill="#000000" font-family="sans-serif" font-size="14" lengthAdjust="spacing" textLength="58.1055" x="715.1133" y="78.5352">Postgres</text><path d="M729.166,29 C729.166,19 747.166,19 747.166,19 C747.166,19 765.166,19 765.166,29 L765.166,55 C765.166,65 747.166,65 747.166,65 C747.166,65 729.166,65 729.166,55 L729.166,29 " fill="#E2E2F0" style="stroke:#181818;stroke-width:1.5;"/><path d="M729.166,29 C729.166,39 747.166,39 747.166,39 C747.166,39 765.166,39 765.166,29 " fill="none" style="stroke:#181818;stroke-width:1.5;"/><text fill="#000000" font-family="sans-serif" font-size="14" lengthAdjust="spacing" textLength="58.1055" x="715.1133" y="616.5469">Postgres</text><path d="M729.166,629.5 C729.166,619.5 747.166,619.5 747.166,619.5 C747.166,619.5 765.166,619.5 765.166,629.5 L765.166,655.5 C765.166,665.5 747.166,665.5 747.166,665.5 C747.166,665.5 729.166,665.5 729.166,655.5 L729.166,629.5 " fill="#E2E2F0" style="stroke:#181818;stroke-width:1.5;"/><path d="M729.166,629.5 C729.166,639.5 747.166,639.5 747.166,639.5 C747.166,639.5 765.166,639.5 765.166,629.5 " fill="none" style="stroke:#181818;stroke-width:1.5;"/><text fill="#000000" font-family="sans-serif" font-size="14" lengthAdjust="spacing" textLength="37.4404" x="791.9985" y="78.5352">Minio</text><path d="M793.2188,37 L793.2188,61 M793.2188,49 L810.2188,49 " fill="none" style="stroke:#181818;stroke-width:0.5;"/><ellipse cx="822.2188" cy="49" fill="#E2E2F0" rx="12" ry="12" style="stroke:#181818;stroke-width:0.5;"/><text fill="#000000" font-family="sans-serif" font-size="14" lengthAdjust="spacing" textLength="37.4404" x="791.9985" y="616.5469">Minio</text><path d="M793.2188,623.5 L793.2188,647.5 M793.2188,635.5 L810.2188,635.5 " fill="none" style="stroke:#181818;stroke-width:0.5;"/><ellipse cx="822.2188" cy="635.5" fill="#E2E2F0" rx="12" ry="12" style="stroke:#181818;stroke-width:0.5;"/><polygon fill="#181818" points="320.5254,108.7988,330.5254,112.7988,320.5254,116.7988,324.5254,112.7988" style="stroke:#181818;stroke-width:1.0;"/><line style="stroke:#181818;stroke-width:1.0;" x1="48.1826" x2="326.5254" y1="112.7988" y2="112.7988"/><text fill="#000000" font-family="sans-serif" font-size="13" lengthAdjust="spacing" textLength="260.3428" x="55.1826" y="108.0566">GET /api/v1/books/{bookId}/files/{fileId}</text><polygon fill="#181818" points="402.0923,138.1094,412.0923,142.1094,402.0923,146.1094,406.0923,142.1094" style="stroke:#181818;stroke-width:1.0;"/><line style="stroke:#181818;stroke-width:1.0;" x1="332.5254" x2="408.0923" y1="142.1094" y2="142.1094"/><text fill="#000000" font-family="sans-serif" font-size="13" lengthAdjust="spacing" textLength="57.5669" x="339.5254" y="137.3672">verify jwt</text><polygon fill="#181818" points="343.5254,152.1094,333.5254,156.1094,343.5254,160.1094,339.5254,156.1094" style="stroke:#181818;stroke-width:1.0;"/><line style="stroke:#181818;stroke-width:1.0;stroke-dasharray:2.0,2.0;" x1="337.5254" x2="413.0923" y1="156.1094" y2="156.1094"/><path d="M10,171.1094 L72.1387,171.1094 L72.1387,178.4199 L62.1387,188.4199 L10,188.4199 L10,171.1094 " fill="#EEEEEE" style="stroke:#000000;stroke-width:1.5;"/><rect fill="none" height="415.9023" style="stroke:#000000;stroke-width:1.5;" width="848.2188" x="10" y="171.1094"/><text fill="#000000" font-family="sans-serif" font-size="13" font-weight="bold" lengthAdjust="spacing" textLength="17.1387" x="25" y="184.6777">alt</text><text fill="#000000" font-family="sans-serif" font-size="11" font-weight="bold" lengthAdjust="spacing" textLength="70.2485" x="87.1387" y="183.7441">[jwt is valid]</text><polygon fill="#181818" points="604.8682,205.7305,614.8682,209.7305,604.8682,213.7305,608.8682,209.7305" style="stroke:#181818;stroke-width:1.0;"/><line style="stroke:#181818;stroke-width:1.0;" x1="332.5254" x2="610.8682" y1="209.7305" y2="209.7305"/><text fill="#000000" font-family="sans-serif" font-size="13" lengthAdjust="spacing" textLength="260.3428" x="339.5254" y="204.9883">GET /api/v1/books/{bookId}/files/{fileId}</text><polygon fill="#181818" points="735.166,235.041,745.166,239.041,735.166,243.041,739.166,239.041" style="stroke:#181818;stroke-width:1.0;"/><line style="stroke:#181818;stroke-width:1.0;" x1="616.8682" x2="741.166" y1="239.041" y2="239.041"/><text fill="#000000" font-family="sans-serif" font-size="13" lengthAdjust="spacing" textLength="106.2979" x="623.8682" y="234.2988">get file link by id</text><polygon fill="#181818" points="627.8682,264.3516,617.8682,268.3516,627.8682,272.3516,623.8682,268.3516" style="stroke:#181818;stroke-width:1.0;"/><line style="stroke:#181818;stroke-width:1.0;stroke-dasharray:2.0,2.0;" x1="621.8682" x2="746.166" y1="268.3516" y2="268.3516"/><text fill="#000000" font-family="sans-serif" font-size="13" lengthAdjust="spacing" textLength="46.833" x="633.8682" y="263.6094">file link</text><path d="M20,283.3516 L82.1387,283.3516 L82.1387,290.6621 L72.1387,300.6621 L20,300.6621 L20,283.3516 " fill="#EEEEEE" style="stroke:#000000;stroke-width:1.5;"/><rect fill="none" height="208.1289" style="stroke:#000000;stroke-width:1.5;" width="828.2188" x="20" y="283.3516"/><text fill="#000000" font-family="sans-serif" font-size="13" font-weight="bold" lengthAdjust="spacing" textLength="17.1387" x="35" y="296.9199">alt</text><text fill="#000000" font-family="sans-serif" font-size="11" font-weight="bold" lengthAdjust="spacing" textLength="91.6631" x="97.1387" y="295.9863">[file data exists]</text><polygon fill="#181818" points="801.7188,317.9727,811.7188,321.9727,801.7188,325.9727,805.7188,321.9727" style="stroke:#181818;stroke-width:1.0;"/><line style="stroke:#181818;stroke-width:1.0;" x1="616.8682" x2="807.7188" y1="321.9727" y2="321.9727"/><text fill="#000000" font-family="sans-serif" font-size="13" lengthAdjust="spacing" textLength="90.2446" x="623.8682" y="317.2305">get file by link</text><polygon fill="#181818" points="627.8682,347.2832,617.8682,351.2832,627.8682,355.2832,623.8682,351.2832" style="stroke:#181818;stroke-width:1.0;"/><line style="stroke:#181818;stroke-width:1.0;stroke-dasharray:2.0,2.0;" x1="621.8682" x2="812.7188" y1="351.2832" y2="351.2832"/><text fill="#000000" font-family="sans-serif" font-size="13" lengthAdjust="spacing" textLength="19.5381" x="633.8682" y="346.541">file</text><polygon fill="#181818" points="343.5254,376.5938,333.5254,380.5938,343.5254,384.5938,339.5254,380.5938" style="stroke:#181818;stroke-width:1.0;"/><line style="stroke:#181818;stroke-width:1.0;" x1="337.5254" x2="615.8682" y1="380.5938" y2="380.5938"/><text fill="#000000" font-family="sans-serif" font-size="13" lengthAdjust="spacing" textLength="19.5381" x="349.5254" y="375.8516">file</text><polygon fill="#181818" points="59.1826,405.9043,49.1826,409.9043,59.1826,413.9043,55.1826,409.9043" style="stroke:#181818;stroke-width:1.0;"/><line style="stroke:#181818;stroke-width:1.0;stroke-dasharray:2.0,2.0;" x1="53.1826" x2="331.5254" y1="409.9043" y2="409.9043"/><text fill="#000000" font-family="sans-serif" font-size="13" lengthAdjust="spacing" textLength="19.5381" x="65.1826" y="405.1621">file</text><line style="stroke:#000000;stroke-width:1.0;stroke-dasharray:2.0,2.0;" x1="20" x2="848.2188" y1="418.9043" y2="418.9043"/><text fill="#000000" font-family="sans-serif" font-size="11" font-weight="bold" lengthAdjust="spacing" textLength="138.3809" x="25" y="429.5391">[file data does not exist]</text><polygon fill="#181818" points="343.5254,450.1699,333.5254,454.1699,343.5254,458.1699,339.5254,454.1699" style="stroke:#181818;stroke-width:1.0;"/><line style="stroke:#181818;stroke-width:1.0;stroke-dasharray:2.0,2.0;" x1="337.5254" x2="615.8682" y1="454.1699" y2="454.1699"/><text fill="#000000" font-family="sans-serif" font-size="13" lengthAdjust="spacing" textLength="94.834" x="349.5254" y="449.4277">HttpStatus 404</text><polygon fill="#181818" points="59.1826,479.4805,49.1826,483.4805,59.1826,487.4805,55.1826,483.4805" style="stroke:#181818;stroke-width:1.0;"/><line style="stroke:#181818;stroke-width:1.0;stroke-dasharray:2.0,2.0;" x1="53.1826" x2="331.5254" y1="483.4805" y2="483.4805"/><text fill="#000000" font-family="sans-serif" font-size="13" lengthAdjust="spacing" textLength="94.834" x="65.1826" y="478.7383">HttpStatus 404</text><line style="stroke:#000000;stroke-width:1.0;stroke-dasharray:2.0,2.0;" x1="10" x2="858.2188" y1="499.4805" y2="499.4805"/><text fill="#000000" font-family="sans-serif" font-size="11" font-weight="bold" lengthAdjust="spacing" textLength="80.9155" x="15" y="510.1152">[jwt is absent]</text><polygon fill="#181818" points="59.1826,530.7461,49.1826,534.7461,59.1826,538.7461,55.1826,534.7461" style="stroke:#181818;stroke-width:1.0;"/><line style="stroke:#181818;stroke-width:1.0;stroke-dasharray:2.0,2.0;" x1="53.1826" x2="331.5254" y1="534.7461" y2="534.7461"/><text fill="#000000" font-family="sans-serif" font-size="13" lengthAdjust="spacing" textLength="94.834" x="65.1826" y="530.0039">HttpStatus 401</text><line style="stroke:#000000;stroke-width:1.0;stroke-dasharray:2.0,2.0;" x1="10" x2="858.2188" y1="543.7461" y2="543.7461"/><text fill="#000000" font-family="sans-serif" font-size="11" font-weight="bold" lengthAdjust="spacing" textLength="92.5815" x="15" y="554.3809">[jwt is not valid]</text><polygon fill="#181818" points="59.1826,575.0117,49.1826,579.0117,59.1826,583.0117,55.1826,579.0117" style="stroke:#181818;stroke-width:1.0;"/><line style="stroke:#181818;stroke-width:1.0;stroke-dasharray:2.0,2.0;" x1="53.1826" x2="331.5254" y1="579.0117" y2="579.0117"/><text fill="#000000" font-family="sans-serif" font-size="13" lengthAdjust="spacing" textLength="94.834" x="65.1826" y="574.2695">HttpStatus 403</text><!--SRC=[bL7DJiCm3BxdAQpkF9M9dNRWXW0X92JWZDmsb92GL8stKY7UdTZjHZic97A9q-_FjR6aq4Bs57MR0KROfa8rs98fJOEU8AkHT8Uze7MdYh3r5ROzPBUwBrr0AuYrSrKHWes2IAKg92mmQiZkGwIwrGFOrCy3_cDxPxm90hvpfHIt1CkB5Bw1gyj7oB4n-MwLYp3_vEkc-ifVZDFfoLTwghfZZRKRsEdMlFJmrf6o5fRYfD0HB9ofNxaNxHa54s67pbGAqXdqal6VM9OAWzNxlzj0hGcO0ivu2qKFOygU8MsDt0DF6CUD2ihJ1FrX8aKXpL9bR9F8b7PmuoFuSU1l6nxt3E69fE-yZWcYNLhgeWmjkablLT0HVA2XoMFpqVsQg7aWf6s4zTdwTCu9ZlQLcgQEgyCYQa_gRuVLAINtEL_yQV6vukXl]--></g></svg>