<svg xmlns="http://www.w3.org/2000/svg" xmlns:xlink="http://www.w3.org/1999/xlink" contentStyleType="text/css" height="801px" preserveAspectRatio="none" style="width:655px;height:801px;background:#FFFFFF;" version="1.1" viewBox="0 0 655 801" width="655px" zoomAndPan="magnify"><defs/><g><rect fill="#90EE90" height="532.4785" style="stroke:#000000;stroke-width:1.5;" width="638.019" x="10" y="171.1094"/><rect fill="#90EE90" height="341.0156" style="stroke:#000000;stroke-width:1.5;" width="618.019" x="20" y="267.041"/><rect fill="#90EE90" height="192.8184" style="stroke:#000000;stroke-width:1.5;" width="598.019" x="30" y="334.6621"/><rect fill="#FF7F50" height="73.5762" style="stroke:none;stroke-width:1.0;" width="598.019" x="30" y="453.9043"/><rect fill="#FF7F50" height="73.5762" style="stroke:none;stroke-width:1.0;" width="618.019" x="20" y="534.4805"/><rect fill="#FF7F50" height="44.2656" style="stroke:none;stroke-width:1.0;" width="638.019" x="10" y="615.0566"/><rect fill="#FF7F50" height="44.2656" style="stroke:none;stroke-width:1.0;" width="638.019" x="10" y="659.3223"/><line style="stroke:#181818;stroke-width:0.5;stroke-dasharray:5.0,5.0;" x1="89" x2="89" y1="81.4883" y2="720.5879"/><line style="stroke:#181818;stroke-width:0.5;stroke-dasharray:5.0,5.0;" x1="252.4438" x2="252.4438" y1="81.4883" y2="720.5879"/><line style="stroke:#181818;stroke-width:0.5;stroke-dasharray:5.0,5.0;" x1="337.0029" x2="337.0029" y1="81.4883" y2="720.5879"/><line style="stroke:#181818;stroke-width:0.5;stroke-dasharray:5.0,5.0;" x1="415.7344" x2="415.7344" y1="81.4883" y2="720.5879"/><line style="stroke:#181818;stroke-width:0.5;stroke-dasharray:5.0,5.0;" x1="585.9136" x2="585.9136" y1="81.4883" y2="720.5879"/><text fill="#000000" font-family="sans-serif" font-size="14" lengthAdjust="spacing" textLength="93.7207" x="40" y="78.5352">Administrator</text><ellipse cx="89.8604" cy="13.5" fill="#E2E2F0" rx="8" ry="8" style="stroke:#181818;stroke-width:0.5;"/><path d="M89.8604,21.5 L89.8604,48.5 M76.8604,29.5 L102.8604,29.5 M89.8604,48.5 L76.8604,63.5 M89.8604,48.5 L102.8604,63.5 " fill="none" style="stroke:#181818;stroke-width:0.5;"/><text fill="#000000" font-family="sans-serif" font-size="14" lengthAdjust="spacing" textLength="93.7207" x="40" y="733.123">Administrator</text><ellipse cx="89.8604" cy="744.5762" fill="#E2E2F0" rx="8" ry="8" style="stroke:#181818;stroke-width:0.5;"/><path d="M89.8604,752.5762 L89.8604,779.5762 M76.8604,760.5762 L102.8604,760.5762 M89.8604,779.5762 L76.8604,794.5762 M89.8604,779.5762 L102.8604,794.5762 " fill="none" style="stroke:#181818;stroke-width:0.5;"/><rect fill="#E2E2F0" height="30.4883" rx="2.5" ry="2.5" style="stroke:#181818;stroke-width:0.5;" width="69.3301" x="218.4438" y="50"/><text fill="#000000" font-family="sans-serif" font-size="14" lengthAdjust="spacing" textLength="55.3301" x="225.4438" y="70.5352">gateway</text><rect fill="#E2E2F0" height="30.4883" rx="2.5" ry="2.5" style="stroke:#181818;stroke-width:0.5;" width="69.3301" x="218.4438" y="719.5879"/><text fill="#000000" font-family="sans-serif" font-size="14" lengthAdjust="spacing" textLength="55.3301" x="225.4438" y="740.123">gateway</text><text fill="#000000" font-family="sans-serif" font-size="14" lengthAdjust="spacing" textLength="59.9854" x="305.0029" y="78.5352">Keycloak</text><path d="M317.4956,37 L317.4956,61 M317.4956,49 L334.4956,49 " fill="none" style="stroke:#181818;stroke-width:0.5;"/><ellipse cx="346.4956" cy="49" fill="#E2E2F0" rx="12" ry="12" style="stroke:#181818;stroke-width:0.5;"/><text fill="#000000" font-family="sans-serif" font-size="14" lengthAdjust="spacing" textLength="59.9854" x="305.0029" y="733.123">Keycloak</text><path d="M317.4956,740.0762 L317.4956,764.0762 M317.4956,752.0762 L334.4956,752.0762 " fill="none" style="stroke:#181818;stroke-width:0.5;"/><ellipse cx="346.4956" cy="752.0762" fill="#E2E2F0" rx="12" ry="12" style="stroke:#181818;stroke-width:0.5;"/><rect fill="#E2E2F0" height="30.4883" rx="2.5" ry="2.5" style="stroke:#181818;stroke-width:0.5;" width="63.2461" x="384.7344" y="50"/><text fill="#000000" font-family="sans-serif" font-size="14" lengthAdjust="spacing" textLength="49.2461" x="391.7344" y="70.5352">catalog</text><rect fill="#E2E2F0" height="30.4883" rx="2.5" ry="2.5" style="stroke:#181818;stroke-width:0.5;" width="63.2461" x="384.7344" y="719.5879"/><text fill="#000000" font-family="sans-serif" font-size="14" lengthAdjust="spacing" textLength="49.2461" x="391.7344" y="740.123">catalog</text><text fill="#000000" font-family="sans-serif" font-size="14" lengthAdjust="spacing" textLength="58.1055" x="553.9136" y="78.5352">Postgres</text><path d="M567.9663,29 C567.9663,19 585.9663,19 585.9663,19 C585.9663,19 603.9663,19 603.9663,29 L603.9663,55 C603.9663,65 585.9663,65 585.9663,65 C585.9663,65 567.9663,65 567.9663,55 L567.9663,29 " fill="#E2E2F0" style="stroke:#181818;stroke-width:1.5;"/><path d="M567.9663,29 C567.9663,39 585.9663,39 585.9663,39 C585.9663,39 603.9663,39 603.9663,29 " fill="none" style="stroke:#181818;stroke-width:1.5;"/><text fill="#000000" font-family="sans-serif" font-size="14" lengthAdjust="spacing" textLength="58.1055" x="553.9136" y="733.123">Postgres</text><path d="M567.9663,746.0762 C567.9663,736.0762 585.9663,736.0762 585.9663,736.0762 C585.9663,736.0762 603.9663,736.0762 603.9663,746.0762 L603.9663,772.0762 C603.9663,782.0762 585.9663,782.0762 585.9663,782.0762 C585.9663,782.0762 567.9663,782.0762 567.9663,772.0762 L567.9663,746.0762 " fill="#E2E2F0" style="stroke:#181818;stroke-width:1.5;"/><path d="M567.9663,746.0762 C567.9663,756.0762 585.9663,756.0762 585.9663,756.0762 C585.9663,756.0762 603.9663,756.0762 603.9663,746.0762 " fill="none" style="stroke:#181818;stroke-width:1.5;"/><polygon fill="#181818" points="241.1089,108.7988,251.1089,112.7988,241.1089,116.7988,245.1089,112.7988" style="stroke:#181818;stroke-width:1.0;"/><line style="stroke:#181818;stroke-width:1.0;" x1="89.8604" x2="247.1089" y1="112.7988" y2="112.7988"/><text fill="#000000" font-family="sans-serif" font-size="13" lengthAdjust="spacing" textLength="139.2485" x="96.8604" y="108.0566">POST /api/v1/authors</text><polygon fill="#181818" points="325.9956,138.1094,335.9956,142.1094,325.9956,146.1094,329.9956,142.1094" style="stroke:#181818;stroke-width:1.0;"/><line style="stroke:#181818;stroke-width:1.0;" x1="253.1089" x2="331.9956" y1="142.1094" y2="142.1094"/><text fill="#000000" font-family="sans-serif" font-size="13" lengthAdjust="spacing" textLength="60.8867" x="260.1089" y="137.3672">verify jwd</text><polygon fill="#181818" points="264.1089,152.1094,254.1089,156.1094,264.1089,160.1094,260.1089,156.1094" style="stroke:#181818;stroke-width:1.0;"/><line style="stroke:#181818;stroke-width:1.0;stroke-dasharray:2.0,2.0;" x1="258.1089" x2="336.9956" y1="156.1094" y2="156.1094"/><path d="M10,171.1094 L72.1387,171.1094 L72.1387,178.4199 L62.1387,188.4199 L10,188.4199 L10,171.1094 " fill="#EEEEEE" style="stroke:#000000;stroke-width:1.5;"/><rect fill="none" height="532.4785" style="stroke:#000000;stroke-width:1.5;" width="638.019" x="10" y="171.1094"/><text fill="#000000" font-family="sans-serif" font-size="13" font-weight="bold" lengthAdjust="spacing" textLength="17.1387" x="25" y="184.6777">alt</text><text fill="#000000" font-family="sans-serif" font-size="11" font-weight="bold" lengthAdjust="spacing" textLength="70.2485" x="87.1387" y="183.7441">[jwt is valid]</text><polygon fill="#181818" points="404.3574,205.7305,414.3574,209.7305,404.3574,213.7305,408.3574,209.7305" style="stroke:#181818;stroke-width:1.0;"/><line style="stroke:#181818;stroke-width:1.0;" x1="253.1089" x2="410.3574" y1="209.7305" y2="209.7305"/><text fill="#000000" font-family="sans-serif" font-size="13" lengthAdjust="spacing" textLength="139.2485" x="260.1089" y="204.9883">POST /api/v1/authors</text><line style="stroke:#181818;stroke-width:1.0;" x1="416.3574" x2="458.3574" y1="239.041" y2="239.041"/><line style="stroke:#181818;stroke-width:1.0;" x1="458.3574" x2="458.3574" y1="239.041" y2="252.041"/><line style="stroke:#181818;stroke-width:1.0;" x1="417.3574" x2="458.3574" y1="252.041" y2="252.041"/><polygon fill="#181818" points="427.3574,248.041,417.3574,252.041,427.3574,256.041,423.3574,252.041" style="stroke:#181818;stroke-width:1.0;"/><text fill="#000000" font-family="sans-serif" font-size="13" lengthAdjust="spacing" textLength="100.7627" x="423.3574" y="234.2988">check actor role</text><path d="M20,267.041 L82.1387,267.041 L82.1387,274.3516 L72.1387,284.3516 L20,284.3516 L20,267.041 " fill="#EEEEEE" style="stroke:#000000;stroke-width:1.5;"/><rect fill="none" height="341.0156" style="stroke:#000000;stroke-width:1.5;" width="618.019" x="20" y="267.041"/><text fill="#000000" font-family="sans-serif" font-size="13" font-weight="bold" lengthAdjust="spacing" textLength="17.1387" x="35" y="280.6094">alt</text><text fill="#000000" font-family="sans-serif" font-size="11" font-weight="bold" lengthAdjust="spacing" textLength="143.0054" x="97.1387" y="279.6758">[actor is "Administrator"]</text><polygon fill="#181818" points="573.9663,301.6621,583.9663,305.6621,573.9663,309.6621,577.9663,305.6621" style="stroke:#181818;stroke-width:1.0;"/><line style="stroke:#181818;stroke-width:1.0;" x1="416.3574" x2="579.9663" y1="305.6621" y2="305.6621"/><text fill="#000000" font-family="sans-serif" font-size="13" lengthAdjust="spacing" textLength="145.6089" x="423.3574" y="300.9199">check author existence</text><polygon fill="#181818" points="427.3574,315.6621,417.3574,319.6621,427.3574,323.6621,423.3574,319.6621" style="stroke:#181818;stroke-width:1.0;"/><line style="stroke:#181818;stroke-width:1.0;stroke-dasharray:2.0,2.0;" x1="421.3574" x2="584.9663" y1="319.6621" y2="319.6621"/><path d="M30,334.6621 L92.1387,334.6621 L92.1387,341.9727 L82.1387,351.9727 L30,351.9727 L30,334.6621 " fill="#EEEEEE" style="stroke:#000000;stroke-width:1.5;"/><rect fill="none" height="192.8184" style="stroke:#000000;stroke-width:1.5;" width="598.019" x="30" y="334.6621"/><text fill="#000000" font-family="sans-serif" font-size="13" font-weight="bold" lengthAdjust="spacing" textLength="17.1387" x="45" y="348.2305">alt</text><text fill="#000000" font-family="sans-serif" font-size="11" font-weight="bold" lengthAdjust="spacing" textLength="129.3145" x="107.1387" y="347.2969">[author does not exist]</text><polygon fill="#181818" points="573.9663,369.2832,583.9663,373.2832,573.9663,377.2832,577.9663,373.2832" style="stroke:#181818;stroke-width:1.0;"/><line style="stroke:#181818;stroke-width:1.0;" x1="416.3574" x2="579.9663" y1="373.2832" y2="373.2832"/><text fill="#000000" font-family="sans-serif" font-size="13" lengthAdjust="spacing" textLength="102.813" x="423.3574" y="368.541">save new author</text><polygon fill="#181818" points="427.3574,383.2832,417.3574,387.2832,427.3574,391.2832,423.3574,387.2832" style="stroke:#181818;stroke-width:1.0;"/><line style="stroke:#181818;stroke-width:1.0;stroke-dasharray:2.0,2.0;" x1="421.3574" x2="584.9663" y1="387.2832" y2="387.2832"/><polygon fill="#181818" points="264.1089,412.5938,254.1089,416.5938,264.1089,420.5938,260.1089,416.5938" style="stroke:#181818;stroke-width:1.0;"/><line style="stroke:#181818;stroke-width:1.0;stroke-dasharray:2.0,2.0;" x1="258.1089" x2="415.3574" y1="416.5938" y2="416.5938"/><text fill="#000000" font-family="sans-serif" font-size="13" lengthAdjust="spacing" textLength="94.834" x="270.1089" y="411.8516">HttpStatus 201</text><polygon fill="#181818" points="100.8604,441.9043,90.8604,445.9043,100.8604,449.9043,96.8604,445.9043" style="stroke:#181818;stroke-width:1.0;"/><line style="stroke:#181818;stroke-width:1.0;stroke-dasharray:2.0,2.0;" x1="94.8604" x2="252.1089" y1="445.9043" y2="445.9043"/><text fill="#000000" font-family="sans-serif" font-size="13" lengthAdjust="spacing" textLength="94.834" x="106.8604" y="441.1621">HttpStatus 201</text><line style="stroke:#000000;stroke-width:1.0;stroke-dasharray:2.0,2.0;" x1="30" x2="628.019" y1="454.9043" y2="454.9043"/><text fill="#000000" font-family="sans-serif" font-size="11" font-weight="bold" lengthAdjust="spacing" textLength="82.5967" x="35" y="465.5391">[author exists]</text><polygon fill="#181818" points="264.1089,486.1699,254.1089,490.1699,264.1089,494.1699,260.1089,490.1699" style="stroke:#181818;stroke-width:1.0;"/><line style="stroke:#181818;stroke-width:1.0;stroke-dasharray:2.0,2.0;" x1="258.1089" x2="415.3574" y1="490.1699" y2="490.1699"/><text fill="#000000" font-family="sans-serif" font-size="13" lengthAdjust="spacing" textLength="94.834" x="270.1089" y="485.4277">HttpStatus 409</text><polygon fill="#181818" points="100.8604,515.4805,90.8604,519.4805,100.8604,523.4805,96.8604,519.4805" style="stroke:#181818;stroke-width:1.0;"/><line style="stroke:#181818;stroke-width:1.0;stroke-dasharray:2.0,2.0;" x1="94.8604" x2="252.1089" y1="519.4805" y2="519.4805"/><text fill="#000000" font-family="sans-serif" font-size="13" lengthAdjust="spacing" textLength="94.834" x="106.8604" y="514.7383">HttpStatus 409</text><line style="stroke:#000000;stroke-width:1.0;stroke-dasharray:2.0,2.0;" x1="20" x2="638.019" y1="535.4805" y2="535.4805"/><text fill="#000000" font-family="sans-serif" font-size="11" font-weight="bold" lengthAdjust="spacing" textLength="165.3384" x="25" y="546.1152">[actor is not "Administrator"]</text><polygon fill="#181818" points="264.1089,566.7461,254.1089,570.7461,264.1089,574.7461,260.1089,570.7461" style="stroke:#181818;stroke-width:1.0;"/><line style="stroke:#181818;stroke-width:1.0;stroke-dasharray:2.0,2.0;" x1="258.1089" x2="415.3574" y1="570.7461" y2="570.7461"/><text fill="#000000" font-family="sans-serif" font-size="13" lengthAdjust="spacing" textLength="94.834" x="270.1089" y="566.0039">HttpStatus 403</text><polygon fill="#181818" points="100.8604,596.0566,90.8604,600.0566,100.8604,604.0566,96.8604,600.0566" style="stroke:#181818;stroke-width:1.0;"/><line style="stroke:#181818;stroke-width:1.0;stroke-dasharray:2.0,2.0;" x1="94.8604" x2="252.1089" y1="600.0566" y2="600.0566"/><text fill="#000000" font-family="sans-serif" font-size="13" lengthAdjust="spacing" textLength="94.834" x="106.8604" y="595.3145">HttpStatus 403</text><line style="stroke:#000000;stroke-width:1.0;stroke-dasharray:2.0,2.0;" x1="10" x2="648.019" y1="616.0566" y2="616.0566"/><text fill="#000000" font-family="sans-serif" font-size="11" font-weight="bold" lengthAdjust="spacing" textLength="80.9155" x="15" y="626.6914">[jwt is absent]</text><polygon fill="#181818" points="100.8604,647.3223,90.8604,651.3223,100.8604,655.3223,96.8604,651.3223" style="stroke:#181818;stroke-width:1.0;"/><line style="stroke:#181818;stroke-width:1.0;stroke-dasharray:2.0,2.0;" x1="94.8604" x2="252.1089" y1="651.3223" y2="651.3223"/><text fill="#000000" font-family="sans-serif" font-size="13" lengthAdjust="spacing" textLength="94.834" x="106.8604" y="646.5801">HttpStatus 401</text><line style="stroke:#000000;stroke-width:1.0;stroke-dasharray:2.0,2.0;" x1="10" x2="648.019" y1="660.3223" y2="660.3223"/><text fill="#000000" font-family="sans-serif" font-size="11" font-weight="bold" lengthAdjust="spacing" textLength="92.5815" x="15" y="670.957">[jwt is not valid]</text><polygon fill="#181818" points="100.8604,691.5879,90.8604,695.5879,100.8604,699.5879,96.8604,695.5879" style="stroke:#181818;stroke-width:1.0;"/><line style="stroke:#181818;stroke-width:1.0;stroke-dasharray:2.0,2.0;" x1="94.8604" x2="252.1089" y1="695.5879" y2="695.5879"/><text fill="#000000" font-family="sans-serif" font-size="13" lengthAdjust="spacing" textLength="94.834" x="106.8604" y="690.8457">HttpStatus 403</text><!--SRC=[ZL91JiCm4Bpx5QlqN9K25tf0ueR4WKhb0rjdSOsD7TbkGdwFxQIbBgdQN19xPcSckuiyM0VLI_qjZVJ1OJnMW1umtR06NP1SDcW2L083TTXdM7HiQ_UcHjT3zKOzrnPLHfGggpW6r5PaRFncTNnlqHDKQ-k3SEGpt0Z6iY_CdwF32jRlcmzOO2CNxNA1-x2ppZFH9LYf5RJav6SFNrtDb89vBcAe0yoq5BkaIoQY0QI75hMi6SHdg1-ZNF18l95HaFcEk0BCJNDMKoQUEmvmz3nhQoQVAJT_ejaQw2VooN0wiXkHV-sGuNZ_ptOGg2rvC3OCIaVsXA_7bi1GDrOMrD9qMcKSqci8pIPWs7kulriMrDJgoCeplKWa7HTXngr3NJJ1t-hwUFTqc-ifaSom3ONxON2fVLU7DnNaWTqGOY2b0EpKVLnKt7eoWLtHM4wLfjZbdbzCaDn_0G00]--></g></svg>