<svg xmlns="http://www.w3.org/2000/svg" xmlns:xlink="http://www.w3.org/1999/xlink" contentStyleType="text/css" height="862px" preserveAspectRatio="none" style="width:687px;height:862px;background:#FFFFFF;" version="1.1" viewBox="0 0 687 862" width="687px" zoomAndPan="magnify"><defs/><g><rect fill="#90EE90" height="593.0996" style="stroke:#000000;stroke-width:1.5;" width="670.1587" x="10" y="171.1094"/><rect fill="#90EE90" height="401.6367" style="stroke:#000000;stroke-width:1.5;" width="650.1587" x="20" y="267.041"/><rect fill="#90EE90" height="253.4395" style="stroke:#000000;stroke-width:1.5;" width="630.1587" x="30" y="334.6621"/><rect fill="#ADD8E6" height="46.6211" style="stroke:#000000;stroke-width:1.5;" width="288.9014" x="361.2573" y="402.2832"/><rect fill="#FF7F50" height="73.5762" style="stroke:none;stroke-width:1.0;" width="630.1587" x="30" y="514.5254"/><rect fill="#FF7F50" height="73.5762" style="stroke:none;stroke-width:1.0;" width="650.1587" x="20" y="595.1016"/><rect fill="#FF7F50" height="44.2656" style="stroke:none;stroke-width:1.0;" width="670.1587" x="10" y="675.6777"/><rect fill="#FF7F50" height="44.2656" style="stroke:none;stroke-width:1.0;" width="670.1587" x="10" y="719.9434"/><line style="stroke:#181818;stroke-width:0.5;stroke-dasharray:5.0,5.0;" x1="89" x2="89" y1="81.4883" y2="781.209"/><line style="stroke:#181818;stroke-width:0.5;stroke-dasharray:5.0,5.0;" x1="242.7129" x2="242.7129" y1="81.4883" y2="781.209"/><line style="stroke:#181818;stroke-width:0.5;stroke-dasharray:5.0,5.0;" x1="327.272" x2="327.272" y1="81.4883" y2="781.209"/><line style="stroke:#181818;stroke-width:0.5;stroke-dasharray:5.0,5.0;" x1="402.2573" x2="402.2573" y1="81.4883" y2="781.209"/><line style="stroke:#181818;stroke-width:0.5;stroke-dasharray:5.0,5.0;" x1="540.1206" x2="540.1206" y1="81.4883" y2="781.209"/><line style="stroke:#181818;stroke-width:0.5;stroke-dasharray:5.0,5.0;" x1="610.2261" x2="610.2261" y1="81.4883" y2="781.209"/><text fill="#000000" font-family="sans-serif" font-size="14" lengthAdjust="spacing" textLength="93.7207" x="40" y="78.5352">Administrator</text><ellipse cx="89.8604" cy="13.5" fill="#E2E2F0" rx="8" ry="8" style="stroke:#181818;stroke-width:0.5;"/><path d="M89.8604,21.5 L89.8604,48.5 M76.8604,29.5 L102.8604,29.5 M89.8604,48.5 L76.8604,63.5 M89.8604,48.5 L102.8604,63.5 " fill="none" style="stroke:#181818;stroke-width:0.5;"/><text fill="#000000" font-family="sans-serif" font-size="14" lengthAdjust="spacing" textLength="93.7207" x="40" y="793.7441">Administrator</text><ellipse cx="89.8604" cy="805.1973" fill="#E2E2F0" rx="8" ry="8" style="stroke:#181818;stroke-width:0.5;"/><path d="M89.8604,813.1973 L89.8604,840.1973 M76.8604,821.1973 L102.8604,821.1973 M89.8604,840.1973 L76.8604,855.1973 M89.8604,840.1973 L102.8604,855.1973 " fill="none" style="stroke:#181818;stroke-width:0.5;"/><rect fill="#E2E2F0" height="30.4883" rx="2.5" ry="2.5" style="stroke:#181818;stroke-width:0.5;" width="69.3301" x="208.7129" y="50"/><text fill="#000000" font-family="sans-serif" font-size="14" lengthAdjust="spacing" textLength="55.3301" x="215.7129" y="70.5352">gateway</text><rect fill="#E2E2F0" height="30.4883" rx="2.5" ry="2.5" style="stroke:#181818;stroke-width:0.5;" width="69.3301" x="208.7129" y="780.209"/><text fill="#000000" font-family="sans-serif" font-size="14" lengthAdjust="spacing" textLength="55.3301" x="215.7129" y="800.7441">gateway</text><text fill="#000000" font-family="sans-serif" font-size="14" lengthAdjust="spacing" textLength="59.9854" x="295.272" y="78.5352">Keycloak</text><path d="M307.7646,37 L307.7646,61 M307.7646,49 L324.7646,49 " fill="none" style="stroke:#181818;stroke-width:0.5;"/><ellipse cx="336.7646" cy="49" fill="#E2E2F0" rx="12" ry="12" style="stroke:#181818;stroke-width:0.5;"/><text fill="#000000" font-family="sans-serif" font-size="14" lengthAdjust="spacing" textLength="59.9854" x="295.272" y="793.7441">Keycloak</text><path d="M307.7646,800.6973 L307.7646,824.6973 M307.7646,812.6973 L324.7646,812.6973 " fill="none" style="stroke:#181818;stroke-width:0.5;"/><ellipse cx="336.7646" cy="812.6973" fill="#E2E2F0" rx="12" ry="12" style="stroke:#181818;stroke-width:0.5;"/><rect fill="#E2E2F0" height="30.4883" rx="2.5" ry="2.5" style="stroke:#181818;stroke-width:0.5;" width="63.2461" x="371.2573" y="50"/><text fill="#000000" font-family="sans-serif" font-size="14" lengthAdjust="spacing" textLength="49.2461" x="378.2573" y="70.5352">catalog</text><rect fill="#E2E2F0" height="30.4883" rx="2.5" ry="2.5" style="stroke:#181818;stroke-width:0.5;" width="63.2461" x="371.2573" y="780.209"/><text fill="#000000" font-family="sans-serif" font-size="14" lengthAdjust="spacing" textLength="49.2461" x="378.2573" y="800.7441">catalog</text><text fill="#000000" font-family="sans-serif" font-size="14" lengthAdjust="spacing" textLength="58.1055" x="508.1206" y="78.5352">Postgres</text><path d="M522.1733,29 C522.1733,19 540.1733,19 540.1733,19 C540.1733,19 558.1733,19 558.1733,29 L558.1733,55 C558.1733,65 540.1733,65 540.1733,65 C540.1733,65 522.1733,65 522.1733,55 L522.1733,29 " fill="#E2E2F0" style="stroke:#181818;stroke-width:1.5;"/><path d="M522.1733,29 C522.1733,39 540.1733,39 540.1733,39 C540.1733,39 558.1733,39 558.1733,29 " fill="none" style="stroke:#181818;stroke-width:1.5;"/><text fill="#000000" font-family="sans-serif" font-size="14" lengthAdjust="spacing" textLength="58.1055" x="508.1206" y="793.7441">Postgres</text><path d="M522.1733,806.6973 C522.1733,796.6973 540.1733,796.6973 540.1733,796.6973 C540.1733,796.6973 558.1733,796.6973 558.1733,806.6973 L558.1733,832.6973 C558.1733,842.6973 540.1733,842.6973 540.1733,842.6973 C540.1733,842.6973 522.1733,842.6973 522.1733,832.6973 L522.1733,806.6973 " fill="#E2E2F0" style="stroke:#181818;stroke-width:1.5;"/><path d="M522.1733,806.6973 C522.1733,816.6973 540.1733,816.6973 540.1733,816.6973 C540.1733,816.6973 558.1733,816.6973 558.1733,806.6973 " fill="none" style="stroke:#181818;stroke-width:1.5;"/><path d="M587.2261,55 L635.1587,55 C640.1587,55 640.1587,68.2441 640.1587,68.2441 C640.1587,68.2441 640.1587,81.4883 635.1587,81.4883 L587.2261,81.4883 C582.2261,81.4883 582.2261,68.2441 582.2261,68.2441 C582.2261,68.2441 582.2261,55 587.2261,55 " fill="#E2E2F0" style="stroke:#181818;stroke-width:0.5;"/><path d="M635.1587,55 C630.1587,55 630.1587,68.2441 630.1587,68.2441 C630.1587,81.4883 635.1587,81.4883 635.1587,81.4883 " fill="none" style="stroke:#181818;stroke-width:0.5;"/><text fill="#000000" font-family="sans-serif" font-size="14" lengthAdjust="spacing" textLength="37.9326" x="587.2261" y="73.5352">Kafka</text><path d="M587.2261,780.209 L635.1587,780.209 C640.1587,780.209 640.1587,793.4531 640.1587,793.4531 C640.1587,793.4531 640.1587,806.6973 635.1587,806.6973 L587.2261,806.6973 C582.2261,806.6973 582.2261,793.4531 582.2261,793.4531 C582.2261,793.4531 582.2261,780.209 587.2261,780.209 " fill="#E2E2F0" style="stroke:#181818;stroke-width:0.5;"/><path d="M635.1587,780.209 C630.1587,780.209 630.1587,793.4531 630.1587,793.4531 C630.1587,806.6973 635.1587,806.6973 635.1587,806.6973 " fill="none" style="stroke:#181818;stroke-width:0.5;"/><text fill="#000000" font-family="sans-serif" font-size="14" lengthAdjust="spacing" textLength="37.9326" x="587.2261" y="798.7441">Kafka</text><polygon fill="#181818" points="231.3779,108.7988,241.3779,112.7988,231.3779,116.7988,235.3779,112.7988" style="stroke:#181818;stroke-width:1.0;"/><line style="stroke:#181818;stroke-width:1.0;" x1="89.8604" x2="237.3779" y1="112.7988" y2="112.7988"/><text fill="#000000" font-family="sans-serif" font-size="13" lengthAdjust="spacing" textLength="129.5176" x="96.8604" y="108.0566">POST /api/v1/books</text><polygon fill="#181818" points="316.2646,138.1094,326.2646,142.1094,316.2646,146.1094,320.2646,142.1094" style="stroke:#181818;stroke-width:1.0;"/><line style="stroke:#181818;stroke-width:1.0;" x1="243.3779" x2="322.2646" y1="142.1094" y2="142.1094"/><text fill="#000000" font-family="sans-serif" font-size="13" lengthAdjust="spacing" textLength="60.8867" x="250.3779" y="137.3672">verify jwd</text><polygon fill="#181818" points="254.3779,152.1094,244.3779,156.1094,254.3779,160.1094,250.3779,156.1094" style="stroke:#181818;stroke-width:1.0;"/><line style="stroke:#181818;stroke-width:1.0;stroke-dasharray:2.0,2.0;" x1="248.3779" x2="327.2646" y1="156.1094" y2="156.1094"/><path d="M10,171.1094 L72.1387,171.1094 L72.1387,178.4199 L62.1387,188.4199 L10,188.4199 L10,171.1094 " fill="#EEEEEE" style="stroke:#000000;stroke-width:1.5;"/><rect fill="none" height="593.0996" style="stroke:#000000;stroke-width:1.5;" width="670.1587" x="10" y="171.1094"/><text fill="#000000" font-family="sans-serif" font-size="13" font-weight="bold" lengthAdjust="spacing" textLength="17.1387" x="25" y="184.6777">alt</text><text fill="#000000" font-family="sans-serif" font-size="11" font-weight="bold" lengthAdjust="spacing" textLength="70.2485" x="87.1387" y="183.7441">[jwt is valid]</text><polygon fill="#181818" points="390.8804,205.7305,400.8804,209.7305,390.8804,213.7305,394.8804,209.7305" style="stroke:#181818;stroke-width:1.0;"/><line style="stroke:#181818;stroke-width:1.0;" x1="243.3779" x2="396.8804" y1="209.7305" y2="209.7305"/><text fill="#000000" font-family="sans-serif" font-size="13" lengthAdjust="spacing" textLength="129.5176" x="250.3779" y="204.9883">POST /api/v1/books</text><line style="stroke:#181818;stroke-width:1.0;" x1="402.8804" x2="444.8804" y1="239.041" y2="239.041"/><line style="stroke:#181818;stroke-width:1.0;" x1="444.8804" x2="444.8804" y1="239.041" y2="252.041"/><line style="stroke:#181818;stroke-width:1.0;" x1="403.8804" x2="444.8804" y1="252.041" y2="252.041"/><polygon fill="#181818" points="413.8804,248.041,403.8804,252.041,413.8804,256.041,409.8804,252.041" style="stroke:#181818;stroke-width:1.0;"/><text fill="#000000" font-family="sans-serif" font-size="13" lengthAdjust="spacing" textLength="100.7627" x="409.8804" y="234.2988">check actor role</text><path d="M20,267.041 L82.1387,267.041 L82.1387,274.3516 L72.1387,284.3516 L20,284.3516 L20,267.041 " fill="#EEEEEE" style="stroke:#000000;stroke-width:1.5;"/><rect fill="none" height="401.6367" style="stroke:#000000;stroke-width:1.5;" width="650.1587" x="20" y="267.041"/><text fill="#000000" font-family="sans-serif" font-size="13" font-weight="bold" lengthAdjust="spacing" textLength="17.1387" x="35" y="280.6094">alt</text><text fill="#000000" font-family="sans-serif" font-size="11" font-weight="bold" lengthAdjust="spacing" textLength="143.0054" x="97.1387" y="279.6758">[actor is "Administrator"]</text><polygon fill="#181818" points="528.1733,301.6621,538.1733,305.6621,528.1733,309.6621,532.1733,305.6621" style="stroke:#181818;stroke-width:1.0;"/><line style="stroke:#181818;stroke-width:1.0;" x1="402.8804" x2="534.1733" y1="305.6621" y2="305.6621"/><text fill="#000000" font-family="sans-serif" font-size="13" lengthAdjust="spacing" textLength="113.293" x="409.8804" y="300.9199">check book exists</text><polygon fill="#181818" points="413.8804,315.6621,403.8804,319.6621,413.8804,323.6621,409.8804,319.6621" style="stroke:#181818;stroke-width:1.0;"/><line style="stroke:#181818;stroke-width:1.0;stroke-dasharray:2.0,2.0;" x1="407.8804" x2="539.1733" y1="319.6621" y2="319.6621"/><path d="M30,334.6621 L92.1387,334.6621 L92.1387,341.9727 L82.1387,351.9727 L30,351.9727 L30,334.6621 " fill="#EEEEEE" style="stroke:#000000;stroke-width:1.5;"/><rect fill="none" height="253.4395" style="stroke:#000000;stroke-width:1.5;" width="630.1587" x="30" y="334.6621"/><text fill="#000000" font-family="sans-serif" font-size="13" font-weight="bold" lengthAdjust="spacing" textLength="17.1387" x="45" y="348.2305">alt</text><text fill="#000000" font-family="sans-serif" font-size="11" font-weight="bold" lengthAdjust="spacing" textLength="120.2158" x="107.1387" y="347.2969">[book does not exist]</text><polygon fill="#181818" points="528.1733,369.2832,538.1733,373.2832,528.1733,377.2832,532.1733,373.2832" style="stroke:#181818;stroke-width:1.0;"/><line style="stroke:#181818;stroke-width:1.0;" x1="402.8804" x2="534.1733" y1="373.2832" y2="373.2832"/><text fill="#000000" font-family="sans-serif" font-size="13" lengthAdjust="spacing" textLength="93.082" x="409.8804" y="368.541">save new book</text><polygon fill="#181818" points="413.8804,383.2832,403.8804,387.2832,413.8804,391.2832,409.8804,387.2832" style="stroke:#181818;stroke-width:1.0;"/><line style="stroke:#181818;stroke-width:1.0;stroke-dasharray:2.0,2.0;" x1="407.8804" x2="539.1733" y1="387.2832" y2="387.2832"/><path d="M361.2573,402.2832 L428.4233,402.2832 L428.4233,409.5938 L418.4233,419.5938 L361.2573,419.5938 L361.2573,402.2832 " fill="#EEEEEE" style="stroke:#000000;stroke-width:1.5;"/><rect fill="none" height="46.6211" style="stroke:#000000;stroke-width:1.5;" width="288.9014" x="361.2573" y="402.2832"/><text fill="#000000" font-family="sans-serif" font-size="13" font-weight="bold" lengthAdjust="spacing" textLength="22.166" x="376.2573" y="415.8516">par</text><polygon fill="#181818" points="599.1924,436.9043,609.1924,440.9043,599.1924,444.9043,603.1924,440.9043" style="stroke:#181818;stroke-width:1.0;"/><line style="stroke:#181818;stroke-width:1.0;" x1="402.8804" x2="605.1924" y1="440.9043" y2="440.9043"/><text fill="#000000" font-family="sans-serif" font-size="13" lengthAdjust="spacing" textLength="99.4487" x="409.8804" y="436.1621">new book event</text><polygon fill="#181818" points="254.3779,473.2148,244.3779,477.2148,254.3779,481.2148,250.3779,477.2148" style="stroke:#181818;stroke-width:1.0;"/><line style="stroke:#181818;stroke-width:1.0;stroke-dasharray:2.0,2.0;" x1="248.3779" x2="401.8804" y1="477.2148" y2="477.2148"/><text fill="#000000" font-family="sans-serif" font-size="13" lengthAdjust="spacing" textLength="94.834" x="260.3779" y="472.4727">HttpStatus 201</text><polygon fill="#181818" points="100.8604,502.5254,90.8604,506.5254,100.8604,510.5254,96.8604,506.5254" style="stroke:#181818;stroke-width:1.0;"/><line style="stroke:#181818;stroke-width:1.0;stroke-dasharray:2.0,2.0;" x1="94.8604" x2="242.3779" y1="506.5254" y2="506.5254"/><text fill="#000000" font-family="sans-serif" font-size="13" lengthAdjust="spacing" textLength="94.834" x="106.8604" y="501.7832">HttpStatus 201</text><line style="stroke:#000000;stroke-width:1.0;stroke-dasharray:2.0,2.0;" x1="30" x2="660.1587" y1="515.5254" y2="515.5254"/><text fill="#000000" font-family="sans-serif" font-size="11" font-weight="bold" lengthAdjust="spacing" textLength="82.5967" x="35" y="526.1602">[author exists]</text><polygon fill="#181818" points="254.3779,546.791,244.3779,550.791,254.3779,554.791,250.3779,550.791" style="stroke:#181818;stroke-width:1.0;"/><line style="stroke:#181818;stroke-width:1.0;stroke-dasharray:2.0,2.0;" x1="248.3779" x2="401.8804" y1="550.791" y2="550.791"/><text fill="#000000" font-family="sans-serif" font-size="13" lengthAdjust="spacing" textLength="94.834" x="260.3779" y="546.0488">HttpStatus 409</text><polygon fill="#181818" points="100.8604,576.1016,90.8604,580.1016,100.8604,584.1016,96.8604,580.1016" style="stroke:#181818;stroke-width:1.0;"/><line style="stroke:#181818;stroke-width:1.0;stroke-dasharray:2.0,2.0;" x1="94.8604" x2="242.3779" y1="580.1016" y2="580.1016"/><text fill="#000000" font-family="sans-serif" font-size="13" lengthAdjust="spacing" textLength="94.834" x="106.8604" y="575.3594">HttpStatus 409</text><line style="stroke:#000000;stroke-width:1.0;stroke-dasharray:2.0,2.0;" x1="20" x2="670.1587" y1="596.1016" y2="596.1016"/><text fill="#000000" font-family="sans-serif" font-size="11" font-weight="bold" lengthAdjust="spacing" textLength="165.3384" x="25" y="606.7363">[actor is not "Administrator"]</text><polygon fill="#181818" points="254.3779,627.3672,244.3779,631.3672,254.3779,635.3672,250.3779,631.3672" style="stroke:#181818;stroke-width:1.0;"/><line style="stroke:#181818;stroke-width:1.0;stroke-dasharray:2.0,2.0;" x1="248.3779" x2="401.8804" y1="631.3672" y2="631.3672"/><text fill="#000000" font-family="sans-serif" font-size="13" lengthAdjust="spacing" textLength="94.834" x="260.3779" y="626.625">HttpStatus 403</text><polygon fill="#181818" points="100.8604,656.6777,90.8604,660.6777,100.8604,664.6777,96.8604,660.6777" style="stroke:#181818;stroke-width:1.0;"/><line style="stroke:#181818;stroke-width:1.0;stroke-dasharray:2.0,2.0;" x1="94.8604" x2="242.3779" y1="660.6777" y2="660.6777"/><text fill="#000000" font-family="sans-serif" font-size="13" lengthAdjust="spacing" textLength="94.834" x="106.8604" y="655.9355">HttpStatus 403</text><line style="stroke:#000000;stroke-width:1.0;stroke-dasharray:2.0,2.0;" x1="10" x2="680.1587" y1="676.6777" y2="676.6777"/><text fill="#000000" font-family="sans-serif" font-size="11" font-weight="bold" lengthAdjust="spacing" textLength="80.9155" x="15" y="687.3125">[jwt is absent]</text><polygon fill="#181818" points="100.8604,707.9434,90.8604,711.9434,100.8604,715.9434,96.8604,711.9434" style="stroke:#181818;stroke-width:1.0;"/><line style="stroke:#181818;stroke-width:1.0;stroke-dasharray:2.0,2.0;" x1="94.8604" x2="242.3779" y1="711.9434" y2="711.9434"/><text fill="#000000" font-family="sans-serif" font-size="13" lengthAdjust="spacing" textLength="94.834" x="106.8604" y="707.2012">HttpStatus 401</text><line style="stroke:#000000;stroke-width:1.0;stroke-dasharray:2.0,2.0;" x1="10" x2="680.1587" y1="720.9434" y2="720.9434"/><text fill="#000000" font-family="sans-serif" font-size="11" font-weight="bold" lengthAdjust="spacing" textLength="92.5815" x="15" y="731.5781">[jwt is not valid]</text><polygon fill="#181818" points="100.8604,752.209,90.8604,756.209,100.8604,760.209,96.8604,756.209" style="stroke:#181818;stroke-width:1.0;"/><line style="stroke:#181818;stroke-width:1.0;stroke-dasharray:2.0,2.0;" x1="94.8604" x2="242.3779" y1="756.209" y2="756.209"/><text fill="#000000" font-family="sans-serif" font-size="13" lengthAdjust="spacing" textLength="94.834" x="106.8604" y="751.4668">HttpStatus 403</text><!--SRC=[ZPDDRi8m48NtFiKeh16bxQOiAdLNYKMHw0KcoH1Skt5gEqbp-zhEZt0K2cm8Vc_cU_4Cc5cb8NdBltd9ZTNeVYQ01j2Vi0grvHcliBIG56YfnIx8HSjILPSvwWwIFNMPL2Y28aHSbQ55gOgW3SyiTzyf6eBae8mjD9aWLmNxgQbsntiy2UpR-IV6GXnOlphm3WuVnq_OOCKtpNQJAYKCArel2h63XZG_TV3Lvam8M8SIXjB2IlBYx65KEjK2Dz2Wv3a3z-dhXtoB1EyQzCYQdIaJWE4UjP8KZ7DUBplYxAQ3UTQvcffwCD2lSvl9M1NXdKRyT3udXjfSaO5IsRx9v5q06cm8Icf3NMICWR64Uc2cigP8cY7257SJ0AYXCiv3PRwSRvZvkxNLqQAj3Jm-R2EhdvrpXHMvQYJfrcsLAOqIiBPdDuxPpTwWFZ-yt4UzD8vl5T77NV23kRaFIq6Us1qXUfCFm2xfm-PZQiO9_DDZkrJgOyT_dAi9FFqF]--></g></svg>