<svg xmlns="http://www.w3.org/2000/svg" xmlns:xlink="http://www.w3.org/1999/xlink" contentStyleType="text/css" height="371px" preserveAspectRatio="none" style="width:365px;height:371px;background:#FFFFFF;" version="1.1" viewBox="0 0 365 371" width="365px" zoomAndPan="magnify"><defs/><g><rect fill="#90EE90" height="118.8867" style="stroke:#000000;stroke-width:1.5;" width="251.7427" x="106.2827" y="157.1094"/><rect fill="#D3D3D3" height="58.2656" style="stroke:none;stroke-width:1.0;" width="251.7427" x="106.2827" y="217.7305"/><line style="stroke:#181818;stroke-width:0.5;stroke-dasharray:5.0,5.0;" x1="33" x2="33" y1="67.4883" y2="292.9961"/><line style="stroke:#181818;stroke-width:0.5;stroke-dasharray:5.0,5.0;" x1="164.2827" x2="164.2827" y1="67.4883" y2="292.9961"/><line style="stroke:#181818;stroke-width:0.5;stroke-dasharray:5.0,5.0;" x1="315.9199" x2="315.9199" y1="67.4883" y2="292.9961"/><path d="M10,41 L57.9326,41 C62.9326,41 62.9326,54.2441 62.9326,54.2441 C62.9326,54.2441 62.9326,67.4883 57.9326,67.4883 L10,67.4883 C5,67.4883 5,54.2441 5,54.2441 C5,54.2441 5,41 10,41 " fill="#E2E2F0" style="stroke:#181818;stroke-width:0.5;"/><path d="M57.9326,41 C52.9326,41 52.9326,54.2441 52.9326,54.2441 C52.9326,67.4883 57.9326,67.4883 57.9326,67.4883 " fill="none" style="stroke:#181818;stroke-width:0.5;"/><text fill="#000000" font-family="sans-serif" font-size="14" lengthAdjust="spacing" textLength="37.9326" x="10" y="59.5352">Kafka</text><path d="M10,291.9961 L57.9326,291.9961 C62.9326,291.9961 62.9326,305.2402 62.9326,305.2402 C62.9326,305.2402 62.9326,318.4844 57.9326,318.4844 L10,318.4844 C5,318.4844 5,305.2402 5,305.2402 C5,305.2402 5,291.9961 10,291.9961 " fill="#E2E2F0" style="stroke:#181818;stroke-width:0.5;"/><path d="M57.9326,291.9961 C52.9326,291.9961 52.9326,305.2402 52.9326,305.2402 C52.9326,318.4844 57.9326,318.4844 57.9326,318.4844 " fill="none" style="stroke:#181818;stroke-width:0.5;"/><text fill="#000000" font-family="sans-serif" font-size="14" lengthAdjust="spacing" textLength="37.9326" x="10" y="310.5313">Kafka</text><rect fill="#E2E2F0" height="30.4883" rx="2.5" ry="2.5" style="stroke:#181818;stroke-width:0.5;" width="97.8291" x="116.2827" y="36"/><text fill="#000000" font-family="sans-serif" font-size="14" lengthAdjust="spacing" textLength="83.8291" x="123.2827" y="56.5352">email-notify</text><rect fill="#E2E2F0" height="30.4883" rx="2.5" ry="2.5" style="stroke:#181818;stroke-width:0.5;" width="97.8291" x="116.2827" y="291.9961"/><text fill="#000000" font-family="sans-serif" font-size="14" lengthAdjust="spacing" textLength="83.8291" x="123.2827" y="312.5313">email-notify</text><text fill="#000000" font-family="sans-serif" font-size="14" lengthAdjust="spacing" textLength="58.1055" x="283.9199" y="64.5352">Postgres</text><path d="M297.9727,15 C297.9727,5 315.9727,5 315.9727,5 C315.9727,5 333.9727,5 333.9727,15 L333.9727,41 C333.9727,51 315.9727,51 315.9727,51 C315.9727,51 297.9727,51 297.9727,41 L297.9727,15 " fill="#E2E2F0" style="stroke:#181818;stroke-width:1.5;"/><path d="M297.9727,15 C297.9727,25 315.9727,25 315.9727,25 C315.9727,25 333.9727,25 333.9727,15 " fill="none" style="stroke:#181818;stroke-width:1.5;"/><text fill="#000000" font-family="sans-serif" font-size="14" lengthAdjust="spacing" textLength="58.1055" x="283.9199" y="305.5313">Postgres</text><path d="M297.9727,318.4844 C297.9727,308.4844 315.9727,308.4844 315.9727,308.4844 C315.9727,308.4844 333.9727,308.4844 333.9727,318.4844 L333.9727,344.4844 C333.9727,354.4844 315.9727,354.4844 315.9727,354.4844 C315.9727,354.4844 297.9727,354.4844 297.9727,344.4844 L297.9727,318.4844 " fill="#E2E2F0" style="stroke:#181818;stroke-width:1.5;"/><path d="M297.9727,318.4844 C297.9727,328.4844 315.9727,328.4844 315.9727,328.4844 C315.9727,328.4844 333.9727,328.4844 333.9727,318.4844 " fill="none" style="stroke:#181818;stroke-width:1.5;"/><polygon fill="#181818" points="153.1973,94.7988,163.1973,98.7988,153.1973,102.7988,157.1973,98.7988" style="stroke:#181818;stroke-width:1.0;"/><line style="stroke:#181818;stroke-width:1.0;" x1="33.9663" x2="159.1973" y1="98.7988" y2="98.7988"/><text fill="#000000" font-family="sans-serif" font-size="13" lengthAdjust="spacing" textLength="107.231" x="40.9663" y="94.0566">new/update user</text><polygon fill="#181818" points="303.9727,124.1094,313.9727,128.1094,303.9727,132.1094,307.9727,128.1094" style="stroke:#181818;stroke-width:1.0;"/><line style="stroke:#181818;stroke-width:1.0;" x1="165.1973" x2="309.9727" y1="128.1094" y2="128.1094"/><text fill="#000000" font-family="sans-serif" font-size="13" lengthAdjust="spacing" textLength="91.2983" x="172.1973" y="123.3672">find user by id</text><polygon fill="#181818" points="176.1973,138.1094,166.1973,142.1094,176.1973,146.1094,172.1973,142.1094" style="stroke:#181818;stroke-width:1.0;"/><line style="stroke:#181818;stroke-width:1.0;stroke-dasharray:2.0,2.0;" x1="170.1973" x2="314.9727" y1="142.1094" y2="142.1094"/><path d="M106.2827,157.1094 L168.4214,157.1094 L168.4214,164.4199 L158.4214,174.4199 L106.2827,174.4199 L106.2827,157.1094 " fill="#EEEEEE" style="stroke:#000000;stroke-width:1.5;"/><rect fill="none" height="118.8867" style="stroke:#000000;stroke-width:1.5;" width="251.7427" x="106.2827" y="157.1094"/><text fill="#000000" font-family="sans-serif" font-size="13" font-weight="bold" lengthAdjust="spacing" textLength="17.1387" x="121.2827" y="170.6777">alt</text><text fill="#000000" font-family="sans-serif" font-size="11" font-weight="bold" lengthAdjust="spacing" textLength="70.9629" x="183.4214" y="169.7441">[User exists]</text><polygon fill="#181818" points="303.9727,191.7305,313.9727,195.7305,303.9727,199.7305,307.9727,195.7305" style="stroke:#181818;stroke-width:1.0;"/><line style="stroke:#181818;stroke-width:1.0;" x1="165.1973" x2="309.9727" y1="195.7305" y2="195.7305"/><text fill="#000000" font-family="sans-serif" font-size="13" lengthAdjust="spacing" textLength="113.2739" x="172.1973" y="190.9883">update user email</text><polygon fill="#181818" points="176.1973,205.7305,166.1973,209.7305,176.1973,213.7305,172.1973,209.7305" style="stroke:#181818;stroke-width:1.0;"/><line style="stroke:#181818;stroke-width:1.0;stroke-dasharray:2.0,2.0;" x1="170.1973" x2="314.9727" y1="209.7305" y2="209.7305"/><line style="stroke:#000000;stroke-width:1.0;stroke-dasharray:2.0,2.0;" x1="106.2827" x2="358.0254" y1="218.7305" y2="218.7305"/><text fill="#000000" font-family="sans-serif" font-size="11" font-weight="bold" lengthAdjust="spacing" textLength="117.6807" x="111.2827" y="229.3652">[User does not exist]</text><polygon fill="#181818" points="303.9727,249.9961,313.9727,253.9961,303.9727,257.9961,307.9727,253.9961" style="stroke:#181818;stroke-width:1.0;"/><line style="stroke:#181818;stroke-width:1.0;" x1="165.1973" x2="309.9727" y1="253.9961" y2="253.9961"/><text fill="#000000" font-family="sans-serif" font-size="13" lengthAdjust="spacing" textLength="126.7754" x="172.1973" y="249.2539">save new user email</text><polygon fill="#181818" points="176.1973,263.9961,166.1973,267.9961,176.1973,271.9961,172.1973,267.9961" style="stroke:#181818;stroke-width:1.0;"/><line style="stroke:#181818;stroke-width:1.0;stroke-dasharray:2.0,2.0;" x1="170.1973" x2="314.9727" y1="267.9961" y2="267.9961"/><!--SRC=[XOyz3i8m34Ptdy8gSyNUWGkmi700bxZ1QaX3am2zFVb15PMGo6Gvxtksxv4ZOtEaOQG6oUEOAt0q1xc88nkmuHk9QUqKP5WAKqjG5AWdd-AdoGSzio-_JWCK2xQ73zgXvUS-kfHWZ9vdgFrCEDtX85QLFlOBYWAdiLt3G2RWpeY-vXbiyPn1VeaF7Z2zhUjh2fRD2xCriabRhygb6jN4vRIg_c7szE1yo1-tLV06]--></g></svg>