<svg xmlns="http://www.w3.org/2000/svg" xmlns:xlink="http://www.w3.org/1999/xlink" contentStyleType="text/css" height="862px" preserveAspectRatio="none" style="width:725px;height:862px;background:#FFFFFF;" version="1.1" viewBox="0 0 725 862" width="725px" zoomAndPan="magnify"><defs/><g><rect fill="#90EE90" height="593.0996" style="stroke:#000000;stroke-width:1.5;" width="708.3091" x="10" y="171.1094"/><rect fill="#90EE90" height="401.6367" style="stroke:#000000;stroke-width:1.5;" width="688.3091" x="20" y="267.041"/><rect fill="#90EE90" height="253.4395" style="stroke:#000000;stroke-width:1.5;" width="668.3091" x="30" y="334.6621"/><rect fill="#ADD8E6" height="46.6211" style="stroke:#000000;stroke-width:1.5;" width="286.7051" x="401.604" y="402.2832"/><rect fill="#FF7F50" height="73.5762" style="stroke:none;stroke-width:1.0;" width="668.3091" x="30" y="514.5254"/><rect fill="#FF7F50" height="73.5762" style="stroke:none;stroke-width:1.0;" width="688.3091" x="20" y="595.1016"/><rect fill="#FF7F50" height="44.2656" style="stroke:none;stroke-width:1.0;" width="708.3091" x="10" y="675.6777"/><rect fill="#FF7F50" height="44.2656" style="stroke:none;stroke-width:1.0;" width="708.3091" x="10" y="719.9434"/><line style="stroke:#181818;stroke-width:0.5;stroke-dasharray:5.0,5.0;" x1="89" x2="89" y1="81.4883" y2="781.209"/><line style="stroke:#181818;stroke-width:0.5;stroke-dasharray:5.0,5.0;" x1="261.832" x2="261.832" y1="81.4883" y2="781.209"/><line style="stroke:#181818;stroke-width:0.5;stroke-dasharray:5.0,5.0;" x1="343.0713" x2="343.0713" y1="81.4883" y2="781.209"/><line style="stroke:#181818;stroke-width:0.5;stroke-dasharray:5.0,5.0;" x1="442.604" x2="442.604" y1="81.4883" y2="781.209"/><line style="stroke:#181818;stroke-width:0.5;stroke-dasharray:5.0,5.0;" x1="578.271" x2="578.271" y1="81.4883" y2="781.209"/><line style="stroke:#181818;stroke-width:0.5;stroke-dasharray:5.0,5.0;" x1="648.3765" x2="648.3765" y1="81.4883" y2="781.209"/><text fill="#000000" font-family="sans-serif" font-size="14" lengthAdjust="spacing" textLength="93.7207" x="40" y="78.5352">Administrator</text><ellipse cx="89.8604" cy="13.5" fill="#E2E2F0" rx="8" ry="8" style="stroke:#181818;stroke-width:0.5;"/><path d="M89.8604,21.5 L89.8604,48.5 M76.8604,29.5 L102.8604,29.5 M89.8604,48.5 L76.8604,63.5 M89.8604,48.5 L102.8604,63.5 " fill="none" style="stroke:#181818;stroke-width:0.5;"/><text fill="#000000" font-family="sans-serif" font-size="14" lengthAdjust="spacing" textLength="93.7207" x="40" y="793.7441">Administrator</text><ellipse cx="89.8604" cy="805.1973" fill="#E2E2F0" rx="8" ry="8" style="stroke:#181818;stroke-width:0.5;"/><path d="M89.8604,813.1973 L89.8604,840.1973 M76.8604,821.1973 L102.8604,821.1973 M89.8604,840.1973 L76.8604,855.1973 M89.8604,840.1973 L102.8604,855.1973 " fill="none" style="stroke:#181818;stroke-width:0.5;"/><rect fill="#E2E2F0" height="30.4883" rx="2.5" ry="2.5" style="stroke:#181818;stroke-width:0.5;" width="69.3301" x="227.832" y="50"/><text fill="#000000" font-family="sans-serif" font-size="14" lengthAdjust="spacing" textLength="55.3301" x="234.832" y="70.5352">gateway</text><rect fill="#E2E2F0" height="30.4883" rx="2.5" ry="2.5" style="stroke:#181818;stroke-width:0.5;" width="69.3301" x="227.832" y="780.209"/><text fill="#000000" font-family="sans-serif" font-size="14" lengthAdjust="spacing" textLength="55.3301" x="234.832" y="800.7441">gateway</text><text fill="#000000" font-family="sans-serif" font-size="14" lengthAdjust="spacing" textLength="59.9854" x="311.0713" y="78.5352">Keycloak</text><path d="M323.564,37 L323.564,61 M323.564,49 L340.564,49 " fill="none" style="stroke:#181818;stroke-width:0.5;"/><ellipse cx="352.564" cy="49" fill="#E2E2F0" rx="12" ry="12" style="stroke:#181818;stroke-width:0.5;"/><text fill="#000000" font-family="sans-serif" font-size="14" lengthAdjust="spacing" textLength="59.9854" x="311.0713" y="793.7441">Keycloak</text><path d="M323.564,800.6973 L323.564,824.6973 M323.564,812.6973 L340.564,812.6973 " fill="none" style="stroke:#181818;stroke-width:0.5;"/><ellipse cx="352.564" cy="812.6973" fill="#E2E2F0" rx="12" ry="12" style="stroke:#181818;stroke-width:0.5;"/><rect fill="#E2E2F0" height="30.4883" rx="2.5" ry="2.5" style="stroke:#181818;stroke-width:0.5;" width="63.2461" x="411.604" y="50"/><text fill="#000000" font-family="sans-serif" font-size="14" lengthAdjust="spacing" textLength="49.2461" x="418.604" y="70.5352">catalog</text><rect fill="#E2E2F0" height="30.4883" rx="2.5" ry="2.5" style="stroke:#181818;stroke-width:0.5;" width="63.2461" x="411.604" y="780.209"/><text fill="#000000" font-family="sans-serif" font-size="14" lengthAdjust="spacing" textLength="49.2461" x="418.604" y="800.7441">catalog</text><text fill="#000000" font-family="sans-serif" font-size="14" lengthAdjust="spacing" textLength="58.1055" x="546.271" y="78.5352">Postgres</text><path d="M560.3237,29 C560.3237,19 578.3237,19 578.3237,19 C578.3237,19 596.3237,19 596.3237,29 L596.3237,55 C596.3237,65 578.3237,65 578.3237,65 C578.3237,65 560.3237,65 560.3237,55 L560.3237,29 " fill="#E2E2F0" style="stroke:#181818;stroke-width:1.5;"/><path d="M560.3237,29 C560.3237,39 578.3237,39 578.3237,39 C578.3237,39 596.3237,39 596.3237,29 " fill="none" style="stroke:#181818;stroke-width:1.5;"/><text fill="#000000" font-family="sans-serif" font-size="14" lengthAdjust="spacing" textLength="58.1055" x="546.271" y="793.7441">Postgres</text><path d="M560.3237,806.6973 C560.3237,796.6973 578.3237,796.6973 578.3237,796.6973 C578.3237,796.6973 596.3237,796.6973 596.3237,806.6973 L596.3237,832.6973 C596.3237,842.6973 578.3237,842.6973 578.3237,842.6973 C578.3237,842.6973 560.3237,842.6973 560.3237,832.6973 L560.3237,806.6973 " fill="#E2E2F0" style="stroke:#181818;stroke-width:1.5;"/><path d="M560.3237,806.6973 C560.3237,816.6973 578.3237,816.6973 578.3237,816.6973 C578.3237,816.6973 596.3237,816.6973 596.3237,806.6973 " fill="none" style="stroke:#181818;stroke-width:1.5;"/><path d="M625.3765,55 L673.3091,55 C678.3091,55 678.3091,68.2441 678.3091,68.2441 C678.3091,68.2441 678.3091,81.4883 673.3091,81.4883 L625.3765,81.4883 C620.3765,81.4883 620.3765,68.2441 620.3765,68.2441 C620.3765,68.2441 620.3765,55 625.3765,55 " fill="#E2E2F0" style="stroke:#181818;stroke-width:0.5;"/><path d="M673.3091,55 C668.3091,55 668.3091,68.2441 668.3091,68.2441 C668.3091,81.4883 673.3091,81.4883 673.3091,81.4883 " fill="none" style="stroke:#181818;stroke-width:0.5;"/><text fill="#000000" font-family="sans-serif" font-size="14" lengthAdjust="spacing" textLength="37.9326" x="625.3765" y="73.5352">Kafka</text><path d="M625.3765,780.209 L673.3091,780.209 C678.3091,780.209 678.3091,793.4531 678.3091,793.4531 C678.3091,793.4531 678.3091,806.6973 673.3091,806.6973 L625.3765,806.6973 C620.3765,806.6973 620.3765,793.4531 620.3765,793.4531 C620.3765,793.4531 620.3765,780.209 625.3765,780.209 " fill="#E2E2F0" style="stroke:#181818;stroke-width:0.5;"/><path d="M673.3091,780.209 C668.3091,780.209 668.3091,793.4531 668.3091,793.4531 C668.3091,806.6973 673.3091,806.6973 673.3091,806.6973 " fill="none" style="stroke:#181818;stroke-width:0.5;"/><text fill="#000000" font-family="sans-serif" font-size="14" lengthAdjust="spacing" textLength="37.9326" x="625.3765" y="798.7441">Kafka</text><polygon fill="#181818" points="250.4971,108.7988,260.4971,112.7988,250.4971,116.7988,254.4971,112.7988" style="stroke:#181818;stroke-width:1.0;"/><line style="stroke:#181818;stroke-width:1.0;" x1="89.8604" x2="256.4971" y1="112.7988" y2="112.7988"/><text fill="#000000" font-family="sans-serif" font-size="13" lengthAdjust="spacing" textLength="148.6367" x="96.8604" y="108.0566">PUT /api/v1/books/{id}</text><polygon fill="#181818" points="332.064,138.1094,342.064,142.1094,332.064,146.1094,336.064,142.1094" style="stroke:#181818;stroke-width:1.0;"/><line style="stroke:#181818;stroke-width:1.0;" x1="262.4971" x2="338.064" y1="142.1094" y2="142.1094"/><text fill="#000000" font-family="sans-serif" font-size="13" lengthAdjust="spacing" textLength="57.5669" x="269.4971" y="137.3672">verify jwt</text><polygon fill="#181818" points="273.4971,152.1094,263.4971,156.1094,273.4971,160.1094,269.4971,156.1094" style="stroke:#181818;stroke-width:1.0;"/><line style="stroke:#181818;stroke-width:1.0;stroke-dasharray:2.0,2.0;" x1="267.4971" x2="343.064" y1="156.1094" y2="156.1094"/><path d="M10,171.1094 L72.1387,171.1094 L72.1387,178.4199 L62.1387,188.4199 L10,188.4199 L10,171.1094 " fill="#EEEEEE" style="stroke:#000000;stroke-width:1.5;"/><rect fill="none" height="593.0996" style="stroke:#000000;stroke-width:1.5;" width="708.3091" x="10" y="171.1094"/><text fill="#000000" font-family="sans-serif" font-size="13" font-weight="bold" lengthAdjust="spacing" textLength="17.1387" x="25" y="184.6777">alt</text><text fill="#000000" font-family="sans-serif" font-size="11" font-weight="bold" lengthAdjust="spacing" textLength="70.2485" x="87.1387" y="183.7441">[jwt is valid]</text><polygon fill="#181818" points="431.2271,205.7305,441.2271,209.7305,431.2271,213.7305,435.2271,209.7305" style="stroke:#181818;stroke-width:1.0;"/><line style="stroke:#181818;stroke-width:1.0;" x1="262.4971" x2="437.2271" y1="209.7305" y2="209.7305"/><text fill="#000000" font-family="sans-serif" font-size="13" lengthAdjust="spacing" textLength="156.73" x="269.4971" y="204.9883">POST /api/v1/books/{id}</text><line style="stroke:#181818;stroke-width:1.0;" x1="443.2271" x2="485.2271" y1="239.041" y2="239.041"/><line style="stroke:#181818;stroke-width:1.0;" x1="485.2271" x2="485.2271" y1="239.041" y2="252.041"/><line style="stroke:#181818;stroke-width:1.0;" x1="444.2271" x2="485.2271" y1="252.041" y2="252.041"/><polygon fill="#181818" points="454.2271,248.041,444.2271,252.041,454.2271,256.041,450.2271,252.041" style="stroke:#181818;stroke-width:1.0;"/><text fill="#000000" font-family="sans-serif" font-size="13" lengthAdjust="spacing" textLength="87.5913" x="450.2271" y="234.2988">check jwt role</text><path d="M20,267.041 L82.1387,267.041 L82.1387,274.3516 L72.1387,284.3516 L20,284.3516 L20,267.041 " fill="#EEEEEE" style="stroke:#000000;stroke-width:1.5;"/><rect fill="none" height="401.6367" style="stroke:#000000;stroke-width:1.5;" width="688.3091" x="20" y="267.041"/><text fill="#000000" font-family="sans-serif" font-size="13" font-weight="bold" lengthAdjust="spacing" textLength="17.1387" x="35" y="280.6094">alt</text><text fill="#000000" font-family="sans-serif" font-size="11" font-weight="bold" lengthAdjust="spacing" textLength="143.0054" x="97.1387" y="279.6758">[actor is "Administrator"]</text><polygon fill="#181818" points="566.3237,301.6621,576.3237,305.6621,566.3237,309.6621,570.3237,305.6621" style="stroke:#181818;stroke-width:1.0;"/><line style="stroke:#181818;stroke-width:1.0;" x1="443.2271" x2="572.3237" y1="305.6621" y2="305.6621"/><text fill="#000000" font-family="sans-serif" font-size="13" lengthAdjust="spacing" textLength="89.6606" x="450.2271" y="300.9199">get book by is</text><polygon fill="#181818" points="454.2271,315.6621,444.2271,319.6621,454.2271,323.6621,450.2271,319.6621" style="stroke:#181818;stroke-width:1.0;"/><line style="stroke:#181818;stroke-width:1.0;stroke-dasharray:2.0,2.0;" x1="448.2271" x2="577.3237" y1="319.6621" y2="319.6621"/><path d="M30,334.6621 L92.1387,334.6621 L92.1387,341.9727 L82.1387,351.9727 L30,351.9727 L30,334.6621 " fill="#EEEEEE" style="stroke:#000000;stroke-width:1.5;"/><rect fill="none" height="253.4395" style="stroke:#000000;stroke-width:1.5;" width="668.3091" x="30" y="334.6621"/><text fill="#000000" font-family="sans-serif" font-size="13" font-weight="bold" lengthAdjust="spacing" textLength="17.1387" x="45" y="348.2305">alt</text><text fill="#000000" font-family="sans-serif" font-size="11" font-weight="bold" lengthAdjust="spacing" textLength="73.498" x="107.1387" y="347.2969">[book exists]</text><polygon fill="#181818" points="566.3237,369.2832,576.3237,373.2832,566.3237,377.2832,570.3237,373.2832" style="stroke:#181818;stroke-width:1.0;"/><line style="stroke:#181818;stroke-width:1.0;" x1="443.2271" x2="572.3237" y1="373.2832" y2="373.2832"/><text fill="#000000" font-family="sans-serif" font-size="13" lengthAdjust="spacing" textLength="111.0967" x="450.2271" y="368.541">update book data</text><polygon fill="#181818" points="454.2271,383.2832,444.2271,387.2832,454.2271,391.2832,450.2271,387.2832" style="stroke:#181818;stroke-width:1.0;"/><line style="stroke:#181818;stroke-width:1.0;stroke-dasharray:2.0,2.0;" x1="448.2271" x2="577.3237" y1="387.2832" y2="387.2832"/><path d="M401.604,402.2832 L468.77,402.2832 L468.77,409.5938 L458.77,419.5938 L401.604,419.5938 L401.604,402.2832 " fill="#EEEEEE" style="stroke:#000000;stroke-width:1.5;"/><rect fill="none" height="46.6211" style="stroke:#000000;stroke-width:1.5;" width="286.7051" x="401.604" y="402.2832"/><text fill="#000000" font-family="sans-serif" font-size="13" font-weight="bold" lengthAdjust="spacing" textLength="22.166" x="416.604" y="415.8516">par</text><polygon fill="#181818" points="637.3428,436.9043,647.3428,440.9043,637.3428,444.9043,641.3428,440.9043" style="stroke:#181818;stroke-width:1.0;"/><line style="stroke:#181818;stroke-width:1.0;" x1="443.2271" x2="643.3428" y1="440.9043" y2="440.9043"/><text fill="#000000" font-family="sans-serif" font-size="13" lengthAdjust="spacing" textLength="117.8379" x="450.2271" y="436.1621">update book event</text><polygon fill="#181818" points="273.4971,473.2148,263.4971,477.2148,273.4971,481.2148,269.4971,477.2148" style="stroke:#181818;stroke-width:1.0;"/><line style="stroke:#181818;stroke-width:1.0;stroke-dasharray:2.0,2.0;" x1="267.4971" x2="442.2271" y1="477.2148" y2="477.2148"/><text fill="#000000" font-family="sans-serif" font-size="13" lengthAdjust="spacing" textLength="94.834" x="279.4971" y="472.4727">HttpStatus 200</text><polygon fill="#181818" points="100.8604,502.5254,90.8604,506.5254,100.8604,510.5254,96.8604,506.5254" style="stroke:#181818;stroke-width:1.0;"/><line style="stroke:#181818;stroke-width:1.0;stroke-dasharray:2.0,2.0;" x1="94.8604" x2="261.4971" y1="506.5254" y2="506.5254"/><text fill="#000000" font-family="sans-serif" font-size="13" lengthAdjust="spacing" textLength="94.834" x="106.8604" y="501.7832">HttpStatus 200</text><line style="stroke:#000000;stroke-width:1.0;stroke-dasharray:2.0,2.0;" x1="30" x2="698.3091" y1="515.5254" y2="515.5254"/><text fill="#000000" font-family="sans-serif" font-size="11" font-weight="bold" lengthAdjust="spacing" textLength="129.3145" x="35" y="526.1602">[author does not exist]</text><polygon fill="#181818" points="273.4971,546.791,263.4971,550.791,273.4971,554.791,269.4971,550.791" style="stroke:#181818;stroke-width:1.0;"/><line style="stroke:#181818;stroke-width:1.0;stroke-dasharray:2.0,2.0;" x1="267.4971" x2="442.2271" y1="550.791" y2="550.791"/><text fill="#000000" font-family="sans-serif" font-size="13" lengthAdjust="spacing" textLength="94.834" x="279.4971" y="546.0488">HttpStatus 404</text><polygon fill="#181818" points="100.8604,576.1016,90.8604,580.1016,100.8604,584.1016,96.8604,580.1016" style="stroke:#181818;stroke-width:1.0;"/><line style="stroke:#181818;stroke-width:1.0;stroke-dasharray:2.0,2.0;" x1="94.8604" x2="261.4971" y1="580.1016" y2="580.1016"/><text fill="#000000" font-family="sans-serif" font-size="13" lengthAdjust="spacing" textLength="94.834" x="106.8604" y="575.3594">HttpStatus 404</text><line style="stroke:#000000;stroke-width:1.0;stroke-dasharray:2.0,2.0;" x1="20" x2="708.3091" y1="596.1016" y2="596.1016"/><text fill="#000000" font-family="sans-serif" font-size="11" font-weight="bold" lengthAdjust="spacing" textLength="165.3384" x="25" y="606.7363">[actor is not "Administrator"]</text><polygon fill="#181818" points="273.4971,627.3672,263.4971,631.3672,273.4971,635.3672,269.4971,631.3672" style="stroke:#181818;stroke-width:1.0;"/><line style="stroke:#181818;stroke-width:1.0;stroke-dasharray:2.0,2.0;" x1="267.4971" x2="442.2271" y1="631.3672" y2="631.3672"/><text fill="#000000" font-family="sans-serif" font-size="13" lengthAdjust="spacing" textLength="94.834" x="279.4971" y="626.625">HttpStatus 403</text><polygon fill="#181818" points="100.8604,656.6777,90.8604,660.6777,100.8604,664.6777,96.8604,660.6777" style="stroke:#181818;stroke-width:1.0;"/><line style="stroke:#181818;stroke-width:1.0;stroke-dasharray:2.0,2.0;" x1="94.8604" x2="261.4971" y1="660.6777" y2="660.6777"/><text fill="#000000" font-family="sans-serif" font-size="13" lengthAdjust="spacing" textLength="94.834" x="106.8604" y="655.9355">HttpStatus 403</text><line style="stroke:#000000;stroke-width:1.0;stroke-dasharray:2.0,2.0;" x1="10" x2="718.3091" y1="676.6777" y2="676.6777"/><text fill="#000000" font-family="sans-serif" font-size="11" font-weight="bold" lengthAdjust="spacing" textLength="80.9155" x="15" y="687.3125">[jwt is absent]</text><polygon fill="#181818" points="100.8604,707.9434,90.8604,711.9434,100.8604,715.9434,96.8604,711.9434" style="stroke:#181818;stroke-width:1.0;"/><line style="stroke:#181818;stroke-width:1.0;stroke-dasharray:2.0,2.0;" x1="94.8604" x2="261.4971" y1="711.9434" y2="711.9434"/><text fill="#000000" font-family="sans-serif" font-size="13" lengthAdjust="spacing" textLength="94.834" x="106.8604" y="707.2012">HttpStatus 401</text><line style="stroke:#000000;stroke-width:1.0;stroke-dasharray:2.0,2.0;" x1="10" x2="718.3091" y1="720.9434" y2="720.9434"/><text fill="#000000" font-family="sans-serif" font-size="11" font-weight="bold" lengthAdjust="spacing" textLength="92.5815" x="15" y="731.5781">[jwt is not valid]</text><polygon fill="#181818" points="100.8604,752.209,90.8604,756.209,100.8604,760.209,96.8604,756.209" style="stroke:#181818;stroke-width:1.0;"/><line style="stroke:#181818;stroke-width:1.0;stroke-dasharray:2.0,2.0;" x1="94.8604" x2="261.4971" y1="756.209" y2="756.209"/><text fill="#000000" font-family="sans-serif" font-size="13" lengthAdjust="spacing" textLength="94.834" x="106.8604" y="751.4668">HttpStatus 403</text><!--SRC=[ZPFFJiCm3CRlUGghdD76dnC796v879WqU02tDLb8Q4hYRbI8ToT9ErYg3jPBq_YpVrzY5oks3egx-aqrohF3y5a0Ui2u8rfqh2hLOiDGI6JQOP_2SYTAspKrkXwA1-ehOr6dYDPvLeMCnieK6zUY3kyIFK6nifwb8v_2hHJl7NLX-m5VD0xbuag8P0VERmFu1bRFJx30LYss5ulIMkqNdwh-4d8N1LhVm9QSUkdXTST2QpXFQG8DmvbHSXE1rCGeA0zRDAeM49uXV_GOA8_hMKoKZg9CNsseqgcgiuQIR8h4TDi1Ehdm99xKRKD9IGoH36KVidvKhKndsfD_zgUub4eV0VEREqFfsj0F6jInCvasP-KXT2EkD1rbeGabDJ47qPOQpdAegUTTZbs_PsxNZDnvk5mkCsdiN52b8Jag91C6xgoo3WrWnvlGYTgIXyRoS4cdqg-NrwVH3uNxqsKkzkCGBVmx4dD6hiG99WPHD20EwUFyO-dtdVYZniLSQhIT_pv77KJwDm00]--></g></svg>