<svg xmlns="http://www.w3.org/2000/svg" xmlns:xlink="http://www.w3.org/1999/xlink" contentStyleType="text/css" height="447px" preserveAspectRatio="none" style="width:518px;height:447px;background:#FFFFFF;" version="1.1" viewBox="0 0 518 447" width="518px" zoomAndPan="magnify"><defs/><g><rect fill="#90EE90" height="149.5078" style="stroke:#000000;stroke-width:1.5;" width="372.8462" x="10" y="200.4199"/><rect fill="#FF7F50" height="73.5762" style="stroke:none;stroke-width:1.0;" width="372.8462" x="10" y="276.3516"/><line style="stroke:#181818;stroke-width:0.5;stroke-dasharray:5.0,5.0;" x1="38" x2="38" y1="81.4883" y2="366.9277"/><line style="stroke:#181818;stroke-width:0.5;stroke-dasharray:5.0,5.0;" x1="198.5635" x2="198.5635" y1="81.4883" y2="366.9277"/><line style="stroke:#181818;stroke-width:0.5;stroke-dasharray:5.0,5.0;" x1="323.4634" x2="323.4634" y1="81.4883" y2="366.9277"/><line style="stroke:#181818;stroke-width:0.5;stroke-dasharray:5.0,5.0;" x1="483.1685" x2="483.1685" y1="81.4883" y2="366.9277"/><text fill="#000000" font-family="sans-serif" font-size="14" lengthAdjust="spacing" textLength="30.3652" x="20" y="78.5352">User</text><ellipse cx="38.1826" cy="13.5" fill="#E2E2F0" rx="8" ry="8" style="stroke:#181818;stroke-width:0.5;"/><path d="M38.1826,21.5 L38.1826,48.5 M25.1826,29.5 L51.1826,29.5 M38.1826,48.5 L25.1826,63.5 M38.1826,48.5 L51.1826,63.5 " fill="none" style="stroke:#181818;stroke-width:0.5;"/><text fill="#000000" font-family="sans-serif" font-size="14" lengthAdjust="spacing" textLength="30.3652" x="20" y="379.4629">User</text><ellipse cx="38.1826" cy="390.916" fill="#E2E2F0" rx="8" ry="8" style="stroke:#181818;stroke-width:0.5;"/><path d="M38.1826,398.916 L38.1826,425.916 M25.1826,406.916 L51.1826,406.916 M38.1826,425.916 L25.1826,440.916 M38.1826,425.916 L51.1826,440.916 " fill="none" style="stroke:#181818;stroke-width:0.5;"/><rect fill="#E2E2F0" height="30.4883" rx="2.5" ry="2.5" style="stroke:#181818;stroke-width:0.5;" width="69.3301" x="164.5635" y="50"/><text fill="#000000" font-family="sans-serif" font-size="14" lengthAdjust="spacing" textLength="55.3301" x="171.5635" y="70.5352">gateway</text><rect fill="#E2E2F0" height="30.4883" rx="2.5" ry="2.5" style="stroke:#181818;stroke-width:0.5;" width="69.3301" x="164.5635" y="365.9277"/><text fill="#000000" font-family="sans-serif" font-size="14" lengthAdjust="spacing" textLength="55.3301" x="171.5635" y="386.4629">gateway</text><rect fill="#E2E2F0" height="30.4883" rx="2.5" ry="2.5" style="stroke:#181818;stroke-width:0.5;" width="98.3828" x="274.4634" y="50"/><text fill="#000000" font-family="sans-serif" font-size="14" lengthAdjust="spacing" textLength="84.3828" x="281.4634" y="70.5352">user-service</text><rect fill="#E2E2F0" height="30.4883" rx="2.5" ry="2.5" style="stroke:#181818;stroke-width:0.5;" width="98.3828" x="274.4634" y="365.9277"/><text fill="#000000" font-family="sans-serif" font-size="14" lengthAdjust="spacing" textLength="84.3828" x="281.4634" y="386.4629">user-service</text><text fill="#000000" font-family="sans-serif" font-size="14" lengthAdjust="spacing" textLength="59.9854" x="451.1685" y="78.5352">Keycloak</text><path d="M463.6611,37 L463.6611,61 M463.6611,49 L480.6611,49 " fill="none" style="stroke:#181818;stroke-width:0.5;"/><ellipse cx="492.6611" cy="49" fill="#E2E2F0" rx="12" ry="12" style="stroke:#181818;stroke-width:0.5;"/><text fill="#000000" font-family="sans-serif" font-size="14" lengthAdjust="spacing" textLength="59.9854" x="451.1685" y="379.4629">Keycloak</text><path d="M463.6611,386.416 L463.6611,410.416 M463.6611,398.416 L480.6611,398.416 " fill="none" style="stroke:#181818;stroke-width:0.5;"/><ellipse cx="492.6611" cy="398.416" fill="#E2E2F0" rx="12" ry="12" style="stroke:#181818;stroke-width:0.5;"/><polygon fill="#181818" points="187.2285,108.7988,197.2285,112.7988,187.2285,116.7988,191.2285,112.7988" style="stroke:#181818;stroke-width:1.0;"/><line style="stroke:#181818;stroke-width:1.0;" x1="38.1826" x2="193.2285" y1="112.7988" y2="112.7988"/><text fill="#000000" font-family="sans-serif" font-size="13" lengthAdjust="spacing" textLength="137.0459" x="45.1826" y="108.0566">POST /api/v1/sign-in</text><polygon fill="#181818" points="311.6548,138.1094,321.6548,142.1094,311.6548,146.1094,315.6548,142.1094" style="stroke:#181818;stroke-width:1.0;"/><line style="stroke:#181818;stroke-width:1.0;" x1="199.2285" x2="317.6548" y1="142.1094" y2="142.1094"/><text fill="#000000" font-family="sans-serif" font-size="13" lengthAdjust="spacing" textLength="100.4263" x="206.2285" y="137.3672">/api/v1/sign-in</text><polygon fill="#181818" points="472.1611,167.4199,482.1611,171.4199,472.1611,175.4199,476.1611,171.4199" style="stroke:#181818;stroke-width:1.0;"/><line style="stroke:#181818;stroke-width:1.0;" x1="323.6548" x2="478.1611" y1="171.4199" y2="171.4199"/><text fill="#000000" font-family="sans-serif" font-size="13" lengthAdjust="spacing" textLength="136.5063" x="330.6548" y="166.6777">us by login/password</text><polygon fill="#181818" points="334.6548,181.4199,324.6548,185.4199,334.6548,189.4199,330.6548,185.4199" style="stroke:#181818;stroke-width:1.0;"/><line style="stroke:#181818;stroke-width:1.0;stroke-dasharray:2.0,2.0;" x1="328.6548" x2="483.1611" y1="185.4199" y2="185.4199"/><path d="M10,200.4199 L72.1387,200.4199 L72.1387,207.7305 L62.1387,217.7305 L10,217.7305 L10,200.4199 " fill="#EEEEEE" style="stroke:#000000;stroke-width:1.5;"/><rect fill="none" height="149.5078" style="stroke:#000000;stroke-width:1.5;" width="372.8462" x="10" y="200.4199"/><text fill="#000000" font-family="sans-serif" font-size="13" font-weight="bold" lengthAdjust="spacing" textLength="17.1387" x="25" y="213.9883">alt</text><text fill="#000000" font-family="sans-serif" font-size="11" font-weight="bold" lengthAdjust="spacing" textLength="125.2915" x="87.1387" y="213.0547">[Credentials are valid]</text><polygon fill="#181818" points="210.2285,235.041,200.2285,239.041,210.2285,243.041,206.2285,239.041" style="stroke:#181818;stroke-width:1.0;"/><line style="stroke:#181818;stroke-width:1.0;stroke-dasharray:2.0,2.0;" x1="204.2285" x2="322.6548" y1="239.041" y2="239.041"/><text fill="#000000" font-family="sans-serif" font-size="13" lengthAdjust="spacing" textLength="18.8335" x="216.2285" y="234.2988">jwt</text><polygon fill="#181818" points="49.1826,264.3516,39.1826,268.3516,49.1826,272.3516,45.1826,268.3516" style="stroke:#181818;stroke-width:1.0;"/><line style="stroke:#181818;stroke-width:1.0;stroke-dasharray:2.0,2.0;" x1="43.1826" x2="198.2285" y1="268.3516" y2="268.3516"/><text fill="#000000" font-family="sans-serif" font-size="13" lengthAdjust="spacing" textLength="18.8335" x="55.1826" y="263.6094">jwt</text><line style="stroke:#000000;stroke-width:1.0;stroke-dasharray:2.0,2.0;" x1="10" x2="382.8462" y1="277.3516" y2="277.3516"/><text fill="#000000" font-family="sans-serif" font-size="11" font-weight="bold" lengthAdjust="spacing" textLength="133.4448" x="15" y="287.9863">[[Credentials] are valid]</text><polygon fill="#181818" points="210.2285,308.6172,200.2285,312.6172,210.2285,316.6172,206.2285,312.6172" style="stroke:#181818;stroke-width:1.0;"/><line style="stroke:#181818;stroke-width:1.0;stroke-dasharray:2.0,2.0;" x1="204.2285" x2="322.6548" y1="312.6172" y2="312.6172"/><text fill="#000000" font-family="sans-serif" font-size="13" lengthAdjust="spacing" textLength="94.834" x="216.2285" y="307.875">HttpStatus 401</text><polygon fill="#181818" points="49.1826,337.9277,39.1826,341.9277,49.1826,345.9277,45.1826,341.9277" style="stroke:#181818;stroke-width:1.0;"/><line style="stroke:#181818;stroke-width:1.0;stroke-dasharray:2.0,2.0;" x1="43.1826" x2="198.2285" y1="341.9277" y2="341.9277"/><text fill="#000000" font-family="sans-serif" font-size="13" lengthAdjust="spacing" textLength="94.834" x="55.1826" y="337.1855">HttpStatus 401</text><!--SRC=[TOx1IWGn38RlVOemUnx61KzpyE95yA2mUX8FsKwejQKjQMRAlBrjtOEw62Y4_qk-5BL4Xk4r4m-06TRQg8GiLjk4GM0mA5HmxzIKtwnDZ_LjLjDbNPtZ6XRa7OP7shMFw3fnJgas3kDTrSpm_7HwWGcJdRRZbAq9emtAb8RNF5-HDJVYt5mfd7VmqTWm9SovH5wKSp3sJOLUuE2j-H33H07kcHOAOj5dG2ROqDj5GQscl7pciqYFslsk8VuEoMU2WuwC7jv-gDx_Tps8f9EWrEZsvdYj_SCfBEeB]--></g></svg>