<svg xmlns="http://www.w3.org/2000/svg" xmlns:xlink="http://www.w3.org/1999/xlink" contentStyleType="text/css" height="925px" preserveAspectRatio="none" style="width:684px;height:925px;background:#FFFFFF;" version="1.1" viewBox="0 0 684 925" width="684px" zoomAndPan="magnify"><defs/><g><line style="stroke:#181818;stroke-width:0.5;stroke-dasharray:5.0,5.0;" x1="48" x2="48" y1="81.4883" y2="844.1152"/><line style="stroke:#181818;stroke-width:0.5;stroke-dasharray:5.0,5.0;" x1="162.3652" x2="162.3652" y1="81.4883" y2="844.1152"/><line style="stroke:#181818;stroke-width:0.5;stroke-dasharray:5.0,5.0;" x1="293.0322" x2="293.0322" y1="81.4883" y2="844.1152"/><line style="stroke:#181818;stroke-width:0.5;stroke-dasharray:5.0,5.0;" x1="476.0449" x2="476.0449" y1="81.4883" y2="844.1152"/><line style="stroke:#181818;stroke-width:0.5;stroke-dasharray:5.0,5.0;" x1="605.748" x2="605.748" y1="81.4883" y2="844.1152"/><text fill="#000000" font-family="sans-serif" font-size="14" lengthAdjust="spacing" textLength="30.3652" x="30" y="78.5352">User</text><ellipse cx="48.1826" cy="13.5" fill="#E2E2F0" rx="8" ry="8" style="stroke:#181818;stroke-width:0.5;"/><path d="M48.1826,21.5 L48.1826,48.5 M35.1826,29.5 L61.1826,29.5 M48.1826,48.5 L35.1826,63.5 M48.1826,48.5 L61.1826,63.5 " fill="none" style="stroke:#181818;stroke-width:0.5;"/><text fill="#000000" font-family="sans-serif" font-size="14" lengthAdjust="spacing" textLength="30.3652" x="30" y="856.6504">User</text><ellipse cx="48.1826" cy="868.1035" fill="#E2E2F0" rx="8" ry="8" style="stroke:#181818;stroke-width:0.5;"/><path d="M48.1826,876.1035 L48.1826,903.1035 M35.1826,884.1035 L61.1826,884.1035 M48.1826,903.1035 L35.1826,918.1035 M48.1826,903.1035 L61.1826,918.1035 " fill="none" style="stroke:#181818;stroke-width:0.5;"/><text fill="#000000" font-family="sans-serif" font-size="14" lengthAdjust="spacing" textLength="166.667" x="76.3652" y="78.5352">Nginx Ingress Controller</text><path d="M142.1987,37 L142.1987,61 M142.1987,49 L159.1987,49 " fill="none" style="stroke:#181818;stroke-width:0.5;"/><ellipse cx="171.1987" cy="49" fill="#E2E2F0" rx="12" ry="12" style="stroke:#181818;stroke-width:0.5;"/><text fill="#000000" font-family="sans-serif" font-size="14" lengthAdjust="spacing" textLength="166.667" x="76.3652" y="856.6504">Nginx Ingress Controller</text><path d="M142.1987,863.6035 L142.1987,887.6035 M142.1987,875.6035 L159.1987,875.6035 " fill="none" style="stroke:#181818;stroke-width:0.5;"/><ellipse cx="171.1987" cy="875.6035" fill="#E2E2F0" rx="12" ry="12" style="stroke:#181818;stroke-width:0.5;"/><rect fill="#E2E2F0" height="30.4883" rx="2.5" ry="2.5" style="stroke:#181818;stroke-width:0.5;" width="69.3301" x="259.0322" y="50"/><text fill="#000000" font-family="sans-serif" font-size="14" lengthAdjust="spacing" textLength="55.3301" x="266.0322" y="70.5352">gateway</text><rect fill="#E2E2F0" height="30.4883" rx="2.5" ry="2.5" style="stroke:#181818;stroke-width:0.5;" width="69.3301" x="259.0322" y="843.1152"/><text fill="#000000" font-family="sans-serif" font-size="14" lengthAdjust="spacing" textLength="55.3301" x="266.0322" y="863.6504">gateway</text><rect fill="#E2E2F0" height="30.4883" rx="2.5" ry="2.5" style="stroke:#181818;stroke-width:0.5;" width="95.7031" x="429.0449" y="50"/><text fill="#000000" font-family="sans-serif" font-size="14" lengthAdjust="spacing" textLength="81.7031" x="436.0449" y="70.5352">auth service</text><rect fill="#E2E2F0" height="30.4883" rx="2.5" ry="2.5" style="stroke:#181818;stroke-width:0.5;" width="95.7031" x="429.0449" y="843.1152"/><text fill="#000000" font-family="sans-serif" font-size="14" lengthAdjust="spacing" textLength="81.7031" x="436.0449" y="863.6504">auth service</text><rect fill="#E2E2F0" height="30.4883" rx="2.5" ry="2.5" style="stroke:#181818;stroke-width:0.5;" width="143.3223" x="534.748" y="50"/><text fill="#000000" font-family="sans-serif" font-size="14" lengthAdjust="spacing" textLength="129.3223" x="541.748" y="70.5352">user profile service</text><rect fill="#E2E2F0" height="30.4883" rx="2.5" ry="2.5" style="stroke:#181818;stroke-width:0.5;" width="143.3223" x="534.748" y="843.1152"/><text fill="#000000" font-family="sans-serif" font-size="14" lengthAdjust="spacing" textLength="129.3223" x="541.748" y="863.6504">user profile service</text><polygon fill="#181818" points="150.6987,108.7988,160.6987,112.7988,150.6987,116.7988,154.6987,112.7988" style="stroke:#181818;stroke-width:1.0;"/><line style="stroke:#181818;stroke-width:1.0;" x1="48.1826" x2="156.6987" y1="112.7988" y2="112.7988"/><text fill="#000000" font-family="sans-serif" font-size="13" lengthAdjust="spacing" textLength="89.3433" x="55.1826" y="108.0566">POST /sign-in</text><path d="M53,125.7988 L53,211.7988 L243,211.7988 L243,135.7988 L233,125.7988 L53,125.7988 " fill="#FEFFDD" style="stroke:#181818;stroke-width:0.5;"/><path d="M233,125.7988 L233,135.7988 L243,135.7988 L233,125.7988 " fill="#FEFFDD" style="stroke:#181818;stroke-width:0.5;"/><text fill="#000000" font-family="sans-serif" font-size="13" lengthAdjust="spacing" textLength="89.813" x="59" y="143.3672">Request body:</text><text fill="#000000" font-family="sans-serif" font-size="13" lengthAdjust="spacing" textLength="4.2275" x="59" y="158.6777">{</text><text fill="#000000" font-family="sans-serif" font-size="13" lengthAdjust="spacing" textLength="90.6953" x="75.4531" y="173.9883">"login": "user",</text><text fill="#000000" font-family="sans-serif" font-size="13" lengthAdjust="spacing" textLength="152.7437" x="75.4531" y="189.2988">"password": "password""</text><text fill="#000000" font-family="sans-serif" font-size="13" lengthAdjust="spacing" textLength="4.2275" x="59" y="204.6094">}</text><polygon fill="#181818" points="281.6973,234.6621,291.6973,238.6621,281.6973,242.6621,285.6973,238.6621" style="stroke:#181818;stroke-width:1.0;"/><line style="stroke:#181818;stroke-width:1.0;" x1="162.6987" x2="287.6973" y1="238.6621" y2="238.6621"/><text fill="#000000" font-family="sans-serif" font-size="13" lengthAdjust="spacing" textLength="100.439" x="169.6987" y="233.9199">forward request</text><polygon fill="#181818" points="464.8965,263.9727,474.8965,267.9727,464.8965,271.9727,468.8965,267.9727" style="stroke:#181818;stroke-width:1.0;"/><line style="stroke:#181818;stroke-width:1.0;" x1="293.6973" x2="470.8965" y1="267.9727" y2="267.9727"/><text fill="#000000" font-family="sans-serif" font-size="13" lengthAdjust="spacing" textLength="159.1992" x="300.6973" y="263.2305">forward to POST /sign-in</text><polygon fill="#181818" points="304.6973,293.2832,294.6973,297.2832,304.6973,301.2832,300.6973,297.2832" style="stroke:#181818;stroke-width:1.0;"/><line style="stroke:#181818;stroke-width:1.0;stroke-dasharray:2.0,2.0;" x1="298.6973" x2="475.8965" y1="297.2832" y2="297.2832"/><text fill="#000000" font-family="sans-serif" font-size="13" lengthAdjust="spacing" textLength="44.2114" x="310.6973" y="292.541">{token}</text><polygon fill="#181818" points="173.6987,322.5938,163.6987,326.5938,173.6987,330.5938,169.6987,326.5938" style="stroke:#181818;stroke-width:1.0;"/><line style="stroke:#181818;stroke-width:1.0;stroke-dasharray:2.0,2.0;" x1="167.6987" x2="292.6973" y1="326.5938" y2="326.5938"/><text fill="#000000" font-family="sans-serif" font-size="13" lengthAdjust="spacing" textLength="44.2114" x="179.6987" y="321.8516">{token}</text><polygon fill="#181818" points="59.1826,351.9043,49.1826,355.9043,59.1826,359.9043,55.1826,355.9043" style="stroke:#181818;stroke-width:1.0;"/><line style="stroke:#181818;stroke-width:1.0;stroke-dasharray:2.0,2.0;" x1="53.1826" x2="161.6987" y1="355.9043" y2="355.9043"/><text fill="#000000" font-family="sans-serif" font-size="13" lengthAdjust="spacing" textLength="44.2114" x="65.1826" y="351.1621">{token}</text><polygon fill="#181818" points="150.6987,381.2148,160.6987,385.2148,150.6987,389.2148,154.6987,385.2148" style="stroke:#181818;stroke-width:1.0;"/><line style="stroke:#181818;stroke-width:1.0;" x1="48.1826" x2="156.6987" y1="385.2148" y2="385.2148"/><text fill="#000000" font-family="sans-serif" font-size="13" lengthAdjust="spacing" textLength="76.6162" x="55.1826" y="380.4727">GET /profile</text><path d="M53,398.2148 L53,438.2148 L229,438.2148 L229,408.2148 L219,398.2148 L53,398.2148 " fill="#FEFFDD" style="stroke:#181818;stroke-width:0.5;"/><path d="M219,398.2148 L219,408.2148 L229,408.2148 L219,398.2148 " fill="#FEFFDD" style="stroke:#181818;stroke-width:0.5;"/><text fill="#000000" font-family="sans-serif" font-size="13" lengthAdjust="spacing" textLength="55.4595" x="59" y="415.7832">Headers:</text><text fill="#000000" font-family="sans-serif" font-size="13" lengthAdjust="spacing" textLength="138.7725" x="75.4531" y="431.0938">Authorization: {token}</text><polygon fill="#181818" points="281.6973,461.1465,291.6973,465.1465,281.6973,469.1465,285.6973,465.1465" style="stroke:#181818;stroke-width:1.0;"/><line style="stroke:#181818;stroke-width:1.0;" x1="162.6987" x2="287.6973" y1="465.1465" y2="465.1465"/><text fill="#000000" font-family="sans-serif" font-size="13" lengthAdjust="spacing" textLength="100.439" x="169.6987" y="460.4043">forward request</text><polygon fill="#181818" points="594.4092,490.457,604.4092,494.457,594.4092,498.457,598.4092,494.457" style="stroke:#181818;stroke-width:1.0;"/><line style="stroke:#181818;stroke-width:1.0;" x1="293.6973" x2="600.4092" y1="494.457" y2="494.457"/><text fill="#000000" font-family="sans-serif" font-size="13" lengthAdjust="spacing" textLength="146.4722" x="300.6973" y="489.7148">forward to GET /profile</text><polygon fill="#181818" points="304.6973,504.457,294.6973,508.457,304.6973,512.457,300.6973,508.457" style="stroke:#181818;stroke-width:1.0;"/><line style="stroke:#181818;stroke-width:1.0;stroke-dasharray:2.0,2.0;" x1="298.6973" x2="605.4092" y1="508.457" y2="508.457"/><path d="M448,521.457 L448,607.457 L601,607.457 L601,531.457 L591,521.457 L448,521.457 " fill="#FEFFDD" style="stroke:#181818;stroke-width:0.5;"/><path d="M591,521.457 L591,531.457 L601,531.457 L591,521.457 " fill="#FEFFDD" style="stroke:#181818;stroke-width:0.5;"/><text fill="#000000" font-family="sans-serif" font-size="13" lengthAdjust="spacing" textLength="4.2275" x="454" y="539.0254">{</text><text fill="#000000" font-family="sans-serif" font-size="13" lengthAdjust="spacing" textLength="42.2119" x="470.4531" y="554.3359">"id": 1,</text><text fill="#000000" font-family="sans-serif" font-size="13" lengthAdjust="spacing" textLength="90.6953" x="470.4531" y="569.6465">"login": "user",</text><text fill="#000000" font-family="sans-serif" font-size="13" lengthAdjust="spacing" textLength="115.6162" x="470.4531" y="584.957">"nickname": "user"</text><text fill="#000000" font-family="sans-serif" font-size="13" lengthAdjust="spacing" textLength="4.2275" x="454" y="600.2676">}</text><polygon fill="#181818" points="173.6987,615.0098,163.6987,619.0098,173.6987,623.0098,169.6987,619.0098" style="stroke:#181818;stroke-width:1.0;"/><line style="stroke:#181818;stroke-width:1.0;stroke-dasharray:2.0,2.0;" x1="167.6987" x2="292.6973" y1="619.0098" y2="619.0098"/><path d="M135,632.0098 L135,718.0098 L288,718.0098 L288,642.0098 L278,632.0098 L135,632.0098 " fill="#FEFFDD" style="stroke:#181818;stroke-width:0.5;"/><path d="M278,632.0098 L278,642.0098 L288,642.0098 L278,632.0098 " fill="#FEFFDD" style="stroke:#181818;stroke-width:0.5;"/><text fill="#000000" font-family="sans-serif" font-size="13" lengthAdjust="spacing" textLength="4.2275" x="141" y="649.5781">{</text><text fill="#000000" font-family="sans-serif" font-size="13" lengthAdjust="spacing" textLength="42.2119" x="157.4531" y="664.8887">"id": 1,</text><text fill="#000000" font-family="sans-serif" font-size="13" lengthAdjust="spacing" textLength="90.6953" x="157.4531" y="680.1992">"login": "user",</text><text fill="#000000" font-family="sans-serif" font-size="13" lengthAdjust="spacing" textLength="115.6162" x="157.4531" y="695.5098">"nickname": "user"</text><text fill="#000000" font-family="sans-serif" font-size="13" lengthAdjust="spacing" textLength="4.2275" x="141" y="710.8203">}</text><polygon fill="#181818" points="59.1826,725.5625,49.1826,729.5625,59.1826,733.5625,55.1826,729.5625" style="stroke:#181818;stroke-width:1.0;"/><line style="stroke:#181818;stroke-width:1.0;stroke-dasharray:2.0,2.0;" x1="53.1826" x2="161.6987" y1="729.5625" y2="729.5625"/><path d="M5,742.5625 L5,828.5625 L158,828.5625 L158,752.5625 L148,742.5625 L5,742.5625 " fill="#FEFFDD" style="stroke:#181818;stroke-width:0.5;"/><path d="M148,742.5625 L148,752.5625 L158,752.5625 L148,742.5625 " fill="#FEFFDD" style="stroke:#181818;stroke-width:0.5;"/><text fill="#000000" font-family="sans-serif" font-size="13" lengthAdjust="spacing" textLength="4.2275" x="11" y="760.1309">{</text><text fill="#000000" font-family="sans-serif" font-size="13" lengthAdjust="spacing" textLength="42.2119" x="27.4531" y="775.4414">"id": 1,</text><text fill="#000000" font-family="sans-serif" font-size="13" lengthAdjust="spacing" textLength="90.6953" x="27.4531" y="790.752">"login": "user",</text><text fill="#000000" font-family="sans-serif" font-size="13" lengthAdjust="spacing" textLength="115.6162" x="27.4531" y="806.0625">"nickname": "user"</text><text fill="#000000" font-family="sans-serif" font-size="13" lengthAdjust="spacing" textLength="4.2275" x="11" y="821.373">}</text><!--SRC=[hLBBJiCm4BplLwnyReMuve24408kW7XyW9jiNQl16_mWBLN_7JlFcWCIKdEAPZOpExEHfMUBujsH5IWT1bXnC9MqUnIFIfiTFXXboJcyOUCjr_KmQDGE6cczBdKZZKUXfATMxZjIjJadWzzWjFZI9NK32SX7GgIniRpMDMMZ0mOGS7cLR0jyVdfzmmkdbLbg0uOzeTLgu-FsB_GPo7bSSRKlu00O7r5pJ2AAtaGiUh2HphLiguHFxmAEGAR2f0aGpPAdQWjSissbhT3s-W2gJLJACPEUVwtMvLuE4WVFMpB7_jCnoWHsNX4D9zYS-EusgevDP87lILPaNT65kev-RFMtz9hDBFIVH8D95YfpX_58Gwv-dPhMVZhLKBjEtLuk_hY1qUNMo0-QyAp-kQSJZ_XhdKb-Qln4FNcTIVu7]--></g></svg>