<svg xmlns="http://www.w3.org/2000/svg" xmlns:xlink="http://www.w3.org/1999/xlink" contentStyleType="text/css" height="521px" preserveAspectRatio="none" style="width:733px;height:521px;background:#FFFFFF;" version="1.1" viewBox="0 0 733 521" width="733px" zoomAndPan="magnify"><defs/><g><rect fill="#90EE90" height="252.3945" style="stroke:#000000;stroke-width:1.5;" width="716.3218" x="10" y="171.1094"/><rect fill="#FF7F50" height="44.2656" style="stroke:none;stroke-width:1.0;" width="716.3218" x="10" y="334.9727"/><rect fill="#FF7F50" height="44.2656" style="stroke:none;stroke-width:1.0;" width="716.3218" x="10" y="379.2383"/><line style="stroke:#181818;stroke-width:0.5;stroke-dasharray:5.0,5.0;" x1="38" x2="38" y1="81.4883" y2="440.5039"/><line style="stroke:#181818;stroke-width:0.5;stroke-dasharray:5.0,5.0;" x1="229.5337" x2="229.5337" y1="81.4883" y2="440.5039"/><line style="stroke:#181818;stroke-width:0.5;stroke-dasharray:5.0,5.0;" x1="310.7729" x2="310.7729" y1="81.4883" y2="440.5039"/><line style="stroke:#181818;stroke-width:0.5;stroke-dasharray:5.0,5.0;" x1="422.1636" x2="422.1636" y1="81.4883" y2="440.5039"/><line style="stroke:#181818;stroke-width:0.5;stroke-dasharray:5.0,5.0;" x1="689.646" x2="689.646" y1="81.4883" y2="440.5039"/><text fill="#000000" font-family="sans-serif" font-size="14" lengthAdjust="spacing" textLength="30.3652" x="20" y="78.5352">User</text><ellipse cx="38.1826" cy="13.5" fill="#E2E2F0" rx="8" ry="8" style="stroke:#181818;stroke-width:0.5;"/><path d="M38.1826,21.5 L38.1826,48.5 M25.1826,29.5 L51.1826,29.5 M38.1826,48.5 L25.1826,63.5 M38.1826,48.5 L51.1826,63.5 " fill="none" style="stroke:#181818;stroke-width:0.5;"/><text fill="#000000" font-family="sans-serif" font-size="14" lengthAdjust="spacing" textLength="30.3652" x="20" y="453.0391">User</text><ellipse cx="38.1826" cy="464.4922" fill="#E2E2F0" rx="8" ry="8" style="stroke:#181818;stroke-width:0.5;"/><path d="M38.1826,472.4922 L38.1826,499.4922 M25.1826,480.4922 L51.1826,480.4922 M38.1826,499.4922 L25.1826,514.4922 M38.1826,499.4922 L51.1826,514.4922 " fill="none" style="stroke:#181818;stroke-width:0.5;"/><rect fill="#E2E2F0" height="30.4883" rx="2.5" ry="2.5" style="stroke:#181818;stroke-width:0.5;" width="69.3301" x="195.5337" y="50"/><text fill="#000000" font-family="sans-serif" font-size="14" lengthAdjust="spacing" textLength="55.3301" x="202.5337" y="70.5352">gateway</text><rect fill="#E2E2F0" height="30.4883" rx="2.5" ry="2.5" style="stroke:#181818;stroke-width:0.5;" width="69.3301" x="195.5337" y="439.5039"/><text fill="#000000" font-family="sans-serif" font-size="14" lengthAdjust="spacing" textLength="55.3301" x="202.5337" y="460.0391">gateway</text><text fill="#000000" font-family="sans-serif" font-size="14" lengthAdjust="spacing" textLength="59.9854" x="278.7729" y="78.5352">Keycloak</text><path d="M291.2656,37 L291.2656,61 M291.2656,49 L308.2656,49 " fill="none" style="stroke:#181818;stroke-width:0.5;"/><ellipse cx="320.2656" cy="49" fill="#E2E2F0" rx="12" ry="12" style="stroke:#181818;stroke-width:0.5;"/><text fill="#000000" font-family="sans-serif" font-size="14" lengthAdjust="spacing" textLength="59.9854" x="278.7729" y="453.0391">Keycloak</text><path d="M291.2656,459.9922 L291.2656,483.9922 M291.2656,471.9922 L308.2656,471.9922 " fill="none" style="stroke:#181818;stroke-width:0.5;"/><ellipse cx="320.2656" cy="471.9922" fill="#E2E2F0" rx="12" ry="12" style="stroke:#181818;stroke-width:0.5;"/><rect fill="#E2E2F0" height="30.4883" rx="2.5" ry="2.5" style="stroke:#181818;stroke-width:0.5;" width="98.1025" x="373.1636" y="50"/><text fill="#000000" font-family="sans-serif" font-size="14" lengthAdjust="spacing" textLength="84.1025" x="380.1636" y="70.5352">subscription</text><rect fill="#E2E2F0" height="30.4883" rx="2.5" ry="2.5" style="stroke:#181818;stroke-width:0.5;" width="98.1025" x="373.1636" y="439.5039"/><text fill="#000000" font-family="sans-serif" font-size="14" lengthAdjust="spacing" textLength="84.1025" x="380.1636" y="460.0391">subscription</text><text fill="#000000" font-family="sans-serif" font-size="14" lengthAdjust="spacing" textLength="46.6758" x="663.646" y="78.5352">Mongo</text><path d="M671.9839,29 C671.9839,19 689.9839,19 689.9839,19 C689.9839,19 707.9839,19 707.9839,29 L707.9839,55 C707.9839,65 689.9839,65 689.9839,65 C689.9839,65 671.9839,65 671.9839,55 L671.9839,29 " fill="#E2E2F0" style="stroke:#181818;stroke-width:1.5;"/><path d="M671.9839,29 C671.9839,39 689.9839,39 689.9839,39 C689.9839,39 707.9839,39 707.9839,29 " fill="none" style="stroke:#181818;stroke-width:1.5;"/><text fill="#000000" font-family="sans-serif" font-size="14" lengthAdjust="spacing" textLength="46.6758" x="663.646" y="453.0391">Mongo</text><path d="M671.9839,465.9922 C671.9839,455.9922 689.9839,455.9922 689.9839,455.9922 C689.9839,455.9922 707.9839,455.9922 707.9839,465.9922 L707.9839,491.9922 C707.9839,501.9922 689.9839,501.9922 689.9839,501.9922 C689.9839,501.9922 671.9839,501.9922 671.9839,491.9922 L671.9839,465.9922 " fill="#E2E2F0" style="stroke:#181818;stroke-width:1.5;"/><path d="M671.9839,465.9922 C671.9839,475.9922 689.9839,475.9922 689.9839,475.9922 C689.9839,475.9922 707.9839,475.9922 707.9839,465.9922 " fill="none" style="stroke:#181818;stroke-width:1.5;"/><polygon fill="#181818" points="218.1987,108.7988,228.1987,112.7988,218.1987,116.7988,222.1987,112.7988" style="stroke:#181818;stroke-width:1.0;"/><line style="stroke:#181818;stroke-width:1.0;" x1="38.1826" x2="224.1987" y1="112.7988" y2="112.7988"/><text fill="#000000" font-family="sans-serif" font-size="13" lengthAdjust="spacing" textLength="168.0161" x="45.1826" y="108.0566">GET /api/v1/subscriptions</text><polygon fill="#181818" points="299.7656,138.1094,309.7656,142.1094,299.7656,146.1094,303.7656,142.1094" style="stroke:#181818;stroke-width:1.0;"/><line style="stroke:#181818;stroke-width:1.0;" x1="230.1987" x2="305.7656" y1="142.1094" y2="142.1094"/><text fill="#000000" font-family="sans-serif" font-size="13" lengthAdjust="spacing" textLength="57.5669" x="237.1987" y="137.3672">verify jwt</text><polygon fill="#181818" points="241.1987,152.1094,231.1987,156.1094,241.1987,160.1094,237.1987,156.1094" style="stroke:#181818;stroke-width:1.0;"/><line style="stroke:#181818;stroke-width:1.0;stroke-dasharray:2.0,2.0;" x1="235.1987" x2="310.7656" y1="156.1094" y2="156.1094"/><path d="M10,171.1094 L72.1387,171.1094 L72.1387,178.4199 L62.1387,188.4199 L10,188.4199 L10,171.1094 " fill="#EEEEEE" style="stroke:#000000;stroke-width:1.5;"/><rect fill="none" height="252.3945" style="stroke:#000000;stroke-width:1.5;" width="716.3218" x="10" y="171.1094"/><text fill="#000000" font-family="sans-serif" font-size="13" font-weight="bold" lengthAdjust="spacing" textLength="17.1387" x="25" y="184.6777">alt</text><text fill="#000000" font-family="sans-serif" font-size="11" font-weight="bold" lengthAdjust="spacing" textLength="70.2485" x="87.1387" y="183.7441">[jwt is valid]</text><polygon fill="#181818" points="410.2148,205.7305,420.2148,209.7305,410.2148,213.7305,414.2148,209.7305" style="stroke:#181818;stroke-width:1.0;"/><line style="stroke:#181818;stroke-width:1.0;" x1="230.1987" x2="416.2148" y1="209.7305" y2="209.7305"/><text fill="#000000" font-family="sans-serif" font-size="13" lengthAdjust="spacing" textLength="168.0161" x="237.1987" y="204.9883">GET /api/v1/subscriptions</text><polygon fill="#181818" points="677.9839,235.041,687.9839,239.041,677.9839,243.041,681.9839,239.041" style="stroke:#181818;stroke-width:1.0;"/><line style="stroke:#181818;stroke-width:1.0;" x1="422.2148" x2="683.9839" y1="239.041" y2="239.041"/><text fill="#000000" font-family="sans-serif" font-size="13" lengthAdjust="spacing" textLength="243.769" x="429.2148" y="234.2988">get user subscription config by user id</text><polygon fill="#181818" points="433.2148,264.3516,423.2148,268.3516,433.2148,272.3516,429.2148,268.3516" style="stroke:#181818;stroke-width:1.0;"/><line style="stroke:#181818;stroke-width:1.0;stroke-dasharray:2.0,2.0;" x1="427.2148" x2="688.9839" y1="268.3516" y2="268.3516"/><text fill="#000000" font-family="sans-serif" font-size="13" lengthAdjust="spacing" textLength="121.564" x="439.2148" y="263.6094">subscription config</text><polygon fill="#181818" points="241.1987,293.6621,231.1987,297.6621,241.1987,301.6621,237.1987,297.6621" style="stroke:#181818;stroke-width:1.0;"/><line style="stroke:#181818;stroke-width:1.0;stroke-dasharray:2.0,2.0;" x1="235.1987" x2="421.2148" y1="297.6621" y2="297.6621"/><text fill="#000000" font-family="sans-serif" font-size="13" lengthAdjust="spacing" textLength="121.564" x="247.1987" y="292.9199">subscription config</text><polygon fill="#181818" points="49.1826,322.9727,39.1826,326.9727,49.1826,330.9727,45.1826,326.9727" style="stroke:#181818;stroke-width:1.0;"/><line style="stroke:#181818;stroke-width:1.0;stroke-dasharray:2.0,2.0;" x1="43.1826" x2="229.1987" y1="326.9727" y2="326.9727"/><text fill="#000000" font-family="sans-serif" font-size="13" lengthAdjust="spacing" textLength="121.564" x="55.1826" y="322.2305">subscription config</text><line style="stroke:#000000;stroke-width:1.0;stroke-dasharray:2.0,2.0;" x1="10" x2="726.3218" y1="335.9727" y2="335.9727"/><text fill="#000000" font-family="sans-serif" font-size="11" font-weight="bold" lengthAdjust="spacing" textLength="80.9155" x="15" y="346.6074">[jwt is absent]</text><polygon fill="#181818" points="49.1826,367.2383,39.1826,371.2383,49.1826,375.2383,45.1826,371.2383" style="stroke:#181818;stroke-width:1.0;"/><line style="stroke:#181818;stroke-width:1.0;stroke-dasharray:2.0,2.0;" x1="43.1826" x2="229.1987" y1="371.2383" y2="371.2383"/><text fill="#000000" font-family="sans-serif" font-size="13" lengthAdjust="spacing" textLength="94.834" x="55.1826" y="366.4961">HttpStatus 401</text><line style="stroke:#000000;stroke-width:1.0;stroke-dasharray:2.0,2.0;" x1="10" x2="726.3218" y1="380.2383" y2="380.2383"/><text fill="#000000" font-family="sans-serif" font-size="11" font-weight="bold" lengthAdjust="spacing" textLength="92.5815" x="15" y="390.873">[jwt is not valid]</text><polygon fill="#181818" points="49.1826,411.5039,39.1826,415.5039,49.1826,419.5039,45.1826,415.5039" style="stroke:#181818;stroke-width:1.0;"/><line style="stroke:#181818;stroke-width:1.0;stroke-dasharray:2.0,2.0;" x1="43.1826" x2="229.1987" y1="415.5039" y2="415.5039"/><text fill="#000000" font-family="sans-serif" font-size="13" lengthAdjust="spacing" textLength="94.834" x="55.1826" y="410.7617">HttpStatus 403</text><!--SRC=[VP31JiCm38RlVWghEqzbWjCEt118Y1Fm06xgXP0igHAtLT-U91jYG26doF__-RTDIaB4vZLnR90IZla30qKnoWpa1HjDmZCjLTKpT67qFSK5cqTUb0jagsBjTogDNLBH36A2huPSW9w4EagCpLFmEjJwiVm0IYvkRtF27k_lNh2bmRJJhhtiaq3FnMFj7YUEvh3W-onWBMuh2UG4DyxeDz6HsHSLJSA9dEa1yplnkUT_8SMOAyLPXzkZPgc7mKiZgk0FHcEtdBHpH4NgG3LcXVWAEE_xbwTCcosb-xg9NRxbHeL8xdDNwX9x-Oq_Y0pFGZ8clBdQhP4-o8zBhSFNmBw73m00]--></g></svg>